<?xml version="1.0" encoding="UTF-8"?>
<!DOCTYPE svg PUBLIC "-//W3C//DTD SVG 1.1//EN" "http://www.w3.org/Graphics/SVG/1.1/DTD/svg11.dtd">
<!-- Creator: CorelDRAW 2018 (64-Bit) -->
<svg xmlns="http://www.w3.org/2000/svg" xml:space="preserve" width="210mm" height="164.961mm" version="1.1" style="shape-rendering:geometricPrecision; text-rendering:geometricPrecision; image-rendering:optimizeQuality; fill-rule:evenodd; clip-rule:evenodd"
viewBox="0 0 21000 16496.06"
 xmlns:xlink="http://www.w3.org/1999/xlink">
 <defs>
  <style type="text/css">
   <![CDATA[
    .str3 {stroke:#00BD75;stroke-width:20;stroke-miterlimit:22.9256}
    .str2 {stroke:#00BD75;stroke-width:59.86;stroke-linecap:round;stroke-linejoin:round;stroke-miterlimit:22.9256}
    .str0 {stroke:#6AE0B3;stroke-width:59.86;stroke-linecap:round;stroke-linejoin:round;stroke-miterlimit:22.9256}
    .str6 {stroke:blue;stroke-width:44.89;stroke-linecap:round;stroke-linejoin:round;stroke-miterlimit:22.9256}
    .str5 {stroke:#009933;stroke-width:44.89;stroke-linecap:round;stroke-linejoin:round;stroke-miterlimit:22.9256}
    .str9 {stroke:#2B2A29;stroke-width:44.89;stroke-linecap:round;stroke-linejoin:round;stroke-miterlimit:22.9256}
    .str1 {stroke:#6AE0B3;stroke-width:44.89;stroke-linecap:round;stroke-linejoin:round;stroke-miterlimit:22.9256}
    .str4 {stroke:#990099;stroke-width:44.89;stroke-linecap:round;stroke-linejoin:round;stroke-miterlimit:22.9256}
    .str7 {stroke:#FFCC00;stroke-width:44.89;stroke-linecap:round;stroke-linejoin:round;stroke-miterlimit:22.9256}
    .str8 {stroke:#2B2A29;stroke-width:11.97;stroke-linecap:round;stroke-linejoin:round;stroke-miterlimit:22.9256}
    .fil3 {fill:none}
    .fil4 {fill:none;fill-rule:nonzero}
    .fil26 {fill:#003823}
    .fil25 {fill:#003823}
    .fil27 {fill:#006C8A}
    .fil6 {fill:#006C8A}
    .fil13 {fill:#00AFE0}
    .fil8 {fill:#00BD75}
    .fil5 {fill:#055E3C}
    .fil0 {fill:#2E3647}
    .fil1 {fill:#34C16F}
    .fil16 {fill:#666666}
    .fil7 {fill:#6AE0B3}
    .fil11 {fill:gray}
    .fil24 {fill:#C97246}
    .fil12 {fill:#DC5800}
    .fil9 {fill:#E6E6E6}
    .fil20 {fill:#EB701E}
    .fil21 {fill:red}
    .fil17 {fill:#FF7112}
    .fil19 {fill:#FF781F}
    .fil18 {fill:#FF8D41}
    .fil23 {fill:#FF9966}
    .fil10 {fill:white}
    .fil14 {fill:#2B2A29;fill-rule:nonzero}
    .fil15 {fill:#B3B3B3;fill-rule:nonzero}
    .fil22 {fill:red;fill-rule:nonzero}
    .fil2 {fill:#006C8A;fill-rule:nonzero;fill-opacity:0.129412}
   ]]>
  </style>
 </defs>
 <g id="Слой_x0020_1">
  <metadata id="CorelCorpID_0Corel-Layer"/>
  <path class="fil0" d="M739.04 0c-2484.13,5280.71 1769.95,10336.11 5708.99,10558.17 2977.98,167.87 3269.38,1289.39 3527.66,2245.93 1071.49,3967.98 8297.58,5863.01 11024.31,-175.4l0 -12628.7 -20260.96 0z"/>
  <path class="fil1" d="M17494.12 11441.04c278.44,-700.71 838.68,-1279.84 1579.14,-1564.16 18.81,-7.22 37.72,-14.26 56.77,-21.08 1299.35,-498.92 2043.75,-1905.68 1684.32,-3284.17 -386.05,-1480.47 -1899.14,-2367.68 -3379.63,-1981.64 -265.31,69.18 -511.57,174.56 -734.87,309.47 -22.29,14.36 -44.81,28.41 -67.58,42.17 -45.58,29.37 -90.11,60.02 -133.61,91.83 -133.1,97.07 -432.82,195.17 -597.29,238.05 -1366.53,356.34 -2760.86,-372.14 -3270.99,-1650.69l3.47 10.06c-882.14,-2566.51 -3607.73,-4058.62 -6277.27,-3362.53 -2800.9,730.35 -4479.4,3592.98 -3749.06,6393.87 1069.26,4100.6 5360.16,3912.25 5284.29,3915.42 990.95,16.69 1906.55,568.2 2383.03,1441.21 8.49,17.33 17.09,34.58 25.82,51.75 5.3,10.16 10.55,20.37 15.73,30.61 819.04,1576.31 2644.68,2435.96 4436.33,1968.78 1265.77,-330.06 2222.98,-1246.33 2656.44,-2381.87 24.46,-83.79 52.84,-166.25 84.96,-247.08z"/>
  <path id="_1" class="fil2" d="M6665.28 817.57l-901.87 3410.23 -851.55 0 -565.81 -2187.71c-30.03,-114.47 -47.89,-241.91 -54.39,-383.15l-9.74 0c-14.62,155.04 -34.9,283.3 -61.7,383.15l-580.41 2187.71 -887.25 0 -99.2 -377.48c111.77,-375.8 265.23,-736.93 456.19,-1076.85l66.74 315.42c20.29,96.6 35.72,226.49 44.65,389.66l14.62 0c6.49,-121.78 29.22,-254.91 68.99,-399.39l274.88 -1004.98c337.54,-424.46 742.25,-798.34 1203.31,-1103.92l522.01 2137.31c20.3,84.42 38.96,206.19 54.39,366.1l9.74 0c6.5,-125.01 22.74,-251.64 49.52,-379.91l471.63 -2276.19 775.25 0zm6291.48 3396.52c-130.69,-180.7 -240.98,-379.23 -326.38,-593.27l3.47 10.06c-180.5,-525.14 -438.25,-1005.26 -756.86,-1430.86 -21.74,125.39 -32.63,257.42 -32.63,396.13 0,512.23 149.37,922.17 449.72,1229.83 180.34,185.22 401.31,314.52 662.68,388.11zm-2498.9 -3317.74c-43.08,-26.93 -86.61,-53.11 -130.44,-78.78l-638.3 0 0 3410.23 2031.05 0 0 -623.43 -1262.31 0 0 -2708.02zm-1315.06 3331.45l-2045.66 0 0 -3410.23 1966.91 0 0 625.05 -1198.16 0 0 759.01 1115.36 0 0 622.63 -1115.36 0 0 780.11 1276.91 0 0 623.43z"/>
  <path class="fil2" d="M14385.37 5238.19c-401.18,-124.26 -769.95,-338.38 -1076.67,-625.06l-135.55 0 0 3410.24 2045.66 0 0 -623.44 -1276.91 0 0 -780.11 1115.37 0 0 -622.63 -1115.37 0 0 -759 443.47 0zm-11920.91 -435.8c-39.68,384.39 -36.87,777.32 11.8,1172.6 46.33,-179.33 130.28,-331.33 251.87,-455.94 196.44,-201.32 455.4,-301.97 775.25,-301.97 292.23,0 552,68.2 780.11,204.57l0 -739.53c-228.11,-84.42 -508.99,-126.64 -841.82,-126.64 -374.26,0 -700.08,82.32 -977.21,246.91zm302.94 2377.16c119.01,331.18 260.65,630.24 419.77,900.21 39.78,1.9 80.23,2.86 121.38,2.86 401.01,0 726.53,-60.06 974.94,-180.2l0 -702.19c-248.41,146.12 -522.8,219.18 -822.33,219.18 -283.78,0 -515.23,-80.16 -693.76,-239.86zm3492.73 903.07c-488.68,0 -886.45,-159.11 -1194.1,-476.51 -307.66,-318.2 -461.09,-732.21 -461.09,-1242.81 0,-539.01 155.85,-974.94 468.38,-1307.76 312.54,-332.83 725.73,-500.06 1241.2,-500.06 487.07,0 880.77,159.93 1181.12,478.14 300.35,319.03 450.54,739.53 450.54,1260.68 0,535.76 -155.86,968.44 -467.59,1296.39 -310.9,327.95 -717.6,491.93 -1218.46,491.93zm33.29 -2865.54c-269.51,0 -483.81,100.65 -642.11,303.6 -158.29,202.13 -237.85,469.21 -237.85,802.03 0,337.7 79.56,604.77 237.85,802.03 158.3,196.44 366.1,294.67 622.63,294.67 265.44,0 474.88,-95.8 630.75,-286.55 155.03,-191.59 232.97,-456.21 232.97,-795.55 0,-353.92 -75.51,-629.1 -225.68,-825.56 -150.99,-196.45 -357.18,-294.67 -618.56,-294.67zm6105.31 2806.29l-759.01 0 0 -2040.79c0,-219.99 9.74,-463.53 28.41,-729.79l-18.67 0c-39.77,209.45 -75.5,359.62 -107.15,452.16l-798.78 2318.42 -628.31 0 -813.39 -2294.87c-21.92,-61.7 -57.63,-220.81 -107.15,-475.71l-21.11 0c20.3,336.08 30.85,630.75 30.85,884.84l0 1885.74 -692.44 0 0 -3410.24 1125.11 0 697.31 2021.29c55.21,161.55 95.78,323.91 120.96,487.88l14.6 0c42.22,-189.15 87.68,-353.12 135.56,-492.74l696.51 -2016.43 1096.7 0 0 3410.24z"/>
  <path class="fil2" d="M20281.81 5520.45l-661.92 2502.92 -851.54 0 -565.81 -2187.73c-30.03,-114.45 -47.89,-241.9 -54.39,-383.15l-9.74 0c-14.62,155.06 -34.9,283.3 -61.7,383.15l-580.41 2187.73 -887.26 0 -722.22 -2748.25c4.85,-1.23 9.7,-2.35 14.55,-3.61 164.47,-42.88 464.19,-140.98 597.29,-238.05 40.54,-29.65 81.99,-58.28 124.33,-85.82l409.79 1936.81c20.29,96.61 35.72,226.5 44.65,389.66l14.61 0c6.49,-121.77 29.22,-254.9 69,-399.4l618.57 -2261.58 822.32 0 559.31 2289.99c20.29,84.43 38.96,206.19 54.39,366.1l9.74 0c6.5,-125 22.72,-251.65 49.51,-379.89l398.19 -1921.71c227.74,152.12 433.46,337.97 608.74,552.83z"/>
  <path class="fil3" d="M17494.12 11441.04c278.44,-700.71 838.68,-1279.84 1579.14,-1564.16 18.81,-7.22 37.72,-14.26 56.77,-21.08 1299.35,-498.92 2043.75,-1905.68 1684.32,-3284.17 -386.05,-1480.47 -1899.14,-2367.68 -3379.63,-1981.64 -265.31,69.18 -511.57,174.56 -734.87,309.47 -22.29,14.36 -44.81,28.41 -67.58,42.17 -45.58,29.37 -90.11,60.02 -133.61,91.83 -133.1,97.07 -432.82,195.17 -597.29,238.05 -1366.53,356.34 -2760.86,-372.14 -3270.99,-1650.69l3.47 10.06c-882.14,-2566.51 -3607.73,-4058.62 -6277.27,-3362.53 -2800.9,730.35 -4479.4,3592.98 -3749.06,6393.87 1069.26,4100.6 5360.16,3912.25 5284.29,3915.42 990.95,16.69 1906.55,568.2 2383.03,1441.21 8.49,17.33 17.09,34.58 25.82,51.75 5.3,10.16 10.55,20.37 15.73,30.61 819.04,1576.31 2644.68,2435.96 4436.33,1968.78 1265.77,-330.06 2222.98,-1246.33 2656.44,-2381.87 24.46,-83.79 52.84,-166.25 84.96,-247.08z"/>
  <path class="fil1" d="M19958.74 0c-12.53,53.96 -22.46,108.93 -29.46,164.81l0.49 -6.21c-120.79,1586.27 -1446.12,2835.78 -3063.33,2835.78 -1670.73,0 -3029.96,-1333.59 -3071.29,-2994.38l6163.59 0z"/>
  <path class="fil4 str0" d="M7871.18 3091.19c0,0 60.17,213.92 50.15,377.71 -10.04,163.78 -144.28,467.76 -144.28,467.76"/>
  <path class="fil5" d="M7753.25 7683.76c0,0 -735.36,-26.74 -1176.57,-668.5 -441.22,-641.77 -254.03,-1637.84 -1109.72,-1671.27 -855.67,-33.43 -748.71,835.64 -621.7,996.08 127.02,160.44 594.97,1303.57 1684.63,1510.82 1089.66,207.23 1223.36,-167.13 1223.36,-167.13zm-2092.55 -1418.13c-5.04,-16.68 4.41,-34.32 21.09,-39.35 16.69,-5.03 34.32,4.41 39.35,21.09 0.74,2.47 258.08,862.69 601.59,1078.83 349.9,220.16 873.64,383.8 875.15,384.27 16.62,5.25 25.85,22.99 20.6,39.61 -5.24,16.62 -22.98,25.85 -39.6,20.61 -1.53,-0.49 -532.26,-166.29 -889.71,-391.2 -363.83,-228.93 -627.71,-1111.33 -628.47,-1113.86z"/>
  <path class="fil6" d="M7706.45 9294.85c0,0 -1256.79,-862.36 -2286.29,-300.82 -1029.48,561.53 -1370.41,307.51 -1370.41,307.51 0,0 46.79,-1082.98 581.6,-1417.23 534.8,-334.25 2060.84,-5.69 2060.84,-5.69l987.52 868.06 26.74 548.17zm-2664.07 -762.02c-9.26,14.71 -28.71,19.13 -43.42,9.87 -14.71,-9.27 -19.13,-28.72 -9.87,-43.43 0.53,-0.84 177.45,-297.48 992.62,-208.43 801.17,87.51 1419.37,396.63 1421.16,397.52 15.6,7.69 22,26.59 14.31,42.19 -7.69,15.59 -26.59,22 -42.19,14.31 -1.76,-0.88 -610.09,-305.06 -1399.95,-391.34 -775.81,-84.75 -932.19,178.56 -932.66,179.31z"/>
  <path class="fil3 str0" d="M6836.9 8370.7c0,0 -1151.72,-822.27 -864.27,-2125.85 287.46,-1303.58 2082.4,-2389.9 2413.3,-2928.04 130.78,-212.66 308.5,-616.99 240.66,-855.69"/>
  <path class="fil3 str0" d="M9204.85 2720.17c0,0 -287.46,133.7 -474.64,290.8 -187.18,157.09 -344.28,305.84 -344.28,305.84"/>
  <path class="fil3 str0" d="M6153.13 4525.13c0,0 -137.04,411.14 -167.13,742.05 -30.08,330.9 51.11,753.59 51.11,753.59"/>
  <path class="fil7 str1" d="M9094.8 2775.62c0,0 66.6,-145.69 193.61,-227.59 127.03,-81.89 315.88,-1.67 315.88,-1.67 0,0 -56.82,138.72 -165.46,193.87 -108.64,55.14 -344.03,35.39 -344.03,35.39z"/>
  <path class="fil7 str1" d="M8641.54 2579.78c0,0 153.85,-320.31 78.66,-472.97 -75.21,-152.65 -277.43,-46.79 -240.67,106.97 36.77,153.75 162.01,366 162.01,366z"/>
  <path class="fil7 str1" d="M7894.85 3192.09c0,0 84.98,-216.23 -30.34,-353.27 -115.33,-137.04 -252.37,-18.38 -272.42,18.39 -20.06,36.77 -43.45,203.89 81.89,260.72 125.35,56.82 220.87,74.16 220.87,74.16z"/>
  <path class="fil7 str1" d="M6111.66 4660.56c0,0 519.46,-364.4 365.71,-491.41 -153.75,-127.01 -334.25,40.11 -374.36,153.77 -40.11,113.64 8.65,337.64 8.65,337.64z"/>
  <path class="fil5" d="M17701 9398.97c0,0 334.24,-976.02 808.88,-1691.31 474.64,-715.3 701.93,-802.21 701.93,-802.21l93.59 347.62c0,0 280.78,-203.9 407.79,-638.42 127.02,-434.53 344.28,-645.11 524.77,-725.33 180.51,-80.22 297.49,-80.22 297.49,-80.22 0,0 213.94,143.72 223.95,578.25 10.03,434.53 -147.07,508.07 -147.07,508.07l183.85 -16.71c0,0 -345.97,735.35 -496.38,969.33 -150.4,233.98 -295.82,414.46 -295.82,414.46 0,0 63.1,-36.76 154.61,-42.61 91.5,-5.85 155.02,5.01 155.02,5.01 0,0 -522.26,827.69 -1361.24,1292.31 -838.98,464.62 -1153.17,434.53 -1153.17,434.53l-98.2 -552.77zm2323.95 -2473.05c9.66,-14.45 29.23,-18.31 43.68,-8.64 14.44,9.66 18.3,29.23 8.64,43.67 -1.28,1.91 -242.13,364.2 -554.62,778.31 70.11,-46.65 158.73,-101.63 261.14,-156.76 263.48,-141.86 503.52,-209.51 504.2,-209.71 16.69,-4.83 34.15,4.78 38.99,21.47 4.83,16.68 -4.78,34.15 -21.47,38.98 -0.66,0.19 -233.92,65.9 -491.86,204.78 -239.2,128.79 -400.84,256.03 -423.65,274.32 -175.74,225.69 -365.3,454.05 -543.12,638.06 102.37,-40.09 245.92,-92.61 390.16,-133.18 269.43,-75.77 567.97,-121.07 568.83,-121.19 17.24,-2.53 33.27,9.41 35.79,26.64 2.52,17.23 -9.41,33.26 -26.65,35.79 -0.85,0.11 -295.58,44.83 -560.94,119.46 -244.6,68.8 -487,172.38 -524.12,188.45 -13.97,13.2 -27.82,26.05 -41.55,38.5 -573.23,519.91 -732.18,705.35 -732.64,705.89 -11.38,13.14 -31.27,14.58 -44.41,3.21 -13.14,-11.38 -14.58,-31.27 -3.21,-44.41 0.48,-0.55 161.48,-188.38 738.07,-711.33 14.3,-12.97 28.74,-26.4 43.32,-40.2 0.81,-0.86 1.67,-1.69 2.59,-2.46 205.82,-195.41 437.17,-470.6 648.65,-742.29 1.09,-1.73 2.36,-3.37 3.8,-4.89 370.45,-476.35 678.93,-940.32 680.38,-942.47z"/>
  <path class="fil6" d="M17007.18 10151.93c0,0 728.67,-768.8 1988.8,-701.94 1260.12,66.86 1962.07,735.36 1550.93,1169.89 -411.14,434.51 -1624.48,-163.78 -1624.48,-163.78 0,0 -862.36,-521.44 -1474.04,-153.77 -611.68,367.69 -441.21,-150.4 -441.21,-150.4zm3015.07 88.27c14.91,8.93 19.77,28.27 10.84,43.18 -8.92,14.91 -28.27,19.78 -43.18,10.85 -2.01,-1.2 -693.12,-422.49 -1702.14,-323.24 -1006.18,98.96 -1147.98,288.56 -1148.41,289.1 -10.83,13.56 -30.61,15.77 -44.17,4.94 -13.56,-10.83 -15.77,-30.61 -4.94,-44.17 0.48,-0.6 158.64,-210.98 1191.35,-312.55 1029.89,-101.31 1738.59,330.66 1740.65,331.89z"/>
  <path class="fil3 str2" d="M17341.24 10814.11c0,0 240.66,892.45 885.77,982.7 645.1,90.26 852.34,-334.26 852.34,-334.26 0,0 197.2,-391.07 728.67,-367.66 531.46,23.39 855.68,377.7 855.68,377.7"/>
  <path class="fil3 str2" d="M19211.37 10897.67c0,0 -133.69,142.05 -158.76,274.08 -25.08,132.04 8.85,321.14 8.85,321.14"/>
  <path class="fil3 str2" d="M19636.45 11102.2c0,0 52.06,187.38 129.77,255.9 77.72,68.53 250.7,142.06 250.7,142.06"/>
  <path class="fil3 str2" d="M17928.06 11686.96c0,0 95.03,-211.88 280.53,-352.26 185.52,-140.39 382.73,-202.22 382.73,-202.22"/>
  <path class="fil3 str2" d="M18374.1 11809.08c0,0 123.63,105.55 213.87,137.3 90.26,31.76 240.68,35.1 240.68,35.1"/>
  <path class="fil8 str3" d="M18511.17 11162.75c0,0 96.85,-234.15 203.82,-178.16 106.97,55.99 43.46,174.64 -52.64,207.23 -96.11,32.6 -192.57,-11 -192.57,-11l41.39 -18.07z"/>
  <path class="fil8 str2" d="M19168.83 10948.18c0,0 60.89,-276.14 208.81,-240.21 147.9,35.94 -36.78,184.69 -109.48,220.62 -72.69,35.93 -99.33,19.59 -99.33,19.59z"/>
  <path class="fil8 str3" d="M19954.94 11471.78c0,0 180.58,-65.23 242.42,20 61.84,85.24 -8.36,218.94 -115.32,175.49 -106.96,-43.45 -127.1,-195.49 -127.1,-195.49z"/>
  <path class="fil8 str3" d="M20419.64 11272.85c0,0 188.85,-70.2 389.4,55.16 200.56,125.34 33.42,309.18 33.42,309.18 0,0 -137.04,133.7 -279.1,-23.4 -142.05,-157.1 -143.72,-340.94 -143.72,-340.94z"/>
  <path class="fil8 str3" d="M18749.58 11976.54c0,0 167.59,-140.48 279.57,-50.23 111.98,90.26 -53.48,163.79 -140.39,140.39 -86.9,-23.39 -139.18,-90.16 -139.18,-90.16z"/>
  <path class="fil9" d="M6994.2 3582.28l11030.28 0c156.9,0 284.13,127.23 284.13,284.13l0 6935.69c0,156.9 -127.23,284.13 -284.13,284.13l-11030.28 0c-156.88,0 -284.12,-127.23 -284.12,-284.13l-0.01 -6935.69c0.01,-156.9 127.25,-284.13 284.14,-284.13z"/>
  <path class="fil6" d="M6994.2 3582.29l11030.29 0c156.26,0 284.12,127.85 284.12,284.12l0 217.27 -11598.53 0 0 -217.27c0,-156.27 127.85,-284.12 284.12,-284.12z"/>
  <circle class="fil10" cx="7078.25" cy="3837.67" r="121.17"/>
  <circle class="fil10" cx="7449.19" cy="3837.67" r="121.17"/>
  <circle class="fil10" cx="7820.13" cy="3837.67" r="121.17"/>
  <path class="fil1" d="M7511.87 5045.15l1529.2 0c41.54,0 75.22,33.68 75.22,75.21l-0.01 0c0.01,41.52 -33.67,75.21 -75.2,75.21l-1529.21 0c-41.51,0 -75.2,-33.69 -75.2,-75.21l-0.01 0c0.01,-41.53 33.7,-75.21 75.22,-75.21z"/>
  <path class="fil1" d="M7527.03 5396.11l1837.31 0c49.9,0 90.37,33.68 90.37,75.21l-0.01 0c0.01,41.52 -40.46,75.21 -90.35,75.21l-1837.32 0c-49.89,0 -90.36,-33.69 -90.36,-75.21l-0.01 0c0.01,-41.53 40.48,-75.21 90.38,-75.21z"/>
  <path class="fil11" d="M7473.65 5868.24l2079.86 0c20.43,0 37,7.95 37,17.76l-0.02 0c0.02,9.8 -16.55,17.76 -36.97,17.76l-2079.87 0c-20.41,0 -36.98,-7.96 -36.98,-17.76l-0.01 0c0.01,-9.81 16.58,-17.76 37,-17.76z"/>
  <path class="fil11" d="M7469.13 5993.58l1825.68 0c17.94,0 32.48,7.96 32.48,17.76l-0.01 0c0.01,9.81 -14.53,17.76 -32.46,17.76l-1825.69 0c-17.91,0 -32.46,-7.95 -32.46,-17.76l-0.01 0c0.01,-9.8 14.56,-17.76 32.49,-17.76z"/>
  <path class="fil11" d="M7472.18 6118.93l1997.15 0c19.63,0 35.53,7.95 35.53,17.76l-0.01 0c0.01,9.8 -15.89,17.76 -35.51,17.76l-1997.16 0c-19.6,0 -35.51,-7.96 -35.51,-17.76l-0.01 0c0.01,-9.81 15.92,-17.76 35.54,-17.76z"/>
  <path class="fil11" d="M7469.27 6244.28l1833.76 0c18.01,0 32.62,7.96 32.62,17.76l-0.01 0c0.01,9.8 -14.6,17.76 -32.6,17.76l-1833.77 0c-17.99,0 -32.6,-7.96 -32.6,-17.76l-0.01 0c0.01,-9.8 14.62,-17.76 32.62,-17.76z"/>
  <path class="fil11" d="M7464.68 6369.63l1575.54 0c15.48,0 28.02,7.95 28.02,17.76l-0.01 0c0.01,9.8 -12.53,17.76 -28,17.76l-1575.55 0c-15.46,0 -28.01,-7.96 -28.01,-17.76l-0.01 0c0.01,-9.81 12.56,-17.76 28.03,-17.76z"/>
  <path class="fil12" d="M7458.84 6716.4l450.77 0c12.26,0 22.19,33.68 22.19,75.21l-0.02 0c0.02,41.52 -9.91,75.2 -22.16,75.2l-450.78 0c-12.24,0 -22.17,-33.68 -22.17,-75.2l-0.01 0c0.01,-41.53 9.94,-75.21 22.19,-75.21z"/>
  <path class="fil13" d="M6135.18 8730.28l3852.24 0c124.6,0 225.64,101.04 225.64,225.62l-0.01 576.58c0.01,124.59 -101.03,225.63 -225.62,225.63l-3852.25 0c-124.57,0 -225.61,-101.04 -225.61,-225.63l-0.01 -576.58c0.01,-124.58 101.05,-225.62 225.63,-225.62z"/>
  <path class="fil10" d="M9498.58 8876.52c201.92,0 365.59,163.67 365.59,365.58 0,201.91 -163.67,365.59 -365.59,365.59 -132.28,0 -248.13,-70.25 -312.32,-175.47l-2868.25 0c-45.41,0 -82.56,-37.15 -82.56,-82.54l0 -210.96c0,-45.41 37.15,-82.54 82.56,-82.54l2865.76 0c63.66,-107.54 180.79,-179.66 314.81,-179.66z"/>
  <path class="fil14" d="M9469.19 8974.58c55.93,0 106.63,22.73 143.36,59.46l0.09 0.09 0.1 -0.09c36.73,36.73 59.46,87.5 59.46,143.55 0,55.89 -22.76,106.63 -59.56,143.46l0.1 0.09c-36.72,36.74 -87.49,59.47 -143.55,59.47 -56.05,0 -106.82,-22.73 -143.55,-59.47l-2.75 -2.99c-35.11,-36.5 -56.71,-86.04 -56.71,-140.56 0,-56.05 22.73,-106.81 59.46,-143.54 36.73,-36.74 87.5,-59.47 143.55,-59.47zm76.66 126.36c-19.59,-19.52 -46.69,-31.6 -76.66,-31.6 -29.89,0 -56.97,12.11 -76.56,31.7 -19.57,19.58 -31.7,46.66 -31.7,76.55 0,28.93 11.26,55.18 29.6,74.58l2.1 1.97c19.59,19.6 46.67,31.71 76.56,31.71 29.9,0 56.98,-12.11 76.56,-31.71l0.1 0.1 0.09 -0.1c19.47,-19.46 31.52,-46.52 31.52,-76.55 0,-29.89 -12.12,-56.97 -31.71,-76.55l0.1 -0.1z"/>
  <path class="fil14" d="M9519.03 9337.43c-16.66,-20.03 -13.92,-49.78 6.11,-66.43 20.03,-16.67 49.77,-13.93 66.43,6.11l123.86 149.21c16.66,20.03 13.93,49.77 -6.11,66.43 -20.03,16.65 -49.77,13.92 -66.43,-6.11l-123.86 -149.21z"/>
  <path class="fil15" d="M12002.56 9206.57c0,176.27 -71.46,335.88 -186.99,451.4 -115.53,115.53 -275.14,187.01 -451.4,187.01 -176.28,0 -335.89,-71.48 -451.41,-187.01 -115.53,-115.52 -187,-275.13 -187,-451.4 0,-176.26 71.47,-335.87 187,-451.4 115.52,-115.52 275.13,-186.99 451.41,-186.99 74.17,0 147.92,13.34 217.99,38.84 69.85,25.42 134.93,62.69 192.02,110.58l-202.34 241.81c-29.43,-24.7 -62.31,-43.67 -97.01,-56.29 -34.46,-12.54 -71.89,-19.11 -110.66,-19.11 -89.09,0 -169.74,36.1 -228.11,94.47 -58.36,58.36 -94.47,139.02 -94.47,228.09 0,89.09 36.11,169.74 94.47,228.11 58.37,58.36 139.02,94.47 228.11,94.47 89.07,0 169.74,-36.11 228.09,-94.47 58.37,-58.37 94.47,-139.02 94.47,-228.11l315.83 0z"/>
  <path class="fil16" d="M7445.13 10655.35l476.12 0c4.69,0 8.48,7.95 8.48,17.76l-0.01 0c0.01,9.8 -3.78,17.76 -8.46,17.76l-476.13 0c-4.67,0 -8.46,-7.96 -8.46,-17.76l-0.01 0c0.01,-9.81 3.8,-17.76 8.48,-17.76z"/>
  <path class="fil16" d="M8226.46 10655.35l476.12 0c4.69,0 8.48,7.95 8.48,17.76l-0.01 0c0.01,9.8 -3.78,17.76 -8.46,17.76l-476.13 0c-4.67,0 -8.46,-7.96 -8.46,-17.76l-0.01 0c0.01,-9.81 3.8,-17.76 8.48,-17.76z"/>
  <path class="fil16" d="M9007.79 10655.35l476.12 0c4.69,0 8.48,7.95 8.48,17.76l-0.01 0c0.01,9.8 -3.78,17.76 -8.46,17.76l-476.13 0c-4.67,0 -8.46,-7.96 -8.46,-17.76l-0.01 0c0.01,-9.81 3.8,-17.76 8.48,-17.76z"/>
  <path class="fil16" d="M9789.11 10655.35l476.12 0c4.69,0 8.48,7.95 8.48,17.76l-0.01 0c0.01,9.8 -3.78,17.76 -8.46,17.76l-476.13 0c-4.67,0 -8.46,-7.96 -8.46,-17.76l-0.01 0c0.01,-9.81 3.8,-17.76 8.48,-17.76z"/>
  <path class="fil16" d="M10794.91 10182.19l1117.6 0c10.98,0 19.89,7.95 19.89,17.76l0 0c0,9.8 -8.91,17.76 -19.89,17.76l-1117.6 0c-10.96,0 -19.87,-7.96 -19.87,-17.76l-0.01 0c0.01,-9.81 8.92,-17.76 19.89,-17.76z"/>
  <path class="fil16" d="M10793.69 10339.91l1049.03 0c10.3,0 18.66,7.95 18.66,17.76l0 0c0,9.8 -8.36,17.76 -18.66,17.76l-1049.03 0c-10.29,0 -18.65,-7.96 -18.65,-17.76l-0.01 0c0.01,-9.81 8.37,-17.76 18.67,-17.76z"/>
  <path class="fil16" d="M10795.48 10497.63l1149.89 0c11.3,0 20.46,7.95 20.46,17.76l0 0c0,9.8 -9.16,17.76 -20.46,17.76l-1149.89 0c-11.28,0 -20.44,-7.96 -20.44,-17.76l-0.01 0c0.01,-9.81 9.17,-17.76 20.46,-17.76z"/>
  <path class="fil16" d="M10793.97 10655.35l1065.18 0c10.46,0 18.94,7.95 18.94,17.76l0 0c0,9.8 -8.48,17.76 -18.94,17.76l-1065.18 0c-10.44,0 -18.93,-7.96 -18.93,-17.76l-0.01 0c0.01,-9.81 8.5,-17.76 18.95,-17.76z"/>
  <path class="fil16" d="M12881.91 10182.19l1117.6 0c10.98,0 19.89,7.95 19.89,17.76l0 0c0,9.8 -8.91,17.76 -19.89,17.76l-1117.6 0c-10.97,0 -19.88,-7.96 -19.88,-17.76l0 0c0,-9.81 8.91,-17.76 19.88,-17.76z"/>
  <path class="fil16" d="M12880.69 10339.91l1049.03 0c10.3,0 18.66,7.95 18.66,17.76l0 0c0,9.8 -8.36,17.76 -18.66,17.76l-1049.03 0c-10.3,0 -18.66,-7.96 -18.66,-17.76l0 0c0,-9.81 8.36,-17.76 18.66,-17.76z"/>
  <path class="fil16" d="M12882.48 10497.63l1149.9 0c11.29,0 20.45,7.95 20.45,17.76l0 0c0,9.8 -9.16,17.76 -20.45,17.76l-1149.9 0c-11.29,0 -20.45,-7.96 -20.45,-17.76l0 0c0,-9.81 9.16,-17.76 20.45,-17.76z"/>
  <path class="fil16" d="M12880.97 10655.35l1065.18 0c10.46,0 18.94,7.95 18.94,17.76l0 0c0,9.8 -8.48,17.76 -18.94,17.76l-1065.18 0c-10.45,0 -18.94,-7.96 -18.94,-17.76l0 0c0,-9.81 8.49,-17.76 18.94,-17.76z"/>
  <path class="fil1" d="M13073.05 6862.59l3977.61 0c129.2,0 233.97,104.78 233.97,233.98l0 2607.16c0,129.2 -104.77,233.97 -233.97,233.97l-3977.61 0c-129.19,0 -233.97,-104.77 -233.97,-233.97l0 -2607.16c0,-129.2 104.78,-233.98 233.97,-233.98z"/>
  <path class="fil17" d="M10950.55 4706.68l3977.61 0c129.2,0 233.97,104.78 233.97,233.98l0 2607.16c0,129.2 -104.77,233.97 -233.97,233.97l-3977.61 0c-129.18,0 -233.96,-104.77 -233.96,-233.97l-0.01 -2607.16c0.01,-129.2 104.79,-233.98 233.98,-233.98z"/>
  <path class="fil18" d="M10716.58 5758.23l187.04 120.79 681.87 -742.04 548.17 855.68 1042.86 -1002.75 427.85 748.72 828.94 -935.91 728.82 200.69 0 2544.42c0,128.69 -105.28,233.97 -233.97,233.97l-3977.61 0c-128.69,0 -233.97,-105.28 -233.97,-233.97l0 -1789.6z"/>
  <path class="fil19" d="M10716.58 6968.03l561.39 -1396.52 1042.87 1417.22 327.56 -1885.18c0,0 822.26,1644.52 869.06,1564.29 46.8,-80.21 1103.04,-1697.99 1103.04,-1697.99l541.63 959.46 0 1618.52c0,128.69 -105.28,233.97 -233.97,233.97l-3977.61 0c-128.69,0 -233.97,-105.28 -233.97,-233.97l0 -579.8z"/>
  <path class="fil20" d="M10716.58 7303.06l788.69 -682.01 421.15 641.76 875.75 -1002.74 508.05 822.25 467.95 -280.77 167.14 534.81 1216.82 -909.02 0 1120.49c0,128.69 -105.28,233.97 -233.97,233.97l-3977.61 0c-128.69,0 -233.97,-105.28 -233.97,-233.97l0 -244.77z"/>
  <path class="fil3" d="M10950.55 4706.68l3977.61 0c129.2,0 233.97,104.78 233.97,233.98l0 2607.16c0,129.2 -104.77,233.97 -233.97,233.97l-3977.61 0c-129.18,0 -233.96,-104.77 -233.96,-233.97l-0.01 -2607.16c0.01,-129.2 104.79,-233.98 233.98,-233.98z"/>
  <path class="fil13" d="M16423.97 8770.35c0,0 -50.13,83.55 -129.51,233.97 -79.39,150.42 -148.33,225.63 -348.88,173.39 -200.55,-52.23 -33.43,-229.79 68.93,-340.52 102.38,-110.72 302.92,-208.9 302.92,-208.9l106.54 142.06zm860.66 -871.24c66.45,-93.79 114.16,-176.52 112.87,-219.28 -1.18,-39.09 -46.39,-125.22 -112.87,-229.66 -123.53,-194.06 -320.56,-451.31 -445.34,-587.57 -44.91,-49.03 -80.45,-82.4 -99.87,-91.51 -49.89,-23.42 -187.76,-40.88 -316,-52.62l0.02 0.41c0,0 -133.7,89.82 -206.82,85.64 -73.12,-4.17 -112.81,-98.18 -112.81,-98.18l0.05 -1.58 -236.12 18.29 -242.5 139.55 -421.84 242.76 -41.27 -25.53 -351.29 -217.23 -631.09 -390.23 -127.43 146.24 275.31 243.99 790.12 700.27 44.32 -9.54 392.3 -84.48 -223.51 1556.37 1435.73 424.08 129.53 -1077.97c0,0 240.65,-263.52 388.51,-472.22z"/>
  <circle class="fil5" cx="18191.63" cy="5855.15" r="935.91"/>
  <path class="fil10" d="M18248.72 5268.36c19.01,1.51 37.76,3.97 56.19,7.33l18.28 -68.26 86.75 23.25 -18.28 68.21c17.89,6.37 35.36,13.62 52.35,21.72l35.33 -61.19 77.77 44.89 -35.38 61.28c15.57,10.76 30.55,22.28 44.93,34.52l50.05 -50.07 63.49 63.5 -50.07 50.08c12.24,14.37 23.77,29.34 34.53,44.91l61.28 -35.4 44.9 77.78 -61.23 35.34c8.09,16.99 15.36,34.45 21.72,52.35l68.25 -18.29 23.24 86.73 -68.31 18.31c3.36,18.43 5.86,37.16 7.37,56.18l70.76 0 0 89.79 -70.73 0c-1.51,19.01 -3.98,37.77 -7.33,56.19l68.25 18.29 -23.25 86.74 -68.21 -18.28c-6.37,17.89 -13.62,35.36 -21.72,52.36l61.19 35.33 -44.9 77.76 -61.26 -35.37c-10.75,15.56 -22.28,30.56 -34.52,44.92l50.05 50.05 -63.49 63.5 -50.05 -50.06c-14.38,12.24 -29.36,23.77 -44.93,34.52l35.38 61.27 -77.77 44.9 -35.33 -61.2c-17,8.08 -34.46,15.36 -52.35,21.73l18.28 68.22 -86.73 23.24 -18.31 -68.29c-18.43,3.37 -37.17,5.85 -56.17,7.35l0 70.75 -89.81 0 0 -70.72c-19.01,-1.51 -37.76,-3.98 -56.19,-7.34l-18.28 68.26 -86.74 -23.25 18.28 -68.2c-17.9,-6.38 -35.37,-13.63 -52.37,-21.72l-35.32 61.17 -77.76 -44.9 35.36 -61.26c-15.55,-10.75 -30.56,-22.27 -44.92,-34.51l-50.04 50.05 -63.5 -63.5 50.05 -50.05c-12.24,-14.36 -23.77,-29.35 -34.52,-44.91l-61.26 35.36 -44.9 -77.76 61.19 -35.33c-8.08,-16.99 -15.36,-34.46 -21.73,-52.35l-68.21 18.27 -23.25 -86.74 68.29 -18.29c-3.37,-18.43 -5.85,-37.18 -7.35,-56.18l-70.74 0 0 -89.8 70.71 0c1.51,-19.02 3.97,-37.76 7.34,-56.2l-68.25 -18.27 23.25 -86.75 68.19 18.28c6.38,-17.9 13.64,-35.37 21.72,-52.37l-61.16 -35.31 44.89 -77.76 61.25 35.36c10.76,-15.57 22.27,-30.56 34.51,-44.94l-50.04 -50.03 63.51 -63.49 50.03 50.03c14.37,-12.24 29.36,-23.77 44.92,-34.52l-35.35 -61.25 77.76 -44.9 35.32 61.19c17,-8.09 34.47,-15.36 52.35,-21.73l-18.26 -68.2 86.73 -23.25 18.3 68.27c18.42,-3.35 37.17,-5.83 56.18,-7.34l0 -70.73 89.8 0 0 70.73zm-44.9 240.54c175.37,0 317.53,142.16 317.53,317.53 0,175.36 -142.16,317.53 -317.53,317.53 -175.36,0 -317.53,-142.17 -317.53,-317.53 0,-175.37 142.17,-317.53 317.53,-317.53z"/>
  <polyline class="fil3 str4" points="10587.07,6467.67 11539.69,5648.75 11765.3,6091.64 12216.55,5498.33 12458.88,5941.22 13119.02,5189.15 13378.07,5540.12 14071.64,4888.33 14464.39,5414.78 14698.36,5222.58 15074.4,5055.45 15450.43,4804.76 "/>
  <polyline class="fil3 str5" points="10403.23,6601.36 11130.22,6442.6 11439.41,6492.73 11924.08,6459.31 12291.75,6283.82 12692.85,6099.99 12768.06,6191.91 13127.38,6150.13 13394.78,5966.29 13812.6,5899.44 14004.79,5715.6 14272.2,5790.8 14547.95,5698.89 14865.49,5598.62 15291.67,5506.69 15517.28,5406.42 "/>
  <polyline class="fil3 str6" points="10486.79,6852.06 10996.52,6634.79 11531.33,6367.4 11999.28,6517.81 12408.74,6492.73 12768.06,6392.46 13102.31,6325.61 13419.85,6066.56 13595.33,6250.4 13804.24,6049.86 13827.16,6314.11 14046.57,6250.4 14238.76,6024.79 14556.3,5799.16 15032.61,5682.17 15408.65,5289.43 "/>
  <polyline class="fil3 str7" points="10336.38,6476.03 10662.28,6158.49 11063.37,5924.5 11456.12,5957.93 11907.36,5832.59 12291.75,5849.31 12834.91,5749.02 13336.29,5648.75 13829.31,5448.2 14163.57,5515.05 14614.8,5481.62 14848.78,5389.71 14965.77,5448.2 15316.73,5180.79 15659.34,5147.37 "/>
  <circle class="fil21" cx="11531.33" cy="6367.4" r="20.88"/>
  <path class="fil22" d="M11531.33 6340.19c7.48,0 14.28,3.04 19.21,7.97 4.95,4.95 8,11.76 8,19.24 0,7.47 -3.05,14.28 -7.97,19.2 -4.96,4.95 -11.76,8 -19.24,8 -7.48,0 -14.28,-3.05 -19.21,-7.97 -4.96,-4.95 -7.99,-11.76 -7.99,-19.23 0,-7.48 3.03,-14.29 7.96,-19.22 4.96,-4.95 11.76,-7.99 19.24,-7.99zm10.31 16.89c-2.63,-2.63 -6.28,-4.25 -10.31,-4.25 -4.04,0 -7.69,1.62 -10.3,4.24 -2.65,2.64 -4.27,6.29 -4.27,10.33 0,4.03 1.62,7.68 4.24,10.3 2.64,2.64 6.29,4.27 10.33,4.27 4.03,0 7.68,-1.63 10.3,-4.25 2.64,-2.64 4.27,-6.29 4.27,-10.32 0,-4.04 -1.63,-7.69 -4.26,-10.32z"/>
  <circle class="fil21" cx="11999.28" cy="6517.81" r="20.88"/>
  <path class="fil22" d="M11999.28 6490.6c7.48,0 14.29,3.04 19.2,7.97 4.96,4.95 8,11.75 8,19.24 0,7.48 -3.04,14.27 -7.96,19.2 -4.95,4.95 -11.76,8 -19.24,8 -7.48,0 -14.28,-3.05 -19.21,-7.97 -4.95,-4.96 -8,-11.75 -8,-19.23 0,-7.49 3.05,-14.29 7.98,-19.21 4.95,-4.96 11.75,-8 19.23,-8zm10.32 16.89c-2.63,-2.63 -6.28,-4.26 -10.32,-4.26 -4.03,0 -7.68,1.63 -10.3,4.25 -2.64,2.63 -4.28,6.28 -4.28,10.33 0,4.03 1.64,7.68 4.26,10.3 2.64,2.63 6.29,4.27 10.32,4.27 4.04,0 7.69,-1.64 10.3,-4.24 2.65,-2.65 4.27,-6.3 4.27,-10.33 0,-4.05 -1.62,-7.7 -4.25,-10.32z"/>
  <circle class="fil21" cx="10996.52" cy="6634.79" r="20.88"/>
  <path class="fil22" d="M10996.52 6607.59c7.48,0 14.29,3.05 19.22,7.97 4.95,4.96 7.99,11.75 7.99,19.23 0,7.48 -3.04,14.28 -7.97,19.21 -4.95,4.96 -11.76,8 -19.24,8 -7.47,0 -14.28,-3.04 -19.2,-7.97 -4.95,-4.96 -8,-11.76 -8,-19.24 0,-7.48 3.05,-14.27 7.97,-19.2 4.95,-4.95 11.76,-8 19.23,-8zm10.32 16.89c-2.63,-2.62 -6.28,-4.26 -10.32,-4.26 -4.03,0 -7.68,1.64 -10.3,4.24 -2.64,2.65 -4.27,6.3 -4.27,10.33 0,4.04 1.63,7.7 4.25,10.3 2.64,2.65 6.29,4.28 10.32,4.28 4.04,0 7.69,-1.63 10.31,-4.25 2.64,-2.63 4.26,-6.29 4.26,-10.33 0,-4.03 -1.62,-7.68 -4.25,-10.31z"/>
  <circle class="fil21" cx="12408.74" cy="6492.73" r="20.88"/>
  <path class="fil22" d="M12408.74 6465.53c7.47,0 14.28,3.05 19.21,7.97 4.95,4.96 8,11.75 8,19.23 0,7.48 -3.05,14.29 -7.98,19.21 -4.95,4.96 -11.76,8 -19.23,8 -7.48,0 -14.29,-3.04 -19.21,-7.97 -4.95,-4.95 -7.99,-11.76 -7.99,-19.24 0,-7.48 3.04,-14.27 7.96,-19.2 4.95,-4.95 11.76,-8 19.24,-8zm10.31 16.89c-2.63,-2.62 -6.28,-4.26 -10.31,-4.26 -4.04,0 -7.69,1.64 -10.31,4.24 -2.64,2.65 -4.26,6.3 -4.26,10.33 0,4.04 1.62,7.7 4.24,10.3 2.64,2.65 6.29,4.28 10.33,4.28 4.03,0 7.68,-1.63 10.3,-4.25 2.64,-2.63 4.28,-6.29 4.28,-10.33 0,-4.03 -1.64,-7.68 -4.27,-10.31z"/>
  <circle class="fil21" cx="12768.06" cy="6392.46" r="20.88"/>
  <path class="fil22" d="M12768.06 6365.26c7.48,0 14.29,3.04 19.21,7.96 4.96,4.95 8,11.76 8,19.24 0,7.47 -3.04,14.28 -7.97,19.21 -4.95,4.95 -11.76,8 -19.24,8 -7.48,0 -14.28,-3.05 -19.21,-7.98 -4.94,-4.95 -7.99,-11.76 -7.99,-19.23 0,-7.48 3.05,-14.29 7.97,-19.21 4.95,-4.95 11.75,-7.99 19.23,-7.99zm10.32 16.88c-2.63,-2.63 -6.28,-4.25 -10.32,-4.25 -4.03,0 -7.68,1.62 -10.3,4.24 -2.64,2.64 -4.27,6.29 -4.27,10.33 0,4.03 1.63,7.68 4.25,10.3 2.64,2.64 6.29,4.27 10.32,4.27 4.04,0 7.69,-1.63 10.3,-4.25 2.65,-2.64 4.27,-6.29 4.27,-10.32 0,-4.04 -1.62,-7.69 -4.25,-10.32z"/>
  <circle class="fil21" cx="13102.31" cy="6325.61" r="20.88"/>
  <path class="fil22" d="M13102.31 6298.41c7.48,0 14.28,3.03 19.21,7.96 4.95,4.96 7.99,11.76 7.99,19.24 0,7.48 -3.04,14.28 -7.97,19.21 -4.95,4.96 -11.75,8 -19.23,8 -7.48,0 -14.28,-3.04 -19.21,-7.97 -4.95,-4.96 -8,-11.76 -8,-19.24 0,-7.48 3.05,-14.28 7.98,-19.21 4.95,-4.96 11.75,-7.99 19.23,-7.99zm10.32 16.89c-2.63,-2.63 -6.28,-4.26 -10.32,-4.26 -4.04,0 -7.69,1.63 -10.3,4.24 -2.64,2.65 -4.28,6.3 -4.28,10.33 0,4.04 1.64,7.68 4.26,10.3 2.63,2.65 6.28,4.27 10.32,4.27 4.04,0 7.69,-1.62 10.31,-4.24 2.63,-2.65 4.26,-6.29 4.26,-10.33 0,-4.03 -1.63,-7.68 -4.25,-10.31z"/>
  <circle class="fil21" cx="13419.85" cy="6066.56" r="20.88"/>
  <path class="fil22" d="M13419.85 6039.36c7.48,0 14.28,3.05 19.21,7.98 4.95,4.95 7.99,11.75 7.99,19.22 0,7.49 -3.04,14.29 -7.97,19.22 -4.95,4.95 -11.75,8 -19.23,8 -7.48,0 -14.28,-3.05 -19.21,-7.98 -4.95,-4.95 -8,-11.75 -8,-19.24 0,-7.47 3.05,-14.27 7.98,-19.2 4.95,-4.95 11.75,-8 19.23,-8zm10.32 16.89c-2.63,-2.62 -6.28,-4.25 -10.32,-4.25 -4.04,0 -7.69,1.63 -10.3,4.24 -2.64,2.64 -4.28,6.29 -4.28,10.32 0,4.05 1.64,7.7 4.26,10.31 2.63,2.64 6.28,4.27 10.32,4.27 4.04,0 7.69,-1.63 10.31,-4.25 2.63,-2.63 4.26,-6.28 4.26,-10.33 0,-4.03 -1.63,-7.68 -4.25,-10.31z"/>
  <circle class="fil21" cx="13595.33" cy="6250.4" r="20.88"/>
  <path class="fil22" d="M13595.33 6223.2c7.48,0 14.28,3.05 19.21,7.97 4.95,4.95 7.99,11.76 7.99,19.23 0,7.48 -3.04,14.29 -7.97,19.22 -4.95,4.95 -11.75,7.99 -19.23,7.99 -7.47,0 -14.28,-3.04 -19.21,-7.97 -4.95,-4.95 -8,-11.76 -8,-19.24 0,-7.47 3.05,-14.28 7.98,-19.2 4.95,-4.95 11.76,-8 19.23,-8zm10.32 16.89c-2.63,-2.63 -6.28,-4.26 -10.32,-4.26 -4.03,0 -7.69,1.63 -10.3,4.25 -2.64,2.64 -4.27,6.29 -4.27,10.32 0,4.04 1.63,7.69 4.25,10.31 2.63,2.64 6.29,4.26 10.32,4.26 4.04,0 7.69,-1.62 10.31,-4.24 2.63,-2.64 4.26,-6.29 4.26,-10.33 0,-4.03 -1.63,-7.68 -4.25,-10.31z"/>
  <circle class="fil21" cx="13804.24" cy="6049.86" r="20.88"/>
  <path class="fil22" d="M13804.24 6022.65c7.48,0 14.28,3.04 19.2,7.97 4.96,4.95 8,11.76 8,19.24 0,7.47 -3.04,14.28 -7.97,19.2 -4.95,4.95 -11.75,8 -19.23,8 -7.48,0 -14.28,-3.05 -19.21,-7.97 -4.95,-4.95 -8,-11.76 -8,-19.23 0,-7.48 3.05,-14.29 7.97,-19.22 4.96,-4.95 11.76,-7.99 19.24,-7.99zm10.32 16.89c-2.63,-2.63 -6.28,-4.25 -10.32,-4.25 -4.03,0 -7.68,1.62 -10.3,4.24 -2.64,2.64 -4.28,6.29 -4.28,10.33 0,4.03 1.64,7.68 4.25,10.3 2.65,2.64 6.3,4.27 10.33,4.27 4.04,0 7.69,-1.63 10.3,-4.25 2.65,-2.64 4.27,-6.29 4.27,-10.32 0,-4.04 -1.62,-7.69 -4.25,-10.32z"/>
  <circle class="fil4 str8" cx="13827.16" cy="6314.11" r="20.88"/>
  <circle class="fil4 str8" cx="14046.57" cy="6250.4" r="20.88"/>
  <circle class="fil21" cx="14238.76" cy="6024.79" r="20.88"/>
  <path class="fil22" d="M14238.76 5997.58c7.49,0 14.29,3.04 19.22,7.97 4.95,4.95 7.99,11.75 7.99,19.24 0,7.48 -3.04,14.27 -7.97,19.2 -4.95,4.95 -11.75,8 -19.24,8 -7.47,0 -14.27,-3.05 -19.2,-7.97 -4.95,-4.96 -8,-11.75 -8,-19.23 0,-7.49 3.05,-14.29 7.98,-19.21 4.95,-4.96 11.75,-8 19.22,-8zm10.33 16.89c-2.63,-2.63 -6.28,-4.26 -10.33,-4.26 -4.03,0 -7.68,1.63 -10.29,4.24 -2.64,2.64 -4.28,6.29 -4.28,10.34 0,4.03 1.64,7.68 4.25,10.3 2.64,2.63 6.29,4.27 10.32,4.27 4.05,0 7.7,-1.64 10.31,-4.24 2.64,-2.65 4.27,-6.3 4.27,-10.33 0,-4.05 -1.63,-7.7 -4.25,-10.32z"/>
  <circle class="fil21" cx="14556.3" cy="5799.16" r="20.88"/>
  <path class="fil22" d="M14556.3 5771.95c7.49,0 14.29,3.05 19.22,7.98 4.95,4.95 7.99,11.76 7.99,19.23 0,7.48 -3.04,14.29 -7.97,19.22 -4.95,4.94 -11.75,7.98 -19.24,7.98 -7.47,0 -14.27,-3.04 -19.2,-7.96 -4.95,-4.95 -8,-11.76 -8,-19.24 0,-7.47 3.05,-14.28 7.98,-19.21 4.95,-4.95 11.75,-8 19.22,-8zm10.33 16.9c-2.63,-2.63 -6.28,-4.26 -10.33,-4.26 -4.03,0 -7.68,1.63 -10.29,4.25 -2.64,2.64 -4.28,6.29 -4.28,10.32 0,4.04 1.64,7.69 4.25,10.31 2.64,2.64 6.29,4.26 10.32,4.26 4.05,0 7.7,-1.62 10.31,-4.24 2.64,-2.64 4.27,-6.29 4.27,-10.33 0,-4.03 -1.63,-7.68 -4.25,-10.31z"/>
  <path class="fil23" d="M16114.25 6422.22l-10.44 284.12c0,0 39.69,94.01 112.81,98.18 73.12,4.18 206.82,-85.64 206.82,-85.64l-14.63 -361.42 -294.56 64.76z"/>
  <path class="fil24" d="M16114.25 6422.23l-5.25 142.99c51.51,6.23 108.81,7.45 161.65,-4.1 45.72,-9.99 96.52,-25.8 144.68,-42.77l-6.52 -160.9 -294.56 64.78z"/>
  <circle class="fil21" cx="15032.61" cy="5682.17" r="20.88"/>
  <path class="fil22" d="M15032.61 5654.97c7.48,0 14.29,3.05 19.22,7.96 4.95,4.96 8,11.76 8,19.24 0,7.48 -3.05,14.29 -7.98,19.21 -4.95,4.96 -11.76,8 -19.24,8 -7.47,0 -14.28,-3.04 -19.21,-7.97 -4.95,-4.95 -7.99,-11.76 -7.99,-19.24 0,-7.48 3.04,-14.28 7.97,-19.2 4.95,-4.95 11.76,-8 19.23,-8zm10.32 16.89c-2.63,-2.63 -6.28,-4.26 -10.32,-4.26 -4.03,0 -7.68,1.63 -10.3,4.24 -2.64,2.65 -4.26,6.3 -4.26,10.33 0,4.04 1.62,7.7 4.24,10.3 2.64,2.65 6.29,4.28 10.32,4.28 4.04,0 7.69,-1.63 10.31,-4.25 2.64,-2.63 4.26,-6.29 4.26,-10.33 0,-4.03 -1.62,-7.68 -4.25,-10.31z"/>
  <path class="fil23" d="M16235.42 5574.05c199.61,0 343.82,202.53 322.12,452.36 -21.69,249.84 -121.9,438.28 -400.69,452.37 -281,14.2 -293.67,-202.53 -271.98,-452.37 21.7,-249.83 150.95,-452.36 350.55,-452.36z"/>
  <path class="fil25" d="M15974.28 5484.21c5.99,0 11.91,0.3 17.75,0.87 32.98,-45.99 86.89,-75.96 147.81,-75.96 30.44,0 59.15,7.51 84.36,20.74 33.11,-23.64 73.65,-37.56 117.44,-37.56 86.63,0 160.53,54.46 189.36,131.02 95.66,18.02 168.02,101.98 168.02,202.88 0,18.39 -2.42,36.21 -6.93,53.19 27.12,31.76 43.5,72.95 43.5,117.97 0,40.44 -13.21,77.79 -35.54,107.97 27.58,23.37 45.1,58.27 45.1,97.26 0,70.38 -57.05,127.43 -127.43,127.43 -70.39,0 -127.44,-57.05 -127.44,-127.43 0,-11.53 1.53,-22.71 4.4,-33.32 -71.33,-24.54 -122.6,-92.24 -122.6,-171.91l0.04 -3.46c-34.77,-25.02 -61.45,-60.58 -75.34,-102.01 -29.05,-6.58 -55.72,-19.41 -78.54,-37 -23.74,11.37 -50.33,17.74 -78.4,17.74 -6,0 -11.92,-0.3 -17.76,-0.87 -32.98,45.99 -86.89,75.96 -147.8,75.96 -100.39,0 -181.76,-81.37 -181.76,-181.76 0,-100.37 81.37,-181.75 181.76,-181.75z"/>
  <path class="fil23" d="M14179.75 6472.37c0,0 -7.82,-56.42 -78.85,-165.05 -71.03,-108.63 -246.51,-267.4 -350.97,-142.06 -104.45,125.35 -54.31,246.51 16.72,311.27 71.03,64.78 161.91,119.09 179.14,124.32 17.23,5.22 106.53,17.76 106.53,17.76l127.43 -146.24z"/>
  <path class="fil6" d="M17130.6 13325.59c0,0 -426.65,281.5 -537.37,331.63 -110.73,50.13 248.6,79.38 248.6,79.38 0,0 302.92,-10.45 401.1,-64.76 98.19,-54.32 204.73,12.53 221.45,-50.14 16.7,-62.67 -15.71,-302.38 -15.71,-302.38l-318.07 6.27z"/>
  <path class="fil6" d="M14584.81 13415.11c0,0 -487.46,321.62 -613.97,378.9 -126.5,57.28 284.04,90.7 284.04,90.7 0,0 346.09,-11.94 458.28,-74 112.17,-62.06 233.9,14.32 253,-57.29 19.09,-71.6 -17.94,-345.47 -17.94,-345.47l-363.41 7.16z"/>
  <path class="fil26" d="M16852.67 9937.71l-86.08 -488.41 -1435.73 -424.08c0,0 -150.8,396.46 -306.75,912.49 -108.09,357.7 -218.65,772.83 -283.18,1153.22 -14.93,88.03 -27.4,174.19 -36.79,257.35 -101.83,900.7 -130.23,1948.22 -133.4,2076.09 -0.21,8.54 -0.31,12.99 -0.31,12.99 0,0 103.41,24.03 167.13,25.07 48.56,0.8 162.69,-17.83 214.2,-26.73 16.07,-2.77 26.04,-4.6 26.04,-4.6 0,0 255.91,-1605.46 418.87,-2039.99 34.43,-91.81 75.94,-194.81 120.01,-300.18 164.52,-393.32 364.65,-819.56 364.65,-819.56l335.23 819.56 914.04 2234.66c0,0 80.44,30.82 144.67,32.91 64.25,2.08 173.4,-39.18 173.4,-39.18l-392.76 -2228.39 -203.24 -1153.22z"/>
  <line class="fil3 str9" x1="6442.56" y1="9138.25" x2="6442.56" y2= "9342.15" />
  <polygon class="fil27" points="16896.12,8371.33 16379.17,8848.34 16271.9,8652.17 16824.08,7860.81 16624.52,7293.36 16862.68,7857.41 16317.43,8628.29 16423.97,8770.35 "/>
  <path class="fil23" d="M16317.43 8628.29c0,0 -200.54,98.18 -302.92,208.9 -102.36,110.73 -269.48,288.29 -68.93,340.52 200.55,52.24 269.49,-22.97 348.88,-173.39 79.38,-150.42 129.51,-233.97 129.51,-233.97l-106.54 -142.06z"/>
 </g>
</svg>
