<svg id="Capa_1" enable-background="new 0 0 512 512" height="512" viewBox="0 0 512 512" width="512" xmlns="http://www.w3.org/2000/svg"><g><g><g><path d="m494.499 17.501c-22.314-22.314-58.492-22.314-80.806 0l-17.014 17.014-7.235 7.235 22.865 57.941 56.02-31.292z" fill="#face48"/><path d="m494.499 17.501-82.19 82.19 57.941 22.865 7.147-7.147 17.102-17.102c22.314-22.314 22.314-58.492 0-80.806z" fill="#f5ab4d"/></g><g><path d="m396.679 34.515-39.077 26.073c-11.242-5.739-22.954-10.491-34.988-14.196l-9.006-46.392h-115.216l-9.274 47.775c-11.188 3.704-22.084 8.323-32.558 13.8l-40.62-27.472-81.551 81.387 27.571 40.945c-5.39 10.469-9.922 21.365-13.543 32.558l-48.417 9.399v115.216l48.479 9.411c5.462 16.457 14.218 36.776 21.693 49.93l34.603 34.276 307.955-264.736 24.307-67.527z" fill="#83a9c5"/><path d="m452.175 153.973 25.222-38.564-40.359-40.447-332.262 332.262 35.5 35.164c13.332 7.763 32.59 16.293 48.832 21.786l9.284 47.826h115.217l9.006-46.393c11.89-3.661 23.465-8.344 34.585-13.993l38.858 26.282 81.554-81.387-25.647-38.087c6.116-11.56 11.181-23.644 15.129-36.097l44.906-8.717v-115.216l-44.907-8.717c-3.904-12.314-8.897-24.264-14.918-35.702z" fill="#698bad"/></g></g><g><path d="m258.111 112.485c-79.529 0-144 64.471-144 144 0 39.104 15.594 74.561 40.894 100.51l143.043-66.197 42.467-119.312c-14.036-13.685-12.748-42.635-31.419-49.709-15.849-6.005-33.033-9.292-50.985-9.292z" fill="#5a7799"/><path d="m330.037 181.963-175.032 175.032c26.154 26.825 62.681 43.49 103.106 43.49 79.529 0 144-64.471 144-144 0-19.348-3.817-37.803-10.739-54.655-7.541-18.358-47.349-6.23-61.335-19.867z" fill="#3b526d"/></g><g><path d="m228.861 313.86 129.999-160.247c-14.084-13.795-30.987-24.719-49.767-31.831l-116.749 116.749z" fill="#face48"/></g><path d="m273.507 319.694 117.859-117.861c-7.535-18.352-18.749-34.802-32.727-48.435l-137.527 137.526z" fill="#f5ab4d"/><path d="m127.721 399.345 55.753-43.925 49.45-76.308-40.58-40.581-113.346 113.346c1.299 1.352 33.637 33.148 48.723 47.468z" fill="#fcdd79"/><path d="m161.086 432.116 17.394-17.392 95.028-95.03-40.582-40.582-112.92 112.919c12.526 11.861 39.775 38.723 41.08 40.085z" fill="#face48"/><g><path d="m95.358 335.518c-20.79.617-68.701 25.012-68.701 80.846 0 61.516-26.657 79.025-26.657 79.025s4.88 1.833 12.688 3.923l102.163-44.626 22.047-79.584z" fill="#be367f"/><path d="m12.688 499.312c11.197 2.997 28.421 6.524 45.962 5.938 24.849-.83 56.516-4.331 81.171-22.222 21.773-15.799 35.476-38.098 38.657-68.304l-41.581-39.622z" fill="#832e81"/></g></g></svg>