<svg width="224" height="124" viewBox="0 0 224 124" fill="none" xmlns="http://www.w3.org/2000/svg">
<path d="M25 119C38.8071 119 50 107.807 50 94C50 80.1929 38.8071 69 25 69C11.1929 69 0 80.1929 0 94C0 107.807 11.1929 119 25 119Z" fill="url(#paint0_linear)" fill-opacity="0.52"/>
<path d="M61.9 76.25L71.95 109H67.35L65.2 101.4H53.15L51 109H46.65L56.65 76.25H61.9ZM59.2 80.15L54.2 97.6H64.15L59.2 80.15ZM95.1613 75.65C98.6613 75.65 101.328 76.3667 103.161 77.8C104.995 79.2333 105.911 81.1833 105.911 83.65V84.75C105.911 88.25 104.378 90.6667 101.311 92C103.178 92.4 104.628 93.2667 105.661 94.6C106.728 95.9 107.261 97.5167 107.261 99.45V100.55C107.261 103.317 106.278 105.517 104.311 107.15C102.378 108.783 99.4447 109.6 95.5113 109.6C93.278 109.6 90.228 109.5 86.3613 109.3V75.85C89.428 75.7167 92.3613 75.65 95.1613 75.65ZM94.5113 79.3C93.3113 79.3 92.0113 79.35 90.6113 79.45V90.65H95.5113C97.5113 90.65 99.028 90.1667 100.061 89.2C101.128 88.2333 101.661 86.8833 101.661 85.15V84.3C101.661 82.6333 101.095 81.3833 99.9613 80.55C98.828 79.7167 97.0113 79.3 94.5113 79.3ZM90.6113 94.1V105.6C91.7113 105.7 92.6113 105.783 93.3113 105.85C94.0447 105.883 94.778 105.9 95.5113 105.9C98.078 105.9 99.9613 105.417 101.161 104.45C102.395 103.45 103.011 102.067 103.011 100.3V99.25C103.011 95.8167 100.611 94.1 95.8113 94.1H90.6113ZM133.525 75.65C137.258 75.65 140.008 76.5833 141.775 78.45C143.542 80.3167 144.425 82.9667 144.425 86.4V98.85C144.425 102.283 143.542 104.933 141.775 106.8C140.008 108.667 137.258 109.6 133.525 109.6C129.792 109.6 127.042 108.667 125.275 106.8C123.508 104.933 122.625 102.283 122.625 98.85V86.4C122.625 82.9667 123.508 80.3167 125.275 78.45C127.042 76.5833 129.792 75.65 133.525 75.65ZM133.525 79.4C131.325 79.4 129.658 79.95 128.525 81.05C127.425 82.15 126.875 83.7667 126.875 85.9V99.3C126.875 101.433 127.425 103.067 128.525 104.2C129.658 105.3 131.325 105.85 133.525 105.85C135.725 105.85 137.375 105.3 138.475 104.2C139.608 103.067 140.175 101.433 140.175 99.3V85.95C140.175 83.8167 139.608 82.2 138.475 81.1C137.375 79.9667 135.725 79.4 133.525 79.4ZM182.984 98.65C182.984 102.183 182.084 104.9 180.284 106.8C178.484 108.667 175.834 109.6 172.334 109.6C168.867 109.6 166.217 108.683 164.384 106.85C162.584 105.017 161.684 102.317 161.684 98.75V76.25H165.934V99.3C165.934 101.433 166.484 103.067 167.584 104.2C168.717 105.3 170.3 105.85 172.334 105.85C174.4 105.85 175.984 105.3 177.084 104.2C178.184 103.067 178.734 101.433 178.734 99.3V76.25H182.984V98.65ZM221.492 76.25V80.1H211.992V109H207.742V80.1H198.242V76.25H221.492Z" fill="#E8E8E8"/>
<path d="M61.9 76.25L63.812 75.6633L63.3783 74.25H61.9V76.25ZM71.95 109V111H74.6558L73.862 108.413L71.95 109ZM67.35 109L65.4255 109.544L65.8373 111H67.35V109ZM65.2 101.4L67.1245 100.856L66.7127 99.4H65.2V101.4ZM53.15 101.4V99.4H51.6373L51.2255 100.856L53.15 101.4ZM51 109V111H52.5127L52.9245 109.544L51 109ZM46.65 109L44.7372 108.416L43.9482 111H46.65V109ZM56.65 76.25V74.25H55.1695L54.7372 75.6659L56.65 76.25ZM59.2 80.15L61.1241 79.6042L59.2097 72.8554L57.2774 79.5991L59.2 80.15ZM54.2 97.6L52.2774 97.0491L51.5465 99.6H54.2V97.6ZM64.15 97.6V99.6H66.7962L66.0741 97.0542L64.15 97.6ZM59.988 76.8367L70.038 109.587L73.862 108.413L63.812 75.6633L59.988 76.8367ZM71.95 107H67.35V111H71.95V107ZM69.2745 108.456L67.1245 100.856L63.2755 101.944L65.4255 109.544L69.2745 108.456ZM65.2 99.4H53.15V103.4H65.2V99.4ZM51.2255 100.856L49.0755 108.456L52.9245 109.544L55.0745 101.944L51.2255 100.856ZM51 107H46.65V111H51V107ZM48.5628 109.584L58.5628 76.8341L54.7372 75.6659L44.7372 108.416L48.5628 109.584ZM56.65 78.25H61.9V74.25H56.65V78.25ZM57.2774 79.5991L52.2774 97.0491L56.1226 98.1509L61.1226 80.7009L57.2774 79.5991ZM54.2 99.6H64.15V95.6H54.2V99.6ZM66.0741 97.0542L61.1241 79.6042L57.2759 80.6958L62.2259 98.1458L66.0741 97.0542ZM103.161 77.8L101.929 79.3756L101.929 79.3756L103.161 77.8ZM101.311 92L100.514 90.1659L94.8001 92.6501L100.892 93.9556L101.311 92ZM105.661 94.6L104.08 95.8251L104.098 95.8471L104.115 95.8686L105.661 94.6ZM104.311 107.15L103.034 105.611L103.027 105.617L103.021 105.622L104.311 107.15ZM86.3613 109.3H84.3613V111.199L86.258 111.297L86.3613 109.3ZM86.3613 75.85L86.2745 73.8519L84.3613 73.9351V75.85H86.3613ZM90.6113 79.45L90.4688 77.4551L88.6113 77.5878V79.45H90.6113ZM90.6113 90.65H88.6113V92.65H90.6113V90.65ZM100.061 89.2L98.7183 87.718L98.7066 87.7286L98.695 87.7395L100.061 89.2ZM99.9613 80.55L98.7765 82.1613L98.7765 82.1613L99.9613 80.55ZM90.6113 94.1V92.1H88.6113V94.1H90.6113ZM90.6113 105.6H88.6113V107.426L90.4303 107.592L90.6113 105.6ZM93.3113 105.85L93.1217 107.841L93.171 107.846L93.2205 107.848L93.3113 105.85ZM101.161 104.45L102.416 106.008L102.421 106.004L101.161 104.45ZM95.1613 77.65C98.4296 77.65 100.586 78.3254 101.929 79.3756L104.393 76.2244C102.07 74.408 98.8931 73.65 95.1613 73.65V77.65ZM101.929 79.3756C103.245 80.4043 103.911 81.756 103.911 83.65H107.911C107.911 80.6106 106.744 78.0623 104.393 76.2244L101.929 79.3756ZM103.911 83.65V84.75H107.911V83.65H103.911ZM103.911 84.75C103.911 86.2054 103.595 87.2929 103.073 88.116C102.554 88.9328 101.744 89.6311 100.514 90.1659L102.109 93.8341C103.945 93.0356 105.435 91.8588 106.45 90.259C107.461 88.6654 107.911 86.7946 107.911 84.75H103.911ZM100.892 93.9556C102.362 94.2706 103.374 94.9138 104.08 95.8251L107.242 93.3749C105.882 91.6196 103.994 90.5294 101.73 90.0444L100.892 93.9556ZM104.115 95.8686C104.845 96.7583 105.261 97.9063 105.261 99.45H109.261C109.261 97.127 108.611 95.0417 107.207 93.3314L104.115 95.8686ZM105.261 99.45V100.55H109.261V99.45H105.261ZM105.261 100.55C105.261 102.778 104.502 104.392 103.034 105.611L105.589 108.689C108.054 106.641 109.261 103.856 109.261 100.55H105.261ZM103.021 105.622C101.601 106.821 99.2212 107.6 95.5113 107.6V111.6C99.6682 111.6 103.155 110.745 105.602 108.678L103.021 105.622ZM95.5113 107.6C93.3285 107.6 90.3179 107.502 86.4646 107.303L86.258 111.297C90.1381 111.498 93.2275 111.6 95.5113 111.6V107.6ZM88.3613 109.3V75.85H84.3613V109.3H88.3613ZM86.4482 77.8481C89.4886 77.7159 92.3929 77.65 95.1613 77.65V73.65C92.3298 73.65 89.3673 73.7174 86.2745 73.8519L86.4482 77.8481ZM94.5113 77.3C93.2566 77.3 91.9085 77.3522 90.4688 77.4551L90.7538 81.4449C92.1141 81.3478 93.366 81.3 94.5113 81.3V77.3ZM88.6113 79.45V90.65H92.6113V79.45H88.6113ZM90.6113 92.65H95.5113V88.65H90.6113V92.65ZM95.5113 92.65C97.8087 92.65 99.8946 92.0947 101.428 90.6605L98.695 87.7395C98.1614 88.2386 97.214 88.65 95.5113 88.65V92.65ZM101.404 90.682C102.974 89.2596 103.661 87.3227 103.661 85.15H99.6613C99.6613 86.4439 99.2821 87.2071 98.7183 87.718L101.404 90.682ZM103.661 85.15V84.3H99.6613V85.15H103.661ZM103.661 84.3C103.661 82.1303 102.891 80.2214 101.146 78.9387L98.7765 82.1613C99.2988 82.5453 99.6613 83.1364 99.6613 84.3H103.661ZM101.146 78.9387C99.4915 77.7221 97.1452 77.3 94.5113 77.3V81.3C96.8775 81.3 98.1645 81.7113 98.7765 82.1613L101.146 78.9387ZM88.6113 94.1V105.6H92.6113V94.1H88.6113ZM90.4303 107.592C91.5288 107.692 92.4257 107.775 93.1217 107.841L93.5009 103.859C92.797 103.792 91.8938 103.708 90.7924 103.608L90.4303 107.592ZM93.2205 107.848C93.9841 107.883 94.7477 107.9 95.5113 107.9V103.9C94.8083 103.9 94.1053 103.884 93.4021 103.852L93.2205 107.848ZM95.5113 107.9C98.2555 107.9 100.691 107.397 102.416 106.008L99.9067 102.892C99.2313 103.437 97.9005 103.9 95.5113 103.9V107.9ZM102.421 106.004C104.179 104.578 105.011 102.593 105.011 100.3H101.011C101.011 101.541 100.61 102.322 99.9017 102.896L102.421 106.004ZM105.011 100.3V99.25H101.011V100.3H105.011ZM105.011 99.25C105.011 97.0088 104.191 95.0598 102.375 93.7608C100.682 92.5502 98.3894 92.1 95.8113 92.1V96.1C98.0332 96.1 99.3403 96.5082 100.048 97.0142C100.632 97.4318 101.011 98.0579 101.011 99.25H105.011ZM95.8113 92.1H90.6113V96.1H95.8113V92.1ZM141.775 78.45L140.322 79.8248L140.322 79.8248L141.775 78.45ZM141.775 106.8L140.322 105.425L140.322 105.425L141.775 106.8ZM125.275 106.8L123.822 108.175L123.822 108.175L125.275 106.8ZM125.275 78.45L126.728 79.8248L126.728 79.8248L125.275 78.45ZM128.525 81.05L127.132 79.6148L127.121 79.6252L127.111 79.6358L128.525 81.05ZM128.525 104.2L127.09 105.593L127.111 105.614L127.132 105.635L128.525 104.2ZM138.475 104.2L139.889 105.614L139.889 105.614L138.475 104.2ZM138.475 81.1L137.04 82.493L137.061 82.5144L137.082 82.5352L138.475 81.1ZM133.525 77.65C136.96 77.65 139.077 78.5088 140.322 79.8248L143.228 77.0752C140.94 74.6579 137.557 73.65 133.525 73.65V77.65ZM140.322 79.8248C141.633 81.2094 142.425 83.3022 142.425 86.4H146.425C146.425 82.6311 145.45 79.4239 143.228 77.0752L140.322 79.8248ZM142.425 86.4V98.85H146.425V86.4H142.425ZM142.425 98.85C142.425 101.948 141.633 104.041 140.322 105.425L143.228 108.175C145.45 105.826 146.425 102.619 146.425 98.85H142.425ZM140.322 105.425C139.077 106.741 136.96 107.6 133.525 107.6V111.6C137.557 111.6 140.94 110.592 143.228 108.175L140.322 105.425ZM133.525 107.6C130.09 107.6 127.973 106.741 126.728 105.425L123.822 108.175C126.11 110.592 129.493 111.6 133.525 111.6V107.6ZM126.728 105.425C125.417 104.041 124.625 101.948 124.625 98.85H120.625C120.625 102.619 121.6 105.826 123.822 108.175L126.728 105.425ZM124.625 98.85V86.4H120.625V98.85H124.625ZM124.625 86.4C124.625 83.3022 125.417 81.2094 126.728 79.8248L123.822 77.0752C121.6 79.4239 120.625 82.6311 120.625 86.4H124.625ZM126.728 79.8248C127.973 78.5088 130.09 77.65 133.525 77.65V73.65C129.493 73.65 126.11 74.6579 123.822 77.0752L126.728 79.8248ZM133.525 77.4C131.012 77.4 128.765 78.0304 127.132 79.6148L129.918 82.4852C130.552 81.8696 131.638 81.4 133.525 81.4V77.4ZM127.111 79.6358C125.514 81.2326 124.875 83.4377 124.875 85.9H128.875C128.875 84.0956 129.336 83.0674 129.939 82.4642L127.111 79.6358ZM124.875 85.9V99.3H128.875V85.9H124.875ZM124.875 99.3C124.875 101.767 125.516 103.971 127.09 105.593L129.96 102.807C129.334 102.162 128.875 101.1 128.875 99.3H124.875ZM127.132 105.635C128.765 107.22 131.012 107.85 133.525 107.85V103.85C131.638 103.85 130.552 103.38 129.918 102.765L127.132 105.635ZM133.525 107.85C136.033 107.85 138.282 107.222 139.889 105.614L137.061 102.786C136.468 103.378 135.417 103.85 133.525 103.85V107.85ZM139.889 105.614C141.509 103.994 142.175 101.782 142.175 99.3H138.175C138.175 101.084 137.708 102.139 137.061 102.786L139.889 105.614ZM142.175 99.3V85.95H138.175V99.3H142.175ZM142.175 85.95C142.175 83.4718 141.51 81.259 139.868 79.6648L137.082 82.5352C137.706 83.141 138.175 84.1615 138.175 85.95H142.175ZM139.91 79.707C138.305 78.0535 136.049 77.4 133.525 77.4V81.4C135.401 81.4 136.445 81.8798 137.04 82.493L139.91 79.707ZM180.284 106.8L181.723 108.188L181.729 108.182L181.736 108.175L180.284 106.8ZM164.384 106.85L162.956 108.251L162.963 108.258L162.969 108.264L164.384 106.85ZM161.684 76.25V74.25H159.684V76.25H161.684ZM165.934 76.25H167.934V74.25H165.934V76.25ZM167.584 104.2L166.148 105.593L166.169 105.614L166.191 105.635L167.584 104.2ZM177.084 104.2L178.498 105.614L178.508 105.604L178.519 105.593L177.084 104.2ZM178.734 76.25V74.25H176.734V76.25H178.734ZM182.984 76.25H184.984V74.25H182.984V76.25ZM180.984 98.65C180.984 101.854 180.171 104.01 178.832 105.425L181.736 108.175C183.996 105.79 184.984 102.512 184.984 98.65H180.984ZM178.844 105.412C177.538 106.766 175.487 107.6 172.334 107.6V111.6C176.18 111.6 179.429 110.568 181.723 108.188L178.844 105.412ZM172.334 107.6C169.213 107.6 167.143 106.781 165.798 105.436L162.969 108.264C165.291 110.586 168.521 111.6 172.334 111.6V107.6ZM165.811 105.449C164.501 104.115 163.684 101.999 163.684 98.75H159.684C159.684 102.634 160.666 105.919 162.956 108.251L165.811 105.449ZM163.684 98.75V76.25H159.684V98.75H163.684ZM161.684 78.25H165.934V74.25H161.684V78.25ZM163.934 76.25V99.3H167.934V76.25H163.934ZM163.934 99.3C163.934 101.767 164.574 103.971 166.148 105.593L169.019 102.807C168.393 102.162 167.934 101.1 167.934 99.3H163.934ZM166.191 105.635C167.796 107.193 169.936 107.85 172.334 107.85V103.85C170.665 103.85 169.638 103.407 168.977 102.765L166.191 105.635ZM172.334 107.85C174.75 107.85 176.912 107.2 178.498 105.614L175.669 102.786C175.055 103.4 174.05 103.85 172.334 103.85V107.85ZM178.519 105.593C180.093 103.971 180.734 101.767 180.734 99.3H176.734C176.734 101.1 176.274 102.162 175.648 102.807L178.519 105.593ZM180.734 99.3V76.25H176.734V99.3H180.734ZM178.734 78.25H182.984V74.25H178.734V78.25ZM180.984 76.25V98.65H184.984V76.25H180.984ZM221.492 76.25H223.492V74.25H221.492V76.25ZM221.492 80.1V82.1H223.492V80.1H221.492ZM211.992 80.1V78.1H209.992V80.1H211.992ZM211.992 109V111H213.992V109H211.992ZM207.742 109H205.742V111H207.742V109ZM207.742 80.1H209.742V78.1H207.742V80.1ZM198.242 80.1H196.242V82.1H198.242V80.1ZM198.242 76.25V74.25H196.242V76.25H198.242ZM219.492 76.25V80.1H223.492V76.25H219.492ZM221.492 78.1H211.992V82.1H221.492V78.1ZM209.992 80.1V109H213.992V80.1H209.992ZM211.992 107H207.742V111H211.992V107ZM209.742 109V80.1H205.742V109H209.742ZM207.742 78.1H198.242V82.1H207.742V78.1ZM200.242 80.1V76.25H196.242V80.1H200.242ZM198.242 78.25H221.492V74.25H198.242V78.25Z" fill="#E8E8E8"/>
<path fill-rule="evenodd" clip-rule="evenodd" d="M37.2057 11.2517C34.2714 14.944 29.7457 17.4896 24.5624 18.0258C24.4308 18.0395 24.2988 18.0518 24.1663 18.0628C15.0706 19.004 8 26.1323 8 34.7864C8 44.0809 16.1558 51.6154 26.2166 51.6154C28.0195 51.6154 29.7614 51.3734 31.406 50.9227C31.5717 50.8724 31.7382 50.8244 31.906 50.7784C32.2447 50.6756 32.579 50.5637 32.9085 50.4434C33.9165 50.0768 35.9863 49.9595 37.104 49.9595C46.3905 49.9595 54.054 56.379 55.1785 64.6765L55.1732 64.6121C56.5279 81.051 71.3951 94 89.5363 94C108.57 94 124 79.7453 124 62.1613C124 36.4177 96.3845 30.9478 96.8724 31.0454C90.5948 29.4285 85.6839 24.7831 84.1006 18.9209C84.0753 18.806 84.0491 18.6913 84.0221 18.5771C84.0052 18.5092 83.9887 18.4412 83.9728 18.3729C81.3767 7.85149 71.1865 0 59.0111 0C50.4094 0 42.7985 3.91881 38.1563 9.92948C37.8616 10.3845 37.5442 10.8258 37.2057 11.2517V11.2517Z" fill="url(#paint1_linear)" fill-opacity="0.42"/>
<defs>
<linearGradient id="paint0_linear" x1="56.3641" y1="47.5499" x2="3.75908" y2="114.946" gradientUnits="userSpaceOnUse">
<stop stop-color="#868686"/>
<stop offset="1" stop-color="#B8B8B8" stop-opacity="0"/>
</linearGradient>
<linearGradient id="paint1_linear" x1="21.3646" y1="9.23305" x2="129.204" y2="130.5" gradientUnits="userSpaceOnUse">
<stop stop-color="#9E9E9E"/>
<stop offset="1" stop-color="#E6E6E6" stop-opacity="0"/>
</linearGradient>
</defs>
</svg>
