<svg width="3469" height="2741" viewBox="0 0 3469 2741" fill="none" xmlns="http://www.w3.org/2000/svg">
<rect width="3469" height="2741" fill="white"/>
<path d="M733.354 500.98H720.463L716.557 521H709.574L713.48 500.98H701.811V494.291H714.75L718.119 477.006H705.521V470.219H719.438L723.441 449.906H730.424L726.42 470.219H739.311L743.314 449.906H750.346L746.342 470.219H756.303V477.006H745.023L741.654 494.291H752.641V500.98H740.385L736.479 521H729.447L733.354 500.98ZM721.732 494.291H734.623L737.992 477.006H725.102L721.732 494.291ZM774.271 521H765.238V446H774.271V521ZM798.588 521H789.555V468.168H798.588V521ZM788.822 454.154C788.822 452.689 789.262 451.452 790.141 450.443C791.052 449.434 792.387 448.93 794.145 448.93C795.902 448.93 797.237 449.434 798.148 450.443C799.06 451.452 799.516 452.689 799.516 454.154C799.516 455.619 799.06 456.84 798.148 457.816C797.237 458.793 795.902 459.281 794.145 459.281C792.387 459.281 791.052 458.793 790.141 457.816C789.262 456.84 788.822 455.619 788.822 454.154ZM817.533 521V475.15H809.184V468.168H817.533V462.748C817.533 457.084 819.047 452.706 822.074 449.613C825.102 446.521 829.382 444.975 834.916 444.975C836.999 444.975 839.066 445.251 841.117 445.805L840.629 453.129C839.099 452.836 837.471 452.689 835.746 452.689C832.816 452.689 830.554 453.552 828.959 455.277C827.364 456.97 826.566 459.411 826.566 462.602V468.168H837.846V475.15H826.566V521H817.533ZM868.607 521.977C861.446 521.977 855.619 519.633 851.127 514.945C846.635 510.225 844.389 503.926 844.389 496.049V494.389C844.389 489.148 845.382 484.477 847.367 480.375C849.385 476.241 852.185 473.018 855.766 470.707C859.379 468.363 863.285 467.191 867.484 467.191C874.353 467.191 879.691 469.454 883.5 473.979C887.309 478.503 889.213 484.981 889.213 493.412V497.172H853.422C853.552 502.38 855.066 506.596 857.963 509.818C860.893 513.008 864.604 514.604 869.096 514.604C872.286 514.604 874.988 513.952 877.201 512.65C879.415 511.348 881.352 509.623 883.012 507.475L888.529 511.771C884.102 518.575 877.462 521.977 868.607 521.977ZM867.484 474.613C863.839 474.613 860.779 475.948 858.305 478.617C855.831 481.254 854.301 484.965 853.715 489.75H880.18V489.066C879.919 484.477 878.682 480.928 876.469 478.422C874.255 475.883 871.26 474.613 867.484 474.613ZM918.51 494.486H894.682V487.113H918.51V494.486ZM939.604 455.375V468.168H949.467V475.15H939.604V507.914C939.604 510.03 940.043 511.625 940.922 512.699C941.801 513.741 943.298 514.262 945.414 514.262C946.456 514.262 947.888 514.066 949.711 513.676V521C947.335 521.651 945.023 521.977 942.777 521.977C938.741 521.977 935.697 520.756 933.646 518.314C931.596 515.873 930.57 512.406 930.57 507.914V475.15H920.951V468.168H930.57V455.375H939.604ZM981.986 521.977C974.825 521.977 968.998 519.633 964.506 514.945C960.014 510.225 957.768 503.926 957.768 496.049V494.389C957.768 489.148 958.76 484.477 960.746 480.375C962.764 476.241 965.564 473.018 969.145 470.707C972.758 468.363 976.664 467.191 980.863 467.191C987.732 467.191 993.07 469.454 996.879 473.979C1000.69 478.503 1002.59 484.981 1002.59 493.412V497.172H966.801C966.931 502.38 968.445 506.596 971.342 509.818C974.271 513.008 977.982 514.604 982.475 514.604C985.665 514.604 988.367 513.952 990.58 512.65C992.794 511.348 994.73 509.623 996.391 507.475L1001.91 511.771C997.481 518.575 990.84 521.977 981.986 521.977ZM980.863 474.613C977.217 474.613 974.158 475.948 971.684 478.617C969.21 481.254 967.68 484.965 967.094 489.75H993.559V489.066C993.298 484.477 992.061 480.928 989.848 478.422C987.634 475.883 984.639 474.613 980.863 474.613ZM1034.28 514.604C1037.5 514.604 1040.32 513.627 1042.73 511.674C1045.14 509.721 1046.47 507.279 1046.73 504.35H1055.28C1055.11 507.377 1054.07 510.258 1052.15 512.992C1050.23 515.727 1047.66 517.908 1044.44 519.535C1041.25 521.163 1037.86 521.977 1034.28 521.977C1027.09 521.977 1021.36 519.584 1017.09 514.799C1012.86 509.981 1010.75 503.406 1010.75 495.072V493.559C1010.75 488.415 1011.69 483.842 1013.58 479.838C1015.47 475.834 1018.17 472.725 1021.68 470.512C1025.23 468.298 1029.41 467.191 1034.23 467.191C1040.16 467.191 1045.07 468.965 1048.98 472.514C1052.92 476.062 1055.02 480.668 1055.28 486.332H1046.73C1046.47 482.914 1045.17 480.115 1042.83 477.934C1040.51 475.72 1037.65 474.613 1034.23 474.613C1029.64 474.613 1026.08 476.273 1023.54 479.594C1021.03 482.882 1019.78 487.65 1019.78 493.9V495.609C1019.78 501.697 1021.03 506.384 1023.54 509.672C1026.05 512.96 1029.63 514.604 1034.28 514.604ZM1074.47 474.564C1078.47 469.649 1083.68 467.191 1090.09 467.191C1101.26 467.191 1106.89 473.49 1106.99 486.088V521H1097.95V486.039C1097.92 482.23 1097.04 479.415 1095.32 477.592C1093.62 475.769 1090.97 474.857 1087.36 474.857C1084.43 474.857 1081.86 475.639 1079.64 477.201C1077.43 478.764 1075.7 480.814 1074.47 483.354V521H1065.43V446H1074.47V474.564ZM1157.57 455.375V468.168H1167.44V475.15H1157.57V507.914C1157.57 510.03 1158.01 511.625 1158.89 512.699C1159.77 513.741 1161.27 514.262 1163.38 514.262C1164.42 514.262 1165.86 514.066 1167.68 513.676V521C1165.3 521.651 1162.99 521.977 1160.75 521.977C1156.71 521.977 1153.67 520.756 1151.62 518.314C1149.56 515.873 1148.54 512.406 1148.54 507.914V475.15H1138.92V468.168H1148.54V455.375H1157.57ZM1210.65 515.775C1207.13 519.91 1201.97 521.977 1195.17 521.977C1189.54 521.977 1185.24 520.349 1182.28 517.094C1179.35 513.806 1177.87 508.956 1177.84 502.543V468.168H1186.87V502.299C1186.87 510.307 1190.12 514.311 1196.63 514.311C1203.54 514.311 1208.13 511.739 1210.4 506.596V468.168H1219.44V521H1210.84L1210.65 515.775ZM1245.46 455.375V468.168H1255.33V475.15H1245.46V507.914C1245.46 510.03 1245.9 511.625 1246.78 512.699C1247.66 513.741 1249.16 514.262 1251.27 514.262C1252.32 514.262 1253.75 514.066 1255.57 513.676V521C1253.19 521.651 1250.88 521.977 1248.64 521.977C1244.6 521.977 1241.56 520.756 1239.51 518.314C1237.46 515.873 1236.43 512.406 1236.43 507.914V475.15H1226.81V468.168H1236.43V455.375H1245.46ZM1262.55 494.096C1262.55 488.92 1263.56 484.265 1265.58 480.131C1267.63 475.997 1270.46 472.807 1274.08 470.561C1277.72 468.314 1281.87 467.191 1286.53 467.191C1293.72 467.191 1299.53 469.682 1303.96 474.662C1308.42 479.643 1310.65 486.267 1310.65 494.535V495.17C1310.65 500.313 1309.66 504.936 1307.67 509.037C1305.72 513.106 1302.9 516.28 1299.22 518.559C1295.58 520.837 1291.38 521.977 1286.62 521.977C1279.46 521.977 1273.65 519.486 1269.19 514.506C1264.77 509.525 1262.55 502.934 1262.55 494.73V494.096ZM1271.63 495.17C1271.63 501.029 1272.99 505.733 1275.69 509.281C1278.42 512.829 1282.07 514.604 1286.62 514.604C1291.21 514.604 1294.86 512.813 1297.56 509.232C1300.26 505.619 1301.62 500.574 1301.62 494.096C1301.62 488.301 1300.23 483.614 1297.46 480.033C1294.73 476.42 1291.08 474.613 1286.53 474.613C1282.07 474.613 1278.47 476.387 1275.74 479.936C1273 483.484 1271.63 488.562 1271.63 495.17ZM1347.51 476.273C1346.15 476.046 1344.67 475.932 1343.07 475.932C1337.15 475.932 1333.13 478.454 1331.01 483.5V521H1321.98V468.168H1330.77L1330.91 474.271C1333.87 469.551 1338.07 467.191 1343.51 467.191C1345.27 467.191 1346.6 467.419 1347.51 467.875V476.273Z" fill="#DEDEDE"/>
<path d="M765.354 2297.98H752.463L748.557 2318H741.574L745.48 2297.98H733.811V2291.29H746.75L750.119 2274.01H737.521V2267.22H751.438L755.441 2246.91H762.424L758.42 2267.22H771.311L775.314 2246.91H782.346L778.342 2267.22H788.303V2274.01H777.023L773.654 2291.29H784.641V2297.98H772.385L768.479 2318H761.447L765.354 2297.98ZM753.732 2291.29H766.623L769.992 2274.01H757.102L753.732 2291.29ZM806.271 2318H797.238V2243H806.271V2318ZM830.588 2318H821.555V2265.17H830.588V2318ZM820.822 2251.15C820.822 2249.69 821.262 2248.45 822.141 2247.44C823.052 2246.43 824.387 2245.93 826.145 2245.93C827.902 2245.93 829.237 2246.43 830.148 2247.44C831.06 2248.45 831.516 2249.69 831.516 2251.15C831.516 2252.62 831.06 2253.84 830.148 2254.82C829.237 2255.79 827.902 2256.28 826.145 2256.28C824.387 2256.28 823.052 2255.79 822.141 2254.82C821.262 2253.84 820.822 2252.62 820.822 2251.15ZM849.533 2318V2272.15H841.184V2265.17H849.533V2259.75C849.533 2254.08 851.047 2249.71 854.074 2246.61C857.102 2243.52 861.382 2241.97 866.916 2241.97C868.999 2241.97 871.066 2242.25 873.117 2242.8L872.629 2250.13C871.099 2249.84 869.471 2249.69 867.746 2249.69C864.816 2249.69 862.554 2250.55 860.959 2252.28C859.364 2253.97 858.566 2256.41 858.566 2259.6V2265.17H869.846V2272.15H858.566V2318H849.533ZM900.607 2318.98C893.446 2318.98 887.619 2316.63 883.127 2311.95C878.635 2307.23 876.389 2300.93 876.389 2293.05V2291.39C876.389 2286.15 877.382 2281.48 879.367 2277.38C881.385 2273.24 884.185 2270.02 887.766 2267.71C891.379 2265.36 895.285 2264.19 899.484 2264.19C906.353 2264.19 911.691 2266.45 915.5 2270.98C919.309 2275.5 921.213 2281.98 921.213 2290.41V2294.17H885.422C885.552 2299.38 887.066 2303.6 889.963 2306.82C892.893 2310.01 896.604 2311.6 901.096 2311.6C904.286 2311.6 906.988 2310.95 909.201 2309.65C911.415 2308.35 913.352 2306.62 915.012 2304.47L920.529 2308.77C916.102 2315.57 909.462 2318.98 900.607 2318.98ZM899.484 2271.61C895.839 2271.61 892.779 2272.95 890.305 2275.62C887.831 2278.25 886.301 2281.96 885.715 2286.75H912.18V2286.07C911.919 2281.48 910.682 2277.93 908.469 2275.42C906.255 2272.88 903.26 2271.61 899.484 2271.61ZM950.51 2291.49H926.682V2284.11H950.51V2291.49ZM971.604 2252.38V2265.17H981.467V2272.15H971.604V2304.91C971.604 2307.03 972.043 2308.62 972.922 2309.7C973.801 2310.74 975.298 2311.26 977.414 2311.26C978.456 2311.26 979.888 2311.07 981.711 2310.68V2318C979.335 2318.65 977.023 2318.98 974.777 2318.98C970.741 2318.98 967.697 2317.76 965.646 2315.31C963.596 2312.87 962.57 2309.41 962.57 2304.91V2272.15H952.951V2265.17H962.57V2252.38H971.604ZM1013.99 2318.98C1006.82 2318.98 1001 2316.63 996.506 2311.95C992.014 2307.23 989.768 2300.93 989.768 2293.05V2291.39C989.768 2286.15 990.76 2281.48 992.746 2277.38C994.764 2273.24 997.564 2270.02 1001.14 2267.71C1004.76 2265.36 1008.66 2264.19 1012.86 2264.19C1019.73 2264.19 1025.07 2266.45 1028.88 2270.98C1032.69 2275.5 1034.59 2281.98 1034.59 2290.41V2294.17H998.801C998.931 2299.38 1000.44 2303.6 1003.34 2306.82C1006.27 2310.01 1009.98 2311.6 1014.47 2311.6C1017.66 2311.6 1020.37 2310.95 1022.58 2309.65C1024.79 2308.35 1026.73 2306.62 1028.39 2304.47L1033.91 2308.77C1029.48 2315.57 1022.84 2318.98 1013.99 2318.98ZM1012.86 2271.61C1009.22 2271.61 1006.16 2272.95 1003.68 2275.62C1001.21 2278.25 999.68 2281.96 999.094 2286.75H1025.56V2286.07C1025.3 2281.48 1024.06 2277.93 1021.85 2275.42C1019.63 2272.88 1016.64 2271.61 1012.86 2271.61ZM1066.28 2311.6C1069.5 2311.6 1072.32 2310.63 1074.73 2308.67C1077.14 2306.72 1078.47 2304.28 1078.73 2301.35H1087.28C1087.11 2304.38 1086.07 2307.26 1084.15 2309.99C1082.23 2312.73 1079.66 2314.91 1076.44 2316.54C1073.25 2318.16 1069.86 2318.98 1066.28 2318.98C1059.09 2318.98 1053.36 2316.58 1049.09 2311.8C1044.86 2306.98 1042.75 2300.41 1042.75 2292.07V2290.56C1042.75 2285.42 1043.69 2280.84 1045.58 2276.84C1047.47 2272.83 1050.17 2269.73 1053.68 2267.51C1057.23 2265.3 1061.41 2264.19 1066.23 2264.19C1072.16 2264.19 1077.07 2265.97 1080.98 2269.51C1084.92 2273.06 1087.02 2277.67 1087.28 2283.33H1078.73C1078.47 2279.91 1077.17 2277.11 1074.83 2274.93C1072.51 2272.72 1069.65 2271.61 1066.23 2271.61C1061.64 2271.61 1058.08 2273.27 1055.54 2276.59C1053.03 2279.88 1051.78 2284.65 1051.78 2290.9V2292.61C1051.78 2298.7 1053.03 2303.38 1055.54 2306.67C1058.05 2309.96 1061.63 2311.6 1066.28 2311.6ZM1106.47 2271.56C1110.47 2266.65 1115.68 2264.19 1122.09 2264.19C1133.26 2264.19 1138.89 2270.49 1138.99 2283.09V2318H1129.95V2283.04C1129.92 2279.23 1129.04 2276.41 1127.32 2274.59C1125.62 2272.77 1122.97 2271.86 1119.36 2271.86C1116.43 2271.86 1113.86 2272.64 1111.64 2274.2C1109.43 2275.76 1107.7 2277.81 1106.47 2280.35V2318H1097.43V2243H1106.47V2271.56ZM1189.57 2252.38V2265.17H1199.44V2272.15H1189.57V2304.91C1189.57 2307.03 1190.01 2308.62 1190.89 2309.7C1191.77 2310.74 1193.27 2311.26 1195.38 2311.26C1196.42 2311.26 1197.86 2311.07 1199.68 2310.68V2318C1197.3 2318.65 1194.99 2318.98 1192.75 2318.98C1188.71 2318.98 1185.67 2317.76 1183.62 2315.31C1181.56 2312.87 1180.54 2309.41 1180.54 2304.91V2272.15H1170.92V2265.17H1180.54V2252.38H1189.57ZM1242.65 2312.78C1239.13 2316.91 1233.97 2318.98 1227.17 2318.98C1221.54 2318.98 1217.24 2317.35 1214.28 2314.09C1211.35 2310.81 1209.87 2305.96 1209.84 2299.54V2265.17H1218.87V2299.3C1218.87 2307.31 1222.12 2311.31 1228.63 2311.31C1235.54 2311.31 1240.13 2308.74 1242.4 2303.6V2265.17H1251.44V2318H1242.84L1242.65 2312.78ZM1277.46 2252.38V2265.17H1287.33V2272.15H1277.46V2304.91C1277.46 2307.03 1277.9 2308.62 1278.78 2309.7C1279.66 2310.74 1281.16 2311.26 1283.27 2311.26C1284.32 2311.26 1285.75 2311.07 1287.57 2310.68V2318C1285.19 2318.65 1282.88 2318.98 1280.64 2318.98C1276.6 2318.98 1273.56 2317.76 1271.51 2315.31C1269.46 2312.87 1268.43 2309.41 1268.43 2304.91V2272.15H1258.81V2265.17H1268.43V2252.38H1277.46ZM1294.55 2291.1C1294.55 2285.92 1295.56 2281.26 1297.58 2277.13C1299.63 2273 1302.46 2269.81 1306.08 2267.56C1309.72 2265.31 1313.87 2264.19 1318.53 2264.19C1325.72 2264.19 1331.53 2266.68 1335.96 2271.66C1340.42 2276.64 1342.65 2283.27 1342.65 2291.54V2292.17C1342.65 2297.31 1341.66 2301.94 1339.67 2306.04C1337.72 2310.11 1334.9 2313.28 1331.22 2315.56C1327.58 2317.84 1323.38 2318.98 1318.62 2318.98C1311.46 2318.98 1305.65 2316.49 1301.19 2311.51C1296.77 2306.53 1294.55 2299.93 1294.55 2291.73V2291.1ZM1303.63 2292.17C1303.63 2298.03 1304.99 2302.73 1307.69 2306.28C1310.42 2309.83 1314.07 2311.6 1318.62 2311.6C1323.21 2311.6 1326.86 2309.81 1329.56 2306.23C1332.26 2302.62 1333.62 2297.57 1333.62 2291.1C1333.62 2285.3 1332.23 2280.61 1329.46 2277.03C1326.73 2273.42 1323.08 2271.61 1318.53 2271.61C1314.07 2271.61 1310.47 2273.39 1307.74 2276.94C1305 2280.48 1303.63 2285.56 1303.63 2292.17ZM1379.51 2273.27C1378.15 2273.05 1376.67 2272.93 1375.07 2272.93C1369.15 2272.93 1365.13 2275.45 1363.01 2280.5V2318H1353.98V2265.17H1362.77L1362.91 2271.27C1365.87 2266.55 1370.07 2264.19 1375.51 2264.19C1377.27 2264.19 1378.6 2264.42 1379.51 2264.88V2273.27Z" fill="#DEDEDE"/>
<path d="M1316.21 2019.99H1312.34L1311.17 2026H1309.07L1310.24 2019.99H1306.74V2017.99H1310.62L1311.64 2012.8H1307.86V2010.77H1312.03L1313.23 2004.67H1315.33L1314.13 2010.77H1317.99L1319.19 2004.67H1321.3L1320.1 2010.77H1323.09V2012.8H1319.71L1318.7 2017.99H1321.99V2019.99H1318.32L1317.14 2026H1315.03L1316.21 2019.99ZM1312.72 2017.99H1316.59L1317.6 2012.8H1313.73L1312.72 2017.99ZM1338.93 2018.25C1338.93 2020.66 1338.37 2022.61 1337.27 2024.08C1336.17 2025.56 1334.67 2026.29 1332.79 2026.29C1330.86 2026.29 1329.35 2025.68 1328.25 2024.46V2032.09H1325.54V2010.15H1328.01L1328.14 2011.91C1329.25 2010.54 1330.78 2009.86 1332.74 2009.86C1334.65 2009.86 1336.15 2010.58 1337.26 2012.01C1338.37 2013.45 1338.93 2015.44 1338.93 2018V2018.25ZM1336.22 2017.94C1336.22 2016.16 1335.83 2014.75 1335.07 2013.71C1334.31 2012.67 1333.27 2012.16 1331.94 2012.16C1330.3 2012.16 1329.07 2012.88 1328.25 2014.34V2021.91C1329.06 2023.36 1330.3 2024.08 1331.97 2024.08C1333.27 2024.08 1334.3 2023.57 1335.06 2022.54C1335.83 2021.51 1336.22 2019.97 1336.22 2017.94ZM1347.39 2022.03L1351.08 2010.15H1353.98L1347.61 2028.45C1346.63 2031.08 1345.06 2032.4 1342.91 2032.4L1342.4 2032.36L1341.39 2032.17V2029.97L1342.12 2030.03C1343.04 2030.03 1343.75 2029.84 1344.26 2029.47C1344.78 2029.1 1345.2 2028.42 1345.53 2027.44L1346.13 2025.82L1340.48 2010.15H1343.44L1347.39 2022.03ZM1360.09 2006.31V2010.15H1363.05V2012.25H1360.09V2022.07C1360.09 2022.71 1360.22 2023.19 1360.49 2023.51C1360.75 2023.82 1361.2 2023.98 1361.84 2023.98C1362.15 2023.98 1362.58 2023.92 1363.12 2023.8V2026C1362.41 2026.2 1361.72 2026.29 1361.04 2026.29C1359.83 2026.29 1358.92 2025.93 1358.31 2025.19C1357.69 2024.46 1357.38 2023.42 1357.38 2022.07V2012.25H1354.5V2010.15H1357.38V2006.31H1360.09ZM1368.94 2012.07C1370.14 2010.59 1371.7 2009.86 1373.63 2009.86C1376.98 2009.86 1378.67 2011.75 1378.7 2015.53V2026H1375.99V2015.51C1375.98 2014.37 1375.71 2013.52 1375.2 2012.98C1374.69 2012.43 1373.89 2012.16 1372.81 2012.16C1371.93 2012.16 1371.16 2012.39 1370.49 2012.86C1369.83 2013.33 1369.31 2013.94 1368.94 2014.71V2026H1366.23V2003.5H1368.94V2012.07ZM1382.04 2017.93C1382.04 2016.38 1382.34 2014.98 1382.94 2013.74C1383.56 2012.5 1384.41 2011.54 1385.49 2010.87C1386.59 2010.19 1387.83 2009.86 1389.23 2009.86C1391.39 2009.86 1393.13 2010.6 1394.46 2012.1C1395.8 2013.59 1396.46 2015.58 1396.46 2018.06V2018.25C1396.46 2019.79 1396.17 2021.18 1395.57 2022.41C1394.99 2023.63 1394.14 2024.58 1393.04 2025.27C1391.94 2025.95 1390.68 2026.29 1389.26 2026.29C1387.11 2026.29 1385.37 2025.55 1384.03 2024.05C1382.7 2022.56 1382.04 2020.58 1382.04 2018.12V2017.93ZM1384.76 2018.25C1384.76 2020.01 1385.17 2021.42 1385.98 2022.48C1386.8 2023.55 1387.89 2024.08 1389.26 2024.08C1390.63 2024.08 1391.73 2023.54 1392.54 2022.47C1393.35 2021.39 1393.75 2019.87 1393.75 2017.93C1393.75 2016.19 1393.34 2014.78 1392.51 2013.71C1391.69 2012.63 1390.6 2012.08 1389.23 2012.08C1387.89 2012.08 1386.81 2012.62 1385.99 2013.68C1385.17 2014.75 1384.76 2016.27 1384.76 2018.25ZM1402.43 2010.15L1402.51 2012.14C1403.73 2010.62 1405.31 2009.86 1407.26 2009.86C1410.61 2009.86 1412.3 2011.75 1412.33 2015.53V2026H1409.62V2015.51C1409.61 2014.37 1409.35 2013.52 1408.83 2012.98C1408.32 2012.43 1407.52 2012.16 1406.44 2012.16C1405.56 2012.16 1404.79 2012.39 1404.13 2012.86C1403.46 2013.33 1402.94 2013.94 1402.57 2014.71V2026H1399.86V2010.15H1402.43Z" fill="#C0C0C0"/>
<path d="M1107.47 2724H1104.89L1104.11 2728H1102.71L1103.5 2724H1101.16V2722.66H1103.75L1104.42 2719.2H1101.9V2717.84H1104.69L1105.49 2713.78H1106.88L1106.08 2717.84H1108.66L1109.46 2713.78H1110.87L1110.07 2717.84H1112.06V2719.2H1109.8L1109.13 2722.66H1111.33V2724H1108.88L1108.1 2728H1106.69L1107.47 2724ZM1105.15 2722.66H1107.72L1108.4 2719.2H1105.82L1105.15 2722.66ZM1122.62 2722.83C1122.62 2724.44 1122.25 2725.74 1121.51 2726.72C1120.78 2727.7 1119.78 2728.2 1118.53 2728.2C1117.24 2728.2 1116.23 2727.79 1115.5 2726.97V2732.06H1113.69V2717.43H1115.34L1115.43 2718.61C1116.17 2717.69 1117.19 2717.24 1118.5 2717.24C1119.77 2717.24 1120.77 2717.72 1121.5 2718.67C1122.25 2719.63 1122.62 2720.96 1122.62 2722.67V2722.83ZM1120.81 2722.63C1120.81 2721.44 1120.56 2720.5 1120.05 2719.81C1119.54 2719.12 1118.84 2718.77 1117.96 2718.77C1116.87 2718.77 1116.04 2719.26 1115.5 2720.23V2725.28C1116.04 2726.24 1116.87 2726.72 1117.98 2726.72C1118.84 2726.72 1119.53 2726.38 1120.04 2725.7C1120.55 2725.01 1120.81 2723.98 1120.81 2722.63ZM1128.26 2725.35L1130.72 2717.43H1132.66L1128.41 2729.63C1127.75 2731.39 1126.71 2732.27 1125.27 2732.27L1124.93 2732.24L1124.26 2732.11V2730.65L1124.75 2730.69C1125.36 2730.69 1125.83 2730.56 1126.17 2730.31C1126.52 2730.07 1126.8 2729.61 1127.02 2728.96L1127.42 2727.88L1123.65 2717.43H1125.62L1128.26 2725.35ZM1136.73 2714.88V2717.43H1138.7V2718.83H1136.73V2725.38C1136.73 2725.81 1136.82 2726.12 1136.99 2726.34C1137.17 2726.55 1137.47 2726.65 1137.89 2726.65C1138.1 2726.65 1138.39 2726.61 1138.75 2726.54V2728C1138.27 2728.13 1137.81 2728.2 1137.36 2728.2C1136.56 2728.2 1135.95 2727.95 1135.54 2727.46C1135.13 2726.97 1134.92 2726.28 1134.92 2725.38V2718.83H1133V2717.43H1134.92V2714.88H1136.73ZM1142.63 2718.71C1143.43 2717.73 1144.47 2717.24 1145.75 2717.24C1147.99 2717.24 1149.11 2718.5 1149.13 2721.02V2728H1147.32V2721.01C1147.32 2720.25 1147.14 2719.68 1146.8 2719.32C1146.46 2718.95 1145.93 2718.77 1145.21 2718.77C1144.62 2718.77 1144.1 2718.93 1143.66 2719.24C1143.22 2719.55 1142.87 2719.96 1142.63 2720.47V2728H1140.82V2713H1142.63V2718.71ZM1151.36 2722.62C1151.36 2721.58 1151.56 2720.65 1151.96 2719.83C1152.37 2719 1152.94 2718.36 1153.66 2717.91C1154.39 2717.46 1155.22 2717.24 1156.15 2717.24C1157.59 2717.24 1158.75 2717.74 1159.64 2718.73C1160.53 2719.73 1160.98 2721.05 1160.98 2722.71V2722.83C1160.98 2723.86 1160.78 2724.79 1160.38 2725.61C1159.99 2726.42 1159.43 2727.06 1158.69 2727.51C1157.96 2727.97 1157.12 2728.2 1156.17 2728.2C1154.74 2728.2 1153.58 2727.7 1152.69 2726.7C1151.8 2725.71 1151.36 2724.39 1151.36 2722.75V2722.62ZM1153.17 2722.83C1153.17 2724.01 1153.44 2724.95 1153.98 2725.66C1154.53 2726.37 1155.26 2726.72 1156.17 2726.72C1157.09 2726.72 1157.82 2726.36 1158.36 2725.65C1158.9 2724.92 1159.17 2723.91 1159.17 2722.62C1159.17 2721.46 1158.89 2720.52 1158.34 2719.81C1157.79 2719.08 1157.06 2718.72 1156.15 2718.72C1155.26 2718.72 1154.54 2719.08 1153.99 2719.79C1153.45 2720.5 1153.17 2721.51 1153.17 2722.83ZM1164.95 2717.43L1165.01 2718.76C1165.82 2717.75 1166.87 2717.24 1168.17 2717.24C1170.41 2717.24 1171.53 2718.5 1171.55 2721.02V2728H1169.75V2721.01C1169.74 2720.25 1169.56 2719.68 1169.22 2719.32C1168.88 2718.95 1168.35 2718.77 1167.63 2718.77C1167.04 2718.77 1166.53 2718.93 1166.08 2719.24C1165.64 2719.55 1165.3 2719.96 1165.05 2720.47V2728H1163.24V2717.43H1164.95Z" fill="#C0C0C0"/>
<path d="M922.206 1996.99H918.339L917.167 2003H915.072L916.244 1996.99H912.743V1994.99H916.625L917.636 1989.8H913.856V1987.77H918.031L919.232 1981.67H921.327L920.126 1987.77H923.993L925.194 1981.67H927.304L926.103 1987.77H929.091V1989.8H925.707L924.696 1994.99H927.992V1996.99H924.315L923.144 2003H921.034L922.206 1996.99ZM918.72 1994.99H922.587L923.598 1989.8H919.73L918.72 1994.99ZM944.926 1995.25C944.926 1997.66 944.374 1999.61 943.271 2001.08C942.167 2002.56 940.673 2003.29 938.788 2003.29C936.864 2003.29 935.351 2002.68 934.247 2001.46V2009.09H931.537V1987.15H934.013L934.145 1988.91C935.248 1987.54 936.781 1986.86 938.744 1986.86C940.648 1986.86 942.152 1987.58 943.256 1989.01C944.369 1990.45 944.926 1992.44 944.926 1995V1995.25ZM942.216 1994.94C942.216 1993.16 941.835 1991.75 941.073 1990.71C940.312 1989.67 939.267 1989.16 937.938 1989.16C936.298 1989.16 935.067 1989.88 934.247 1991.34V1998.91C935.058 2000.36 936.298 2001.08 937.968 2001.08C939.267 2001.08 940.297 2000.57 941.059 1999.54C941.83 1998.51 942.216 1996.97 942.216 1994.94ZM951.093 1989.07C952.294 1987.59 953.856 1986.86 955.78 1986.86C959.13 1986.86 960.819 1988.75 960.849 1992.53V2003H958.139V1992.51C958.129 1991.37 957.865 1990.52 957.348 1989.98C956.84 1989.43 956.044 1989.16 954.96 1989.16C954.081 1989.16 953.31 1989.39 952.646 1989.86C951.981 1990.33 951.464 1990.94 951.093 1991.71V2003H948.383V1980.5H951.093V1989.07ZM978.295 1995.25C978.295 1997.66 977.743 1999.61 976.64 2001.08C975.536 2002.56 974.042 2003.29 972.157 2003.29C970.233 2003.29 968.72 2002.68 967.616 2001.46V2009.09H964.906V1987.15H967.382L967.514 1988.91C968.617 1987.54 970.15 1986.86 972.113 1986.86C974.018 1986.86 975.521 1987.58 976.625 1989.01C977.738 1990.45 978.295 1992.44 978.295 1995V1995.25ZM975.585 1994.94C975.585 1993.16 975.204 1991.75 974.442 1990.71C973.681 1989.67 972.636 1989.16 971.308 1989.16C969.667 1989.16 968.437 1989.88 967.616 1991.34V1998.91C968.427 2000.36 969.667 2001.08 971.337 2001.08C972.636 2001.08 973.666 2000.57 974.428 1999.54C975.199 1998.51 975.585 1996.97 975.585 1994.94Z" fill="#C0C0C0"/>
<path d="M1744.21 2019.99H1740.34L1739.17 2026H1737.07L1738.24 2019.99H1734.74V2017.99H1738.62L1739.64 2012.8H1735.86V2010.77H1740.03L1741.23 2004.67H1743.33L1742.13 2010.77H1745.99L1747.19 2004.67H1749.3L1748.1 2010.77H1751.09V2012.8H1747.71L1746.7 2017.99H1749.99V2019.99H1746.32L1745.14 2026H1743.03L1744.21 2019.99ZM1740.72 2017.99H1744.59L1745.6 2012.8H1741.73L1740.72 2017.99ZM1758.77 2022.32L1762.69 2010.15H1765.46L1759.78 2026H1757.71L1751.97 2010.15H1754.74L1758.77 2022.32ZM1777.85 2024.43C1776.8 2025.67 1775.25 2026.29 1773.21 2026.29C1771.52 2026.29 1770.23 2025.8 1769.34 2024.83C1768.46 2023.84 1768.02 2022.39 1768.01 2020.46V2010.15H1770.72V2020.39C1770.72 2022.79 1771.7 2023.99 1773.65 2023.99C1775.72 2023.99 1777.1 2023.22 1777.78 2021.68V2010.15H1780.49V2026H1777.91L1777.85 2024.43ZM1791.2 2026.29C1789.05 2026.29 1787.3 2025.59 1785.95 2024.18C1784.61 2022.77 1783.93 2020.88 1783.93 2018.51V2018.02C1783.93 2016.44 1784.23 2015.04 1784.83 2013.81C1785.43 2012.57 1786.27 2011.61 1787.35 2010.91C1788.43 2010.21 1789.6 2009.86 1790.86 2009.86C1792.92 2009.86 1794.52 2010.54 1795.67 2011.89C1796.81 2013.25 1797.38 2015.19 1797.38 2017.72V2018.85H1786.64C1786.68 2020.41 1787.14 2021.68 1788 2022.65C1788.88 2023.6 1790 2024.08 1791.34 2024.08C1792.3 2024.08 1793.11 2023.89 1793.78 2023.5C1794.44 2023.1 1795.02 2022.59 1795.52 2021.94L1797.17 2023.23C1795.85 2025.27 1793.85 2026.29 1791.2 2026.29ZM1790.86 2012.08C1789.77 2012.08 1788.85 2012.48 1788.11 2013.29C1787.37 2014.08 1786.91 2015.19 1786.73 2016.62H1794.67V2016.42C1794.59 2015.04 1794.22 2013.98 1793.56 2013.23C1792.89 2012.46 1791.99 2012.08 1790.86 2012.08Z" fill="#C0C0C0"/>
<g clip-path="url(#clip0)">
<path d="M1622.83 2011.53H1609.8C1608.68 2011.53 1607.77 2012.3 1607.77 2013.26C1607.77 2014.21 1608.68 2014.99 1609.8 2014.99H1622.83C1623.96 2014.99 1624.87 2014.21 1624.87 2013.26C1624.87 2012.3 1623.96 2011.53 1622.83 2011.53Z" fill="#D6D6D6"/>
<path d="M1622.83 2018.64H1609.8C1608.68 2018.64 1607.77 2019.41 1607.77 2020.36C1607.77 2021.32 1608.68 2022.09 1609.8 2022.09H1622.83C1623.96 2022.09 1624.87 2021.32 1624.87 2020.36C1624.87 2019.41 1623.96 2018.64 1622.83 2018.64Z" fill="#D6D6D6"/>
<path d="M1622.83 2004.42H1609.8C1608.68 2004.42 1607.77 2005.2 1607.77 2006.15C1607.77 2007.11 1608.68 2007.88 1609.8 2007.88H1622.83C1623.96 2007.88 1624.87 2007.11 1624.87 2006.15C1624.87 2005.2 1623.96 2004.42 1622.83 2004.42Z" fill="#D6D6D6"/>
<path d="M1593.05 2002.18C1591.23 2002.18 1589.75 2003.43 1589.75 2004.97V2006.61H1584.98C1583.16 2006.61 1581.68 2007.87 1581.68 2009.41V2010.88H1576.89C1575.08 2010.88 1573.6 2012.14 1573.6 2013.68V2021.78C1573.6 2023.19 1574.96 2024.34 1576.62 2024.34H1598.89C1600.56 2024.34 1601.91 2023.19 1601.91 2021.78V2004.97C1601.91 2003.43 1600.43 2002.18 1598.62 2002.18H1593.05ZM1581.68 2020.88H1577.67V2014.34H1581.68V2020.88ZM1589.75 2020.88H1585.76C1585.76 2018.78 1585.76 2012.21 1585.76 2010.07H1589.75V2020.88ZM1597.84 2020.88H1593.84C1593.84 2009.7 1593.83 2006.15 1593.83 2005.63H1597.84V2020.88H1597.84Z" fill="#D6D6D6"/>
<path d="M1506.01 2052.83H1540.41C1541.54 2052.83 1542.45 2052.06 1542.45 2051.11C1542.45 2050.15 1541.54 2049.38 1540.41 2049.38H1519.49V2026.16C1519.49 2025.2 1518.58 2024.43 1517.45 2024.43C1516.33 2024.43 1515.42 2025.2 1515.42 2026.16V2049.38H1506.01C1505.49 2049.38 1505.07 2049.02 1505.07 2048.58V2024.12C1505.07 2018.65 1509.64 2015.06 1512.71 2013.98L1525.95 2009.59L1533.83 2016.28C1536.72 2018.73 1540.75 2020.27 1545.16 2020.27C1549.41 2020.27 1553.48 2018.83 1556.49 2016.28L1564.26 2009.68V2032.56C1564.26 2035.01 1566.6 2037 1569.48 2037H1570.83V2049.38H1549.91C1548.79 2049.38 1547.88 2050.15 1547.88 2051.11C1547.88 2052.06 1548.79 2052.83 1549.91 2052.83H1584.32C1587.08 2052.83 1589.32 2050.93 1589.32 2048.58V2037H1597.77V2042.3C1595.26 2043.02 1593.44 2045.04 1593.44 2047.42C1593.44 2050.41 1596.3 2052.83 1599.81 2052.83C1603.32 2052.83 1606.18 2050.41 1606.18 2047.42C1606.18 2045.04 1604.37 2043.02 1601.85 2042.3V2037H1630.14C1633.02 2037 1635.36 2035.01 1635.36 2032.56V2017.29C1635.36 2016.34 1634.45 2015.56 1633.32 2015.56C1632.2 2015.56 1631.29 2016.34 1631.29 2017.29V2032.56C1631.29 2033.1 1630.77 2033.54 1630.14 2033.54H1587.29H1569.48C1568.85 2033.54 1568.33 2033.1 1568.33 2032.56C1568.33 2031.47 1568.33 1993.24 1568.33 1992.15H1631.29V2009.23C1631.29 2010.18 1632.2 2010.95 1633.32 2010.95C1634.45 2010.95 1635.36 2010.18 1635.36 2009.23V1992.15H1635.36C1637.92 1992.15 1640 1990.38 1640 1988.21V1984.88C1640 1982.71 1637.92 1980.94 1635.36 1980.94H1571.18C1570.76 1979.06 1569.5 1977.38 1567.72 1976.28C1567.91 1975.82 1568.03 1975.32 1568.03 1974.81V1963.64C1568.03 1959.99 1564.29 1957.3 1560.44 1957.55C1559.96 1957.58 1559.43 1957.38 1559.32 1956.92C1558.43 1953.05 1555.56 1951.17 1550.56 1951.17H1533.28C1525.83 1951.17 1519.76 1956.31 1519.76 1962.64V1973.34C1519.76 1974.84 1520.43 1976.21 1521.53 1977.24C1519.95 1978.61 1518.99 1980.44 1518.99 1982.33C1518.99 1985.85 1522.23 1988.99 1526.8 1989.42C1527.46 1993.39 1529.97 1997.23 1534 1999.78V2003.21C1531.71 2003.97 1513.64 2009.96 1511.21 2010.77C1511.2 2010.77 1511.19 2010.77 1511.18 2010.78C1506.28 2012.49 1501 2017.4 1501 2024.12V2048.58C1501 2050.93 1503.25 2052.83 1506.01 2052.83V2052.83ZM1599.81 2045.47C1601.08 2045.47 1602.11 2046.35 1602.11 2047.42C1602.11 2048.5 1601.08 2049.38 1599.81 2049.38C1598.54 2049.38 1597.51 2048.5 1597.51 2047.42C1597.51 2046.35 1598.54 2045.47 1599.81 2045.47ZM1574.91 2037H1585.25V2048.58C1585.25 2049.02 1584.83 2049.38 1584.32 2049.38H1574.91V2037H1574.91ZM1539.85 2015.75C1542.28 2013.67 1541.39 2014.43 1543.83 2012.34C1543.83 2012.34 1543.83 2012.34 1543.84 2012.34C1544.02 2012.18 1544.19 2011.99 1544.29 2011.85H1546C1546.11 2012 1546.28 2012.19 1546.46 2012.34L1550.45 2015.76C1547.12 2017.16 1543.18 2017.16 1539.85 2015.75ZM1538.07 2003.62C1538.07 2003.58 1538.07 2003.54 1538.07 2003.49V2001.72C1542.27 2003.14 1547.51 2003.37 1552.24 2001.74L1552.24 2003.51C1552.24 2003.54 1552.24 2003.57 1552.24 2003.6C1549.88 2005.59 1548.86 2006.46 1546.57 2008.39H1543.72C1542.29 2007.18 1539.22 2004.6 1538.07 2003.62V2003.62ZM1553.78 2013.69C1553.39 2013.36 1550.39 2010.8 1549.94 2010.42L1554.66 2006.44C1557.53 2007.38 1557.38 2007.33 1560.19 2008.25L1553.78 2013.69ZM1564.26 2005.88L1556.31 2003.27L1556.31 1999.8C1559.37 1997.86 1561.7 1995.13 1562.87 1991.97C1563.31 1992.08 1563.77 1992.15 1564.26 1992.15H1564.26V2005.88ZM1635.36 1984.4C1635.67 1984.4 1635.93 1984.61 1635.93 1984.88V1988.21C1635.93 1988.48 1635.67 1988.69 1635.36 1988.69C1631.94 1988.69 1567.75 1988.69 1564.26 1988.69C1563.95 1988.69 1563.69 1988.48 1563.69 1988.21C1563.69 1986.31 1563.69 1986.72 1563.69 1984.88C1563.69 1984.61 1563.95 1984.4 1564.26 1984.4C1568.46 1984.4 1631.22 1984.4 1635.36 1984.4ZM1564.88 1978.83C1565.83 1979.28 1566.58 1980.05 1566.97 1980.94H1564.26C1564.07 1980.94 1563.82 1980.96 1563.69 1980.97V1979.12C1564.1 1979.07 1564.55 1978.95 1564.88 1978.83ZM1526.63 1985.9C1524.6 1985.49 1523.06 1984.06 1523.06 1982.33C1523.06 1981.06 1523.96 1979.79 1525.31 1979.06C1525.63 1979.12 1525.96 1979.15 1526.3 1979.17C1526.41 1979.17 1526.52 1979.17 1526.63 1979.17V1985.9H1526.63ZM1526.63 1975.72C1525.13 1975.72 1523.84 1974.67 1523.84 1973.34V1962.64C1523.84 1958.22 1528.07 1954.62 1533.28 1954.62H1550.56C1554.33 1954.62 1554.95 1955.96 1555.32 1957.58C1555.81 1959.7 1558.15 1961.17 1560.76 1961C1562.26 1960.9 1563.95 1962.02 1563.95 1963.64V1974.81C1563.95 1975.3 1563.45 1975.72 1562.88 1975.72C1560.71 1975.72 1558.99 1974.2 1558.99 1972.41C1558.99 1970.34 1555.72 1969.66 1554.58 1971.47C1552.93 1974.09 1549.74 1975.72 1546.25 1975.72C1543.4 1975.72 1529.48 1975.72 1526.63 1975.72V1975.72ZM1530.7 1987.34V1979.17H1546.25C1549.9 1979.17 1553.39 1977.92 1555.93 1975.71C1556.76 1976.97 1558.06 1977.98 1559.62 1978.58V1987.34C1559.62 1994.08 1553.14 1999.42 1545.4 1999.42C1536.53 1999.42 1530.7 1993.57 1530.7 1987.34ZM1535.58 2006.4C1538.67 2009.01 1537.5 2008.01 1540.35 2010.42C1538.28 2012.18 1539.03 2011.54 1536.53 2013.68L1530.09 2008.22L1535.58 2006.4Z" fill="#D6D6D6"/>
</g>
<g clip-path="url(#clip1)">
<path d="M834.058 2014.24H822.714C821.735 2014.24 820.941 2015.11 820.941 2016.19C820.941 2017.27 821.735 2018.14 822.714 2018.14H834.058C835.037 2018.14 835.83 2017.27 835.83 2016.19C835.83 2015.11 835.037 2014.24 834.058 2014.24Z" fill="#D6D6D6"/>
<path d="M834.058 2022.25H822.714C821.735 2022.25 820.941 2023.12 820.941 2024.2C820.941 2025.27 821.735 2026.15 822.714 2026.15H834.058C835.037 2026.15 835.83 2025.27 835.83 2024.2C835.83 2023.12 835.037 2022.25 834.058 2022.25Z" fill="#D6D6D6"/>
<path d="M834.058 2006.23H822.714C821.735 2006.23 820.941 2007.11 820.941 2008.18C820.941 2009.26 821.735 2010.13 822.714 2010.13H834.058C835.037 2010.13 835.83 2009.26 835.83 2008.18C835.83 2007.11 835.037 2006.23 834.058 2006.23Z" fill="#D6D6D6"/>
<path d="M808.129 2003.7C806.548 2003.7 805.262 2005.11 805.262 2006.85V2008.7H801.103C799.522 2008.7 798.236 2010.11 798.236 2011.85V2013.51H794.066C792.485 2013.51 791.199 2014.93 791.199 2016.67V2025.79C791.199 2027.38 792.379 2028.68 793.83 2028.68H813.213C814.664 2028.68 815.844 2027.38 815.844 2025.79V2006.85C815.844 2005.11 814.558 2003.7 812.977 2003.7H808.129ZM798.236 2024.78H794.744V2017.41H798.236V2024.78ZM805.262 2024.78H801.781C801.781 2022.41 801.781 2015.01 801.781 2012.59H805.262V2024.78ZM812.299 2024.78H808.818C808.818 2012.18 808.806 2008.18 808.806 2007.6H812.298V2024.78H812.299Z" fill="#D6D6D6"/>
<path d="M732.359 2060.8H762.307C763.286 2060.8 764.079 2059.92 764.079 2058.85C764.079 2057.77 763.286 2056.9 762.307 2056.9H744.094V2030.73C744.094 2029.65 743.301 2028.78 742.322 2028.78C741.343 2028.78 740.549 2029.65 740.549 2030.73V2056.9H732.359C731.91 2056.9 731.545 2056.5 731.545 2056V2028.43C731.545 2022.26 735.517 2018.22 738.196 2017L749.721 2012.06L756.58 2019.6C759.095 2022.36 762.602 2024.09 766.443 2024.09C770.145 2024.09 773.686 2022.47 776.305 2019.6L783.068 2012.16V2037.95C783.068 2040.7 785.108 2042.95 787.616 2042.95H788.791V2056.9H770.578C769.599 2056.9 768.806 2057.77 768.806 2058.85C768.806 2059.92 769.599 2060.8 770.578 2060.8H800.526C802.93 2060.8 804.885 2058.65 804.885 2056.01V2042.95H812.242V2048.92C810.05 2049.74 808.466 2052.02 808.466 2054.7C808.466 2058.06 810.955 2060.8 814.015 2060.8C817.074 2060.8 819.563 2058.06 819.563 2054.7C819.563 2052.02 817.98 2049.74 815.787 2048.92V2042.95H840.413C842.921 2042.95 844.961 2040.7 844.961 2037.95V2020.74C844.961 2019.66 844.168 2018.79 843.189 2018.79C842.21 2018.79 841.416 2019.66 841.416 2020.74V2037.95C841.416 2038.55 840.966 2039.05 840.413 2039.05H803.113H787.616C787.063 2039.05 786.613 2038.55 786.613 2037.95C786.613 2036.72 786.613 1993.62 786.613 1992.4H841.416V2011.64C841.416 2012.72 842.21 2013.59 843.189 2013.59C844.168 2013.59 844.961 2012.72 844.961 2011.64V1992.4H844.962C847.189 1992.4 849 1990.41 849 1987.96V1984.2C849 1981.76 847.189 1979.77 844.962 1979.77H789.09C788.727 1977.64 787.633 1975.75 786.08 1974.51C786.249 1973.99 786.346 1973.43 786.346 1972.85V1960.27C786.346 1956.15 783.098 1953.12 779.746 1953.4C779.329 1953.44 778.86 1953.2 778.768 1952.69C777.991 1948.32 775.498 1946.2 771.144 1946.2H756.102C749.613 1946.2 744.334 1952.01 744.334 1959.14V1971.2C744.334 1972.89 744.917 1974.43 745.873 1975.6C744.495 1977.13 743.66 1979.2 743.66 1981.32C743.66 1985.3 746.481 1988.83 750.462 1989.32C751.032 1993.8 753.215 1998.12 756.725 2001V2004.87C754.731 2005.72 739.001 2012.47 736.889 2013.38C736.88 2013.39 736.87 2013.39 736.86 2013.39C732.593 2015.32 728 2020.85 728 2028.43V2056.01C728 2058.65 729.955 2060.8 732.359 2060.8V2060.8ZM814.015 2052.5C815.119 2052.5 816.018 2053.48 816.018 2054.7C816.018 2055.91 815.119 2056.9 814.015 2056.9C812.91 2056.9 812.011 2055.91 812.011 2054.7C812.011 2053.48 812.91 2052.5 814.015 2052.5ZM792.336 2042.95H801.34V2056.01C801.34 2056.5 800.975 2056.9 800.526 2056.9H792.336V2042.95H792.336ZM761.816 2019C763.93 2016.66 763.162 2017.51 765.283 2015.16C765.286 2015.16 765.288 2015.15 765.29 2015.15C765.446 2014.98 765.594 2014.76 765.684 2014.6H767.171C767.266 2014.77 767.418 2014.99 767.572 2015.16L771.05 2019.01C768.145 2020.59 764.717 2020.59 761.816 2019ZM760.268 2005.33C760.27 2005.28 760.27 2005.23 760.27 2005.18V2003.18C763.927 2004.78 768.485 2005.05 772.605 2003.21L772.606 2005.2C772.606 2005.23 772.607 2005.27 772.608 2005.31C770.552 2007.55 769.662 2008.52 767.667 2010.7H765.189C763.941 2009.34 761.271 2006.43 760.268 2005.33V2005.33ZM773.944 2016.68C773.603 2016.3 770.997 2013.42 770.605 2012.99L774.715 2008.5C777.213 2009.56 777.077 2009.51 779.523 2010.55L773.944 2016.68ZM783.068 2007.88L776.151 2004.93L776.148 2001.02C778.815 1998.84 780.84 1995.76 781.854 1992.19C782.237 1992.32 782.644 1992.4 783.067 1992.4H783.068V2007.88ZM844.962 1983.66C845.234 1983.66 845.455 1983.9 845.455 1984.2V1987.96C845.455 1988.26 845.234 1988.5 844.962 1988.5C841.984 1988.5 786.103 1988.5 783.067 1988.5C782.795 1988.5 782.574 1988.26 782.574 1987.96C782.574 1985.82 782.574 1986.28 782.574 1984.2C782.574 1983.9 782.795 1983.66 783.067 1983.66C786.72 1983.66 841.356 1983.66 844.962 1983.66ZM783.607 1977.39C784.438 1977.89 785.091 1978.76 785.428 1979.76H783.067C782.906 1979.76 782.682 1979.78 782.574 1979.8V1977.71C782.925 1977.65 783.325 1977.52 783.607 1977.39ZM750.311 1985.35C748.546 1984.89 747.205 1983.28 747.205 1981.32C747.205 1979.9 747.988 1978.46 749.163 1977.65C749.442 1977.71 749.728 1977.75 750.02 1977.76C750.117 1977.77 750.214 1977.77 750.311 1977.77V1985.35H750.311ZM750.315 1973.88C749.001 1973.88 747.878 1972.7 747.878 1971.2V1959.14C747.878 1954.16 751.567 1950.1 756.102 1950.1H771.144C774.428 1950.1 774.964 1951.61 775.289 1953.44C775.714 1955.82 777.75 1957.48 780.018 1957.29C781.331 1957.18 782.801 1958.44 782.801 1960.27V1972.85C782.801 1973.41 782.361 1973.88 781.868 1973.88C779.98 1973.88 778.479 1972.16 778.479 1970.15C778.479 1967.82 775.633 1967.05 774.642 1969.09C773.207 1972.04 770.427 1973.88 767.387 1973.88C764.911 1973.88 752.795 1973.88 750.315 1973.88V1973.88ZM753.856 1986.98V1977.77H767.387C770.566 1977.77 773.607 1976.36 775.815 1973.87C776.54 1975.29 777.67 1976.43 779.029 1977.1V1986.98C779.029 1994.57 773.385 2000.59 766.648 2000.59C758.927 2000.59 753.856 1994 753.856 1986.98ZM758.102 2008.46C760.796 2011.4 759.771 2010.28 762.251 2012.99C760.452 2014.98 761.103 2014.26 758.927 2016.66L753.326 2010.51L758.102 2008.46Z" fill="#D6D6D6"/>
</g>
<path d="M1218.95 1960.73H1152.69C1151.04 1960.73 1149.7 1961.84 1149.7 1963.2V1982.45L1153.01 1980.75C1153.86 1980.32 1154.76 1980.03 1155.68 1979.87V1965.67H1215.96V2001.3H1155.68V1995.54L1149.7 1998.61V2003.77C1149.7 2005.14 1151.04 2006.24 1152.69 2006.24H1218.95C1220.61 2006.24 1221.94 2005.14 1221.94 2003.77V1963.2C1221.94 1961.84 1220.61 1960.73 1218.95 1960.73Z" fill="#EBEBEB"/>
<path d="M1175.48 1974.45C1174.69 1973.62 1173.24 1973.48 1172.25 1974.13L1161.95 1980.84C1162.93 1981.37 1163.79 1982.08 1164.45 1982.96C1164.64 1983.21 1164.8 1983.47 1164.95 1983.73L1175.09 1977.12C1176.09 1976.47 1176.26 1975.27 1175.48 1974.45Z" fill="#EBEBEB"/>
<path d="M1125.76 1971.22C1130.51 1971.22 1134.36 1968.04 1134.36 1964.11C1134.36 1960.18 1130.51 1957 1125.76 1957C1121 1957 1117.15 1960.18 1117.15 1964.11C1117.15 1968.04 1121 1971.22 1125.76 1971.22Z" fill="#EBEBEB"/>
<path d="M1160.92 1984.77C1159.71 1983.16 1157.15 1982.67 1155.21 1983.67L1146.79 1987.98C1146.76 1982.22 1146.78 1985.28 1146.76 1981.57C1146.73 1977.11 1142.32 1973.49 1136.93 1973.49H1132.84C1129.35 1980.97 1130.48 1978.19 1127.51 1984.54L1128.76 1980.06C1128.84 1979.72 1128.78 1979.37 1128.58 1979.07L1126.89 1976.53L1128.39 1974.28C1128.62 1973.95 1128.32 1973.53 1127.86 1973.53H1123.74C1123.28 1973.53 1122.98 1973.95 1123.21 1974.28L1124.71 1976.54L1123.02 1979.08C1122.82 1979.37 1122.76 1979.72 1122.83 1980.05L1123.91 1984.54C1123.33 1983.29 1119.31 1974.67 1118.76 1973.49H1114.59C1109.2 1973.49 1104.79 1977.11 1104.76 1981.57L1104.61 2006.77C1104.59 2008.66 1106.44 2010.21 1108.74 2010.22C1108.75 2010.22 1108.75 2010.22 1108.76 2010.22C1111.04 2010.22 1112.9 2008.69 1112.91 2006.8L1113.07 1981.6C1113.07 1981.6 1113.07 1981.59 1113.07 1981.59C1113.07 1981.21 1113.44 1980.91 1113.9 1980.92C1114.35 1980.92 1114.71 1981.22 1114.71 1981.6L1114.71 2017.31C1118.52 2017.17 1122.04 2018.31 1124.68 2020.3V2006.37H1126.83V2022.35C1128.35 2024.19 1129.24 2026.41 1129.24 2028.8C1129.24 2030.97 1128.5 2033.01 1127.22 2034.75C1128.53 2034.75 1129.81 2034.9 1131.02 2035.16C1132.66 2033.99 1134.63 2033.13 1136.8 2032.68C1136.8 1970.49 1136.71 2008.94 1136.71 1981.6C1136.71 1981.21 1137.1 1980.89 1137.58 1980.89C1138.06 1980.88 1138.45 1981.2 1138.45 1981.6C1138.46 1984.01 1138.51 1991.53 1138.53 1994.15C1138.53 1995.39 1139.35 1996.53 1140.67 1997.13C1141.98 1997.73 1143.59 1997.7 1144.87 1997.04L1159.59 1989.5C1161.54 1988.5 1162.13 1986.38 1160.92 1984.77Z" fill="#EBEBEB"/>
<path d="M1208.69 2036.41C1213.72 2036.41 1217.8 2033.04 1217.8 2028.88C1217.8 2024.72 1213.72 2021.35 1208.69 2021.35C1203.66 2021.35 1199.58 2024.72 1199.58 2028.88C1199.58 2033.04 1203.66 2036.41 1208.69 2036.41Z" fill="#EBEBEB"/>
<path d="M1230.85 2047.36C1230.82 2042.64 1226.16 2038.81 1220.45 2038.81C1217.99 2038.81 1199.81 2038.81 1197.6 2038.81C1198.58 2040.38 1199.14 2042.16 1199.14 2044.05C1199.14 2046.05 1198.49 2048.15 1197.12 2050.01C1202.21 2050.18 1206.67 2052.44 1209.28 2055.78H1220.22V2047.44C1220.22 2047.03 1220.62 2046.7 1221.11 2046.68C1221.61 2046.67 1222.03 2046.98 1222.06 2047.39C1222.06 2047.39 1222.06 2047.39 1222.06 2047.39L1222.11 2055.78H1230.91L1230.85 2047.36Z" fill="#EBEBEB"/>
<path d="M1171.29 2044.05C1171.29 2042.13 1171.87 2040.32 1172.88 2038.72C1166.95 2038.72 1159.98 2038.72 1152.59 2038.72C1153.53 2040.27 1154.06 2042.01 1154.06 2043.85C1154.06 2046.01 1153.32 2048.06 1152.04 2049.8C1156.24 2049.82 1160.11 2051.26 1162.9 2053.65C1165.61 2051.46 1169.31 2050.1 1173.37 2050.09C1171.96 2048.2 1171.29 2046.09 1171.29 2044.05Z" fill="#EBEBEB"/>
<path d="M1164.38 2021.27C1159.35 2021.27 1155.27 2024.64 1155.27 2028.8C1155.27 2032.94 1159.34 2036.32 1164.38 2036.32C1169.37 2036.32 1173.49 2032.99 1173.49 2028.8C1173.49 2024.64 1169.42 2021.27 1164.38 2021.27Z" fill="#EBEBEB"/>
<path d="M1126.21 2043.85C1126.21 2042.01 1126.74 2040.28 1127.67 2038.73C1127.28 2038.72 1128.93 2038.72 1103.55 2038.72C1097.87 2038.72 1093.18 2042.54 1093.15 2047.27L1093.1 2055.78C1097.11 2055.78 1097.92 2055.78 1101.89 2055.78L1101.94 2047.31C1101.94 2046.89 1102.35 2046.55 1102.86 2046.55C1103.37 2046.56 1103.78 2046.9 1103.78 2047.31V2055.78H1116.1C1118.76 2052.27 1123.33 2050.07 1128.3 2049.9C1126.95 2048.1 1126.21 2046.03 1126.21 2043.85Z" fill="#EBEBEB"/>
<path d="M1115.31 2021.27C1110.28 2021.27 1106.2 2024.64 1106.2 2028.8C1106.2 2032.94 1110.26 2036.32 1115.31 2036.32C1120.31 2036.32 1124.42 2032.98 1124.42 2028.8C1124.42 2024.64 1120.35 2021.27 1115.31 2021.27Z" fill="#EBEBEB"/>
<path d="M1206.89 2062.5C1206.86 2057.78 1202.19 2053.94 1196.48 2053.94C1195.88 2053.94 1174.12 2053.94 1173.44 2053.94C1167.73 2053.94 1162.76 2057.78 1162.73 2062.5L1162.66 2062.3C1162.63 2057.6 1157.99 2053.75 1152.26 2053.75C1145.64 2053.75 1136.14 2053.75 1129.21 2053.75C1123.5 2053.75 1118.54 2057.58 1118.51 2062.3L1118.46 2071H1127.25L1127.3 2062.33C1127.3 2061.97 1127.66 2061.68 1128.09 2061.68C1128.53 2061.68 1128.88 2061.98 1128.88 2062.34V2071C1134.04 2071 1147.34 2071 1152.17 2071V2062.34C1152.17 2061.95 1152.55 2061.64 1153.02 2061.64C1153.48 2061.63 1153.86 2061.95 1153.87 2062.33L1153.92 2071C1155.72 2071 1169.62 2071 1171.47 2071L1171.53 2062.53C1171.53 2062.53 1171.53 2062.53 1171.53 2062.53C1171.53 2062.17 1171.88 2061.88 1172.32 2061.88C1172.76 2061.88 1173.11 2062.17 1173.11 2062.54V2071C1178.26 2071 1191.57 2071 1196.4 2071V2062.54C1196.4 2062.15 1196.77 2061.84 1197.24 2061.83C1197.71 2061.83 1198.09 2062.15 1198.09 2062.53L1198.14 2071H1206.94L1206.89 2062.5Z" fill="#EBEBEB"/>
<path d="M1140.42 2051.44C1145.51 2051.44 1149.64 2048.03 1149.64 2043.82C1149.64 2039.62 1145.51 2036.21 1140.42 2036.21C1135.33 2036.21 1131.2 2039.62 1131.2 2043.82C1131.2 2048.03 1135.33 2051.44 1140.42 2051.44Z" fill="#EBEBEB"/>
<path d="M1185.2 2051.63C1190.29 2051.63 1194.42 2048.22 1194.42 2044.02C1194.42 2039.81 1190.29 2036.4 1185.2 2036.4C1180.11 2036.4 1175.98 2039.81 1175.98 2044.02C1175.98 2048.22 1180.11 2051.63 1185.2 2051.63Z" fill="#EBEBEB"/>
<defs>
<clipPath id="clip0">
<rect width="139" height="118" fill="white" transform="translate(1501 1943)"/>
</clipPath>
<clipPath id="clip1">
<rect width="121" height="133" fill="white" transform="translate(728 1937)"/>
</clipPath>
</defs>
</svg>
