<svg width="208" height="115" viewBox="0 0 208 115" fill="none" xmlns="http://www.w3.org/2000/svg">
<path d="M25.0603 114.369C38.9007 114.369 50.1206 103.189 50.1206 89.3975C50.1206 75.606 38.9007 64.4258 25.0603 64.4258C11.2199 64.4258 0 75.606 0 89.3975C0 103.189 11.2199 114.369 25.0603 114.369Z" fill="url(#paint0_linear)" fill-opacity="0.52"/>
<path fill-rule="evenodd" clip-rule="evenodd" d="M44.9063 12.1864C41.96 16.1853 37.4157 18.9423 32.2109 19.5232C32.0788 19.538 31.9462 19.5513 31.8132 19.5632C22.6801 20.5826 15.5803 28.303 15.5803 37.676C15.5803 47.7425 23.7697 55.9029 33.8719 55.9029C35.6823 55.9029 37.4313 55.6408 39.0827 55.1526C39.2491 55.0982 39.4163 55.0462 39.5848 54.9964C39.925 54.885 40.2606 54.7638 40.5915 54.6335C41.6036 54.2365 43.682 54.1095 44.8042 54.1095C54.1289 54.1095 61.824 61.0622 62.9532 70.049L62.9478 69.9792C64.3081 87.7837 79.2366 101.808 97.4525 101.808C116.565 101.808 132.058 86.3694 132.058 67.3248C132.058 39.4428 104.329 33.5186 104.819 33.6243C98.5154 31.873 93.5842 26.8417 91.9944 20.4926C91.9691 20.3681 91.9428 20.2439 91.9156 20.1202C91.8986 20.0467 91.8821 19.973 91.8661 19.8991C89.2593 8.50369 79.0272 0 66.8016 0C58.1644 0 50.5222 4.24433 45.8609 10.7543C45.5649 11.2471 45.2463 11.7251 44.9063 12.1864V12.1864Z" fill="url(#paint1_linear)" fill-opacity="0.42"/>
<path d="M50.2218 64.3116L42.6596 92.8053H35.5194L30.7751 74.5262C30.5233 73.5699 30.3735 72.5049 30.319 71.3248H30.2374C30.1148 72.6203 29.9447 73.692 29.7201 74.5262L24.8533 92.8053H17.4135L9.89893 64.3116H16.9371L20.9666 83.2894C21.1368 84.0964 21.2661 85.1818 21.341 86.545H21.4635C21.518 85.5276 21.7086 84.4153 22.0421 83.208L27.2288 64.3116H34.1239L38.8138 83.4454C38.9839 84.1508 39.1405 85.1682 39.2698 86.5043H39.3515C39.4059 85.4599 39.5421 84.4017 39.7667 83.3301L43.7214 64.3116H50.2218V64.3116ZM70.9958 92.8053H53.8429V64.3116H70.3355V69.5342H60.2889V75.8759H69.6413V81.0782H60.2889V87.5964H70.9958V92.8053ZM92.607 92.8053H75.5767V64.3116H82.0227V87.5964H92.607V92.8053V92.8053ZM115.94 91.7947C113.858 92.7985 111.128 93.3005 107.766 93.3005C103.382 93.3005 99.931 92.0186 97.4194 89.448C94.9008 86.8774 93.6485 83.4522 93.6485 79.1723C93.6485 74.6144 95.0574 70.9179 97.8821 68.0828C100.707 65.2475 104.376 63.8301 108.882 63.8301C111.673 63.8301 114.028 64.1828 115.94 64.8882V71.0671C114.028 69.9276 111.85 69.3579 109.399 69.3579C106.717 69.3579 104.546 70.1989 102.899 71.8809C101.251 73.5631 100.428 75.8421 100.428 78.7178C100.428 81.4716 101.204 83.6692 102.763 85.3038C104.315 86.9384 106.411 87.7591 109.045 87.7591C111.557 87.7591 113.858 87.1487 115.94 85.9278V91.7947ZM132.515 93.3005C128.417 93.3005 125.082 91.9711 122.502 89.3191C119.922 86.6604 118.636 83.2012 118.636 78.9349C118.636 74.4313 119.943 70.789 122.563 68.0081C125.184 65.2273 128.648 63.8301 132.971 63.8301C137.055 63.8301 140.356 65.1662 142.874 67.8249C145.393 70.4906 146.652 74.0039 146.652 78.3584C146.652 82.8349 145.345 86.4501 142.731 89.1902C140.124 91.9305 136.714 93.3005 132.515 93.3005ZM132.794 69.3579C130.534 69.3579 128.737 70.1989 127.41 71.8945C126.082 73.5834 125.415 75.8149 125.415 78.5958C125.415 81.4173 126.082 83.6488 127.41 85.297C128.737 86.9384 130.479 87.7591 132.63 87.7591C134.856 87.7591 136.612 86.9587 137.919 85.3649C139.219 83.7641 139.873 81.5531 139.873 78.7178C139.873 75.7607 139.24 73.4613 137.98 71.8199C136.714 70.1785 134.985 69.3579 132.794 69.3579V69.3579ZM183.987 92.8053H177.622V75.7539C177.622 73.9158 177.704 71.881 177.861 69.6563H177.704C177.371 71.4062 177.071 72.6611 176.806 73.4343L170.108 92.8053H164.839L158.019 73.6309C157.835 73.1154 157.536 71.7861 157.121 69.6563H156.944C157.114 72.4643 157.202 74.9264 157.202 77.0494V92.8053H151.396V64.3116H160.83L166.677 81.2003C167.14 82.55 167.48 83.9065 167.692 85.2767H167.814C168.168 83.6963 168.549 82.3263 168.951 81.1596L174.791 64.3116H183.987V92.8053V92.8053ZM207.633 92.8053H190.48V64.3116H206.973V69.5342H196.926V75.8759H206.279V81.0782H196.926V87.5964H207.633V92.8053Z" fill="#D9D7D7" fill-opacity="0.65"/>
<defs>
<linearGradient id="paint0_linear" x1="56.5" y1="43" x2="4" y2="110.5" gradientUnits="userSpaceOnUse">
<stop stop-color="#868686"/>
<stop offset="1" stop-color="#B8B8B8" stop-opacity="0"/>
</linearGradient>
<linearGradient id="paint1_linear" x1="29" y1="10" x2="146.5" y2="132.5" gradientUnits="userSpaceOnUse">
<stop stop-color="#9E9E9E"/>
<stop offset="1" stop-color="#E6E6E6" stop-opacity="0"/>
</linearGradient>
</defs>
</svg>
