<svg width="372" height="292" viewBox="0 0 372 292" fill="none" xmlns="http://www.w3.org/2000/svg">
<path fill-rule="evenodd" clip-rule="evenodd" d="M13.799 0.141113C-30.119 93.5708 45.0907 183.014 114.73 186.943C167.379 189.913 172.531 209.756 177.097 226.679C196.04 296.884 323.793 330.412 372 223.576V0.141113H13.799Z" fill="#2E3647"/>
<path fill-rule="evenodd" clip-rule="evenodd" d="M310.018 202.563C314.941 190.166 324.846 179.919 337.937 174.889C338.269 174.761 338.604 174.637 338.94 174.516C361.912 165.689 375.072 140.8 368.718 116.411C361.893 90.2171 335.142 74.5202 308.968 81.3502C304.278 82.5741 299.924 84.4387 295.976 86.8254C295.582 87.0796 295.184 87.3283 294.781 87.5715C293.976 88.0913 293.188 88.6337 292.419 89.1965C290.066 90.9139 284.767 92.6493 281.86 93.4083C257.7 99.7127 233.049 86.8239 224.03 64.2033L224.092 64.3811C208.496 18.9729 160.309 -7.42671 113.113 4.88911C63.5956 17.8108 33.9206 68.4582 46.8326 118.013C65.7363 190.564 141.597 187.232 140.256 187.288C157.775 187.583 173.962 197.34 182.386 212.786C182.536 213.093 182.688 213.398 182.843 213.702C182.936 213.882 183.029 214.062 183.121 214.244C197.601 242.133 229.877 257.342 261.552 249.076C283.93 243.237 300.853 227.026 308.516 206.935C308.949 205.452 309.45 203.993 310.018 202.563Z" fill="#34C16F"/>
<path fill-rule="evenodd" clip-rule="evenodd" d="M118.571 14.6064L102.627 74.9425H87.5721L77.5694 36.2361C77.0383 34.2113 76.7225 31.9562 76.6078 29.457H76.4356C76.177 32.2005 75.8185 34.4698 75.3445 36.2361L65.0832 74.9425H49.3972L47.6436 68.264C49.6195 61.615 52.3328 55.226 55.7086 49.2119L56.8886 54.7921C57.2474 56.5012 57.5198 58.7994 57.6779 61.6863H57.9358C58.0509 59.5318 58.4528 57.1764 59.1561 54.6198L64.0152 36.84C69.983 29.3297 77.1381 22.7148 85.2897 17.308L94.5186 55.1226C94.8771 56.6164 95.2074 58.7705 95.4798 61.6001H95.652C95.7667 59.3885 96.0539 57.1479 96.5275 54.8786L104.866 14.6064H118.571V14.6064ZM229.801 74.7C227.49 71.503 225.541 67.9907 224.031 64.2038L224.092 64.3816C220.901 55.0905 216.344 46.596 210.712 39.0662C210.327 41.2845 210.135 43.6203 210.135 46.0743C210.135 55.1371 212.776 62.3897 218.085 67.8332C221.274 71.1106 225.18 73.3978 229.801 74.7V74.7ZM185.622 16.0007C184.861 15.5245 184.091 15.0608 183.315 14.6064H172.031V74.9425H207.939V63.9124H185.622V16.0007V16.0007ZM162.373 74.9425H126.207V14.6064H160.981V25.6655H139.797V39.0944H159.517V50.1103H139.797V63.9124H162.373V74.9425Z" fill="#006C8A" fill-opacity="0.129412"/>
<path fill-rule="evenodd" clip-rule="evenodd" d="M255.057 92.8182C247.964 90.6195 241.445 86.8311 236.023 81.7592H233.626V142.095H269.792V131.065H247.217V117.263H266.936V106.247H247.217V92.8182H255.057ZM44.3034 85.1082C43.6021 91.9092 43.6518 98.861 44.512 105.855C45.3311 102.682 46.8151 99.9921 48.9648 97.7875C52.4381 94.2258 57.0162 92.4446 62.6709 92.4446C67.8376 92.4446 72.4298 93.6517 76.4627 96.0638V82.9804C72.4298 81.4866 67.4643 80.7397 61.5802 80.7397C54.9632 80.7397 49.2028 82.1959 44.3034 85.1082V85.1082ZM49.6599 127.166C51.7642 133.025 54.2677 138.317 57.0808 143.094C57.7837 143.127 58.4987 143.144 59.2262 143.144C66.316 143.144 72.0709 142.081 76.4627 139.955V127.532C72.0709 130.117 67.2204 131.41 61.9246 131.41C56.9074 131.41 52.8162 129.992 49.6599 127.166V127.166ZM111.408 143.144C102.769 143.144 95.737 140.329 90.2975 134.713C84.8581 129.083 82.1456 121.758 82.1456 112.725C82.1456 103.188 84.9015 95.4752 90.4267 89.5867C95.9522 83.6983 103.257 80.7397 112.37 80.7397C120.981 80.7397 127.942 83.569 133.252 89.199C138.562 94.8435 141.217 102.283 141.217 111.504C141.217 120.983 138.461 128.638 132.95 134.44C127.454 140.243 120.264 143.144 111.408 143.144V143.144ZM111.997 92.4446C107.232 92.4446 103.444 94.2258 100.645 97.8165C97.8464 101.393 96.4399 106.118 96.4399 112.006C96.4399 117.981 97.8464 122.706 100.645 126.197C103.444 129.672 107.117 131.41 111.653 131.41C116.345 131.41 120.048 129.715 122.804 126.34C125.545 122.951 126.923 118.268 126.923 112.265C126.923 106.003 125.588 101.134 122.933 97.6586C120.264 94.1828 116.618 92.4446 111.997 92.4446ZM219.935 142.095H206.516V105.989C206.516 102.096 206.688 97.7875 207.019 93.0771H206.688C205.986 96.7821 205.354 99.4395 204.794 101.077L190.672 142.095H179.564L165.184 101.493C164.797 100.402 164.165 97.5866 163.289 93.0771H162.916C163.275 99.0228 163.462 104.236 163.462 108.732V142.095H151.22V81.7592H171.111L183.439 117.522C184.415 120.379 185.133 123.252 185.578 126.154H185.836C186.582 122.807 187.386 119.906 188.233 117.435L200.546 81.7592H219.935V142.095Z" fill="#006C8A" fill-opacity="0.129412"/>
<path fill-rule="evenodd" clip-rule="evenodd" d="M359.303 97.8131L347.601 142.096H332.546L322.543 103.389C322.012 101.364 321.696 99.1094 321.581 96.6103H321.409C321.151 99.3538 320.792 101.623 320.318 103.389L310.057 142.096H294.371L281.602 93.4724L281.86 93.4086C284.768 92.6496 290.066 90.9142 292.419 89.1968C293.136 88.6724 293.869 88.1652 294.617 87.678L301.862 121.945C302.221 123.655 302.494 125.953 302.651 128.84H302.91C303.025 126.685 303.426 124.33 304.13 121.773L315.066 81.7598H329.604L339.492 122.276C339.851 123.77 340.181 125.924 340.454 128.753H340.626C340.741 126.542 341.028 124.301 341.501 122.032L348.541 88.0316C352.568 90.723 356.205 94.0113 359.303 97.8131V97.8131Z" fill="#006C8A" fill-opacity="0.129412"/>
<path fill-rule="evenodd" clip-rule="evenodd" d="M353.591 0.141113C353.37 1.09596 353.194 2.06843 353.071 3.05695L353.079 2.9473C350.944 31.0125 327.513 53.1196 298.921 53.1196C269.384 53.1196 245.354 29.5246 244.623 0.141113H353.591Z" fill="#34C16F"/>
<path fill-rule="evenodd" clip-rule="evenodd" d="M279.886 92.3451C279.886 92.3451 285.157 75.0425 289.656 76.9725C294.154 78.9022 279.886 92.3451 279.886 92.3451Z" fill="#6AE0B3"/>
<path fill-rule="evenodd" clip-rule="evenodd" d="M277.294 98.3379C277.294 98.3379 288.943 89.7816 290.902 93.1721C292.86 96.5626 277.294 98.3379 277.294 98.3379Z" fill="#6AE0B3"/>
<path fill-rule="evenodd" clip-rule="evenodd" d="M277.293 98.3375C277.293 98.3375 269.976 85.0594 273.763 83.4791C277.551 81.8988 277.293 98.3375 277.293 98.3375Z" fill="#6AE0B3"/>
<path fill-rule="evenodd" clip-rule="evenodd" d="M272.327 107.322C272.327 107.322 265.009 94.0433 268.797 92.463C272.584 90.883 272.327 107.322 272.327 107.322Z" fill="#6AE0B3"/>
<path fill-rule="evenodd" clip-rule="evenodd" d="M272.327 107.321C272.327 107.321 284.401 98.1581 286.51 101.681C288.619 105.203 272.327 107.321 272.327 107.321Z" fill="#6AE0B3"/>
<path fill-rule="evenodd" clip-rule="evenodd" d="M267.056 118.256C267.056 118.256 259.183 103.969 263.258 102.269C267.333 100.569 267.056 118.256 267.056 118.256Z" fill="#6AE0B3"/>
<path fill-rule="evenodd" clip-rule="evenodd" d="M267.421 119.427C267.421 119.427 280.769 108.19 283.398 112.117C286.028 116.045 267.421 119.427 267.421 119.427Z" fill="#6AE0B3"/>
<path d="M281.277 90.9288C276.28 99.7409 272.107 108.503 268.617 117.222C267.874 119.08 267.161 120.935 266.479 122.789L265.308 123.343C266.09 121.193 266.911 119.039 267.774 116.884C271.278 108.129 275.469 99.3309 280.488 90.48L281.277 90.9288V90.9288Z" fill="#6AE0B3"/>
<path fill-rule="evenodd" clip-rule="evenodd" d="M196.478 61.6508C195.175 59.1344 194.45 56.2315 194.762 52.98C194.963 50.8863 195.023 49.4799 194.891 48.0562C193.966 46.7109 193.23 45.3718 192.706 44.0406C192.016 42.2852 191.694 40.542 191.788 38.8133C191.913 36.5115 192.879 34.0528 194.435 32.172C195.844 30.4688 197.739 29.2331 199.94 29.0013C203.231 28.6546 205.428 29.754 207.413 30.7476C208.764 31.424 210.014 32.0499 211.423 32.0902C214.047 32.1646 216.667 31.1804 219.253 30.2091C223.875 28.4721 228.394 26.7747 232.871 30.9364C234.119 32.0969 234.793 33.7383 235.488 35.4278C235.89 36.4085 236.301 37.4065 236.832 38.3206C237.95 39.9185 239.415 40.9329 240.775 41.8756C243.761 43.9443 246.274 45.6855 244.164 52.1787C243.746 53.4676 243.158 54.5682 242.447 55.5308C242.165 55.9135 241.863 56.2738 241.545 56.6153C240.679 58.7909 239.489 61.0707 238.057 63.4289L233.667 66.6662L200.058 65.5081L196.478 61.6508V61.6508ZM194.705 46.6596C194.553 45.776 194.332 44.809 194.028 43.6165C193.184 40.2945 194.137 37.372 195.465 35.3711C199.896 28.6973 203.691 30.7864 208.426 31.9104C208.002 31.7189 207.577 31.5066 207.142 31.2889C205.233 30.3333 203.12 29.2758 200.002 29.6044C197.975 29.8174 196.217 30.9697 194.902 32.559C193.427 34.3426 192.511 36.6694 192.393 38.8442C192.303 40.4837 192.611 42.1431 193.271 43.8201C193.641 44.7613 194.122 45.7079 194.705 46.6596V46.6596ZM215.922 32.0099C222.16 30.7688 228.478 27.515 233.294 33.8295C234.015 34.9825 234.773 36.0944 235.568 37.1668C235.342 36.667 235.134 36.1602 234.928 35.6581C234.259 34.0316 233.61 32.4517 232.458 31.3805C228.255 27.4734 223.909 29.1062 219.464 30.7766C218.291 31.2168 217.112 31.6602 215.922 32.0099V32.0099ZM239.451 41.6841C241.342 43.6055 242.862 45.2034 243.096 48.6401C243.228 50.5745 242.891 52.66 242.177 54.8666C242.753 54.0289 243.234 53.0819 243.588 51.9911C245.558 45.9268 243.215 44.3026 240.431 42.3741C240.108 42.1501 239.78 41.9226 239.451 41.6841V41.6841Z" fill="#003823"/>
<path fill-rule="evenodd" clip-rule="evenodd" d="M206.683 37.4307C213.279 37.6399 218.948 36.1821 224.373 36.1861C227.131 36.188 230.225 36.3768 231.86 38.9589C233.4 41.3907 232.237 43.2444 234.777 46.6623C236.172 48.5395 236.559 51.0135 236.634 53.6399C237.095 51.0319 236.683 48.5547 235.119 46.2511C232.484 42.3694 234.393 41.5278 232.514 38.4059C230.725 35.4337 227.483 35.2927 224.406 35.3405C218.288 35.436 214.016 36.994 206.683 37.4307V37.4307Z" fill="white"/>
<path fill-rule="evenodd" clip-rule="evenodd" d="M226.98 94.5129C227.042 94.2407 227.092 93.9602 227.128 93.672C227.488 90.7863 226.741 89.9924 225.81 87.5478C225.099 85.6827 224.755 83.9994 224.875 82.4414L222.706 78.4031L211.716 78.0679L226.98 94.5129V94.5129Z" fill="#FF9966"/>
<path fill-rule="evenodd" clip-rule="evenodd" d="M220.264 87.2775C221.876 86.8255 223.472 86.0622 225.053 84.9942C224.877 84.1036 224.812 83.2553 224.875 82.4414L222.706 78.4031L211.716 78.0679L220.264 87.2775V87.2775Z" fill="#C97246"/>
<path fill-rule="evenodd" clip-rule="evenodd" d="M199.327 60.2064C199.957 59.9197 199.985 59.9659 200.326 59.9217C200.561 52.6139 205.128 50.9169 207.137 46.4043C217.656 56.9741 227.34 49.9851 230.211 64.8001L230.235 65.2407C230.862 61.6912 233.331 59.1012 235.797 60.2225C238.263 61.3442 238.856 65.1146 237.458 68.6641C236.095 72.1247 233.083 74.0818 230.647 73.1383C228.484 80.2142 223.743 84.5768 218.642 85.5309L198.952 66.1944L197.248 62.48C197.686 61.444 198.697 60.4931 199.327 60.2064V60.2064Z" fill="#FF9966"/>
<path fill-rule="evenodd" clip-rule="evenodd" d="M200.326 59.9217C201.95 53.8045 204.911 53.4195 207.572 49.897C214.09 57.3732 225.75 52.9499 230.211 64.8001C227.34 49.9851 217.656 56.9741 207.137 46.4043C205.128 50.9169 200.561 52.6139 200.326 59.9217V59.9217Z" fill="#C97246"/>
<path fill-rule="evenodd" clip-rule="evenodd" d="M135.807 156.634C133.713 157.01 133.603 163.362 130.482 164.852C127.189 166.424 119.075 149.053 110.729 152.506L124.223 175.996C130.921 179.003 137.72 182.406 144.643 186.281L135.859 156.78L135.807 156.634V156.634ZM74.6917 164.182C77.7776 166.828 80.9648 169.17 84.195 171.246C90.2626 172.209 95.9056 170.672 97.518 175.551C97.7739 176.326 97.3423 177.107 96.7795 178.017C99.6904 179.312 102.575 180.426 105.394 181.386L122.596 176.265C118.809 174.59 115.053 173.04 111.328 171.603C99.1409 166.902 87.257 163.401 75.5539 160.614L75.4396 160.59C74.8659 161.754 74.5954 162.987 74.6917 164.182V164.182ZM106.897 181.887C125.559 187.933 140.863 187.262 140.254 187.287C141.276 187.305 142.293 187.355 143.305 187.436L144.278 187.117C137.36 183.241 130.564 179.839 123.872 176.835L106.897 181.887V181.887ZM147.628 187.977C149.579 188.311 151.5 188.763 153.383 189.326C149.896 175.94 145.983 159.424 136.809 156.783L145.784 186.923C146.398 187.27 147.012 187.622 147.628 187.977ZM109.923 152.924C105.641 155.82 111.407 166.47 92.2507 156.552C85.0114 152.804 78.527 155.644 75.9049 159.761C87.5885 162.549 99.4626 166.053 111.655 170.756C115.347 172.18 119.066 173.713 122.818 175.37L109.923 152.924Z" fill="#006C8A"/>
<path fill-rule="evenodd" clip-rule="evenodd" d="M112.933 118.664C112.933 118.664 101.351 104.777 97.9563 108.306C94.562 111.836 112.933 118.664 112.933 118.664Z" fill="#6AE0B3"/>
<path fill-rule="evenodd" clip-rule="evenodd" d="M118.001 123.016C118.001 123.016 103.943 119.67 103.457 123.556C102.971 127.442 118.001 123.016 118.001 123.016Z" fill="#6AE0B3"/>
<path fill-rule="evenodd" clip-rule="evenodd" d="M118.001 123.015C118.001 123.015 119.58 107.934 115.476 107.953C111.373 107.972 118.001 123.015 118.001 123.015Z" fill="#6AE0B3"/>
<path fill-rule="evenodd" clip-rule="evenodd" d="M125.324 129.707C125.324 129.707 126.903 114.626 122.8 114.645C118.696 114.664 125.324 129.707 125.324 129.707Z" fill="#6AE0B3"/>
<path fill-rule="evenodd" clip-rule="evenodd" d="M125.324 129.706C125.324 129.706 110.64 125.966 110.066 130.033C109.493 134.099 125.324 129.706 125.324 129.706Z" fill="#6AE0B3"/>
<path fill-rule="evenodd" clip-rule="evenodd" d="M134.516 138.858C134.516 138.858 136.215 122.632 131.8 122.652C127.385 122.673 134.516 138.858 134.516 138.858Z" fill="#6AE0B3"/>
<path fill-rule="evenodd" clip-rule="evenodd" d="M134.517 138.858C134.517 138.858 117.852 133.704 116.956 138.345C116.061 142.986 134.517 138.858 134.517 138.858Z" fill="#6AE0B3"/>
<path fill-rule="evenodd" clip-rule="evenodd" d="M142.817 147.73C142.817 147.73 126.152 142.576 125.257 147.217C124.361 151.858 142.817 147.73 142.817 147.73Z" fill="#6AE0B3"/>
<path fill-rule="evenodd" clip-rule="evenodd" d="M142.817 147.73C142.817 147.73 146.155 130.597 141.448 130.203C136.741 129.808 142.817 147.73 142.817 147.73Z" fill="#6AE0B3"/>
<path fill-rule="evenodd" clip-rule="evenodd" d="M153.177 159.417C153.177 159.417 135.132 151.993 133.666 157.073C132.201 162.154 153.177 159.417 153.177 159.417Z" fill="#6AE0B3"/>
<path fill-rule="evenodd" clip-rule="evenodd" d="M153.177 159.418C153.177 159.418 158.179 140.545 152.955 139.753C147.73 138.962 153.177 159.418 153.177 159.418Z" fill="#6AE0B3"/>
<path d="M111.706 117.25C118.97 122.834 127.294 130.701 135.247 138.961C144.953 149.041 154.112 159.711 160.119 167.526L159.4 168.082C153.412 160.291 144.276 149.649 134.592 139.592C126.669 131.363 118.381 123.527 111.155 117.972L111.706 117.25V117.25Z" fill="#6AE0B3"/>
<path fill-rule="evenodd" clip-rule="evenodd" d="M162.701 169.514C162.701 169.514 144.656 162.091 143.191 167.171C141.725 172.252 162.701 169.514 162.701 169.514Z" fill="#6AE0B3"/>
<path fill-rule="evenodd" clip-rule="evenodd" d="M354.928 161.328L339.05 161.684L338.861 161.956L331.89 171.925C339.29 168.945 346.981 165.39 354.928 161.328ZM315.411 192.541C318.078 188.72 321.292 185.271 324.977 182.322L316.852 178.244C313.244 179.345 309.721 180.28 306.285 181.038C291.459 184.311 278.274 184.305 267.116 180.245C280.462 198.594 296.873 201.074 315.411 192.541V192.541ZM325.767 181.703C329.408 178.91 333.488 176.598 337.935 174.889C338.268 174.761 338.602 174.637 338.939 174.516C341.179 173.655 343.325 172.639 345.37 171.488C348.521 168.636 351.712 165.583 354.938 162.344C341.929 168.971 329.6 174.244 318.103 177.856L325.767 181.703V181.703ZM337.926 161.709L315.369 162.214L315.272 162.429L306.301 180.105C313.898 178.413 321.934 175.855 330.355 172.537L337.926 161.709ZM314.351 162.236L306.106 162.421L299.234 172.064L301.31 163.134C297.566 163.075 294.061 163.457 290.68 164.268L290.519 164.61L281.624 182.321C288.87 182.845 296.737 182.141 305.155 180.353L314.351 162.236V162.236ZM289.528 164.562C280.935 166.882 273.487 171.947 266.957 179.215C271.219 180.819 275.791 181.813 280.648 182.242L289.528 164.562Z" fill="#055E3C"/>
<path fill-rule="evenodd" clip-rule="evenodd" d="M139.017 71.882L143.443 90.7443L143.756 90.8637L156.818 96.7847C151.589 88.6857 145.625 80.3765 139.017 71.882ZM143.702 91.835L149.935 118.399L150.18 118.479L172.256 124.867C168.457 116.276 163.567 107.372 157.721 98.1931L143.702 91.835ZM150.173 119.423L152.459 129.165L164.928 134.954L154.452 134.633C155.325 139.064 156.647 143.141 158.407 146.935L158.79 147.051L180.84 153.327C179.621 144.63 176.856 135.486 172.729 125.95L150.173 119.423ZM158.933 148.039C163.673 157.656 171.221 165.253 181.022 171.23C181.752 165.806 181.716 160.161 180.972 154.312L158.933 148.039ZM181.988 170.853C203.383 145.91 196.162 121.216 171.211 96.6762L167.35 112.786C169.486 116.776 171.414 120.707 173.122 124.576C180.483 141.249 183.761 156.766 181.988 170.853ZM170.446 95.9254C162.088 87.8229 151.807 79.7373 139.998 71.665C150.736 85.4969 159.768 98.8424 166.704 111.589L170.394 96.1929L170.446 95.9254Z" fill="#055E3C"/>
<path fill-rule="evenodd" clip-rule="evenodd" d="M216.261 213.802C251.812 213.802 283.449 215.046 303.725 216.98C301.511 220.801 298.93 224.41 296.019 227.75C275.866 229.303 247.583 230.268 216.261 230.268C208.812 230.268 201.537 230.214 194.5 230.109C190.03 225.453 186.177 220.132 183.119 214.244L183.086 214.178C193.56 213.934 204.703 213.802 216.261 213.802Z" fill="#2E3647"/>
<path fill-rule="evenodd" clip-rule="evenodd" d="M217.586 210.775L215.463 221.401L221.829 222.675L225.621 222.032L226.585 211.162L217.586 210.775Z" fill="white"/>
<path fill-rule="evenodd" clip-rule="evenodd" d="M223.693 211.934C222.766 210.998 222.917 209.275 225.042 209.169L231.92 208.847C239.847 206.828 245.652 207.156 249.466 209.683C252.19 211.829 252.655 214.634 251.266 217.98C249.303 224.036 242.42 225.205 233.27 224.946C230.063 224.855 226.464 224.983 222.857 224.541C220.903 224.168 220.543 221.934 222.857 221.518C220.311 219.626 220.068 213.237 223.693 211.934Z" fill="#006C8A"/>
<path fill-rule="evenodd" clip-rule="evenodd" d="M180.475 209.585H307.439C307.815 208.709 308.175 207.826 308.515 206.934C308.948 205.451 309.449 203.992 310.017 202.562C311.203 199.576 312.679 196.716 314.417 194.022C309.575 187.828 304.767 182.389 287.735 189.002L228.475 165.976L163.864 163.381C149.565 167.95 153.063 179.45 141.148 183.907C138.597 184.861 136.849 185.99 135.49 187.192C138.692 187.354 140.469 187.277 140.254 187.286C156.531 187.561 171.655 196.003 180.475 209.585V209.585Z" fill="#008A55"/>
<path fill-rule="evenodd" clip-rule="evenodd" d="M265.172 130.713C268.466 132.285 269.116 136.171 272.624 136.726C276.227 137.295 279.065 118.333 288.046 119.264L281.79 145.628C276.226 150.417 270.675 155.616 265.141 161.304L265.172 130.713V130.713ZM264.232 162.242C263.265 163.245 262.299 164.262 261.334 165.296L261.996 165.916C262.954 164.89 263.913 163.88 264.873 162.884L295.284 163.745C293.694 166.121 288.899 168.062 281.586 169.621L265.232 174.514L257.777 174.128L262.405 137.208L264.263 131.834L264.232 162.242V162.242ZM265.728 161.999C271.258 156.314 276.806 151.116 282.368 146.328L311.611 146.344C311.104 148.622 308.551 150.016 304.307 150.858C301.237 151.467 293.755 151.596 292.403 154.212C291.046 156.836 295.87 158.935 295.867 161.908C295.867 162.222 295.815 162.529 295.718 162.837L295.556 162.844L265.728 161.999V161.999ZM288.941 119.436C293.867 120.995 291.371 132.842 306.913 117.879C312.788 112.224 319.812 113.101 323.496 116.302C313.082 122.307 302.694 129.048 292.35 137.023C289.218 139.438 286.089 141.967 282.964 144.624L288.941 119.436V119.436ZM283.428 145.421C286.583 142.736 289.742 140.181 292.905 137.742C303.259 129.758 313.655 123.017 324.074 117.017L324.186 116.973C326.318 119.284 326.855 122.491 324.492 125.372C318.322 132.898 307.482 130.573 307.267 137.594C307.199 139.787 311.915 140.607 311.715 145.435L311.683 145.436L283.428 145.421V145.421Z" fill="#006C8A"/>
<path fill-rule="evenodd" clip-rule="evenodd" d="M277.292 98.3368C277.292 98.3368 288.942 89.7801 290.9 93.1706C292.858 96.5611 277.292 98.3368 277.292 98.3368Z" fill="#6AE0B3"/>
<path fill-rule="evenodd" clip-rule="evenodd" d="M277.292 98.3363C277.292 98.3363 276.424 96.7623 275.442 94.6341C276.036 94.5604 276.632 94.4774 277.228 94.3818C277.318 96.6358 277.292 98.3363 277.292 98.3363Z" fill="#6AE0B3"/>
<path fill-rule="evenodd" clip-rule="evenodd" d="M272.325 107.32C272.325 107.32 267.896 99.2832 267.714 94.9711C268.879 95.013 270.05 95.013 271.226 94.9707C272.451 99.2605 272.325 107.32 272.325 107.32Z" fill="#6AE0B3"/>
<path fill-rule="evenodd" clip-rule="evenodd" d="M272.325 107.319C272.325 107.319 284.399 98.1567 286.508 101.679C288.617 105.202 272.325 107.319 272.325 107.319Z" fill="#6AE0B3"/>
<path fill-rule="evenodd" clip-rule="evenodd" d="M267.055 118.254C267.055 118.254 259.181 103.967 263.257 102.267C267.331 100.567 267.055 118.254 267.055 118.254Z" fill="#6AE0B3"/>
<path fill-rule="evenodd" clip-rule="evenodd" d="M267.419 119.425C267.419 119.425 280.767 108.189 283.396 112.116C286.026 116.043 267.419 119.425 267.419 119.425Z" fill="#6AE0B3"/>
<path fill-rule="evenodd" clip-rule="evenodd" d="M262.705 130.858C262.705 130.858 276.053 119.622 278.682 123.549C281.312 127.476 262.705 130.858 262.705 130.858Z" fill="#6AE0B3"/>
<path fill-rule="evenodd" clip-rule="evenodd" d="M259.62 143.144C259.62 143.144 272.967 131.907 275.597 135.834C278.226 139.761 259.62 143.144 259.62 143.144Z" fill="#6AE0B3"/>
<path d="M279.597 93.9419C275.336 101.739 271.707 109.497 268.615 117.222C265.125 125.942 262.319 134.618 260.059 143.258L259.18 143.03C261.451 134.35 264.268 125.637 267.772 116.883C270.788 109.347 274.313 101.779 278.437 94.173C278.824 94.1009 279.21 94.0237 279.597 93.9419V93.9419Z" fill="#6AE0B3"/>
<path fill-rule="evenodd" clip-rule="evenodd" d="M259.605 120.954L262.975 124.705C275.049 145.077 270.325 164.418 254.548 181.232L233.896 159.289L252.149 144.11L243.304 125.422L259.605 120.954V120.954Z" fill="#FF9966"/>
<path fill-rule="evenodd" clip-rule="evenodd" d="M172.117 120.713L168.747 124.464C156.672 144.836 158.694 164.087 176.785 182.058L197.826 159.048L179.572 143.868L188.417 125.181L172.117 120.713Z" fill="#FF9966"/>
<path fill-rule="evenodd" clip-rule="evenodd" d="M227.854 90.1264C256.112 89.9067 261.111 115.357 265.042 123.469L244.738 135.615L246.385 112.223C247.051 97.8462 240.714 90.6446 227.854 90.1264V90.1264Z" fill="#006C8A"/>
<path fill-rule="evenodd" clip-rule="evenodd" d="M204.483 89.6049C176.226 89.3852 170.617 115.189 166.685 123.301L187.128 134.827L184.94 108.878C185.674 96.8446 191.841 90.7289 202.701 89.7232L202.74 89.7201C202.896 89.7056 203.052 89.6927 203.21 89.6801L203.38 89.6676C203.497 89.6594 203.616 89.6515 203.734 89.6441L203.991 89.6292C204.093 89.6233 204.196 89.6186 204.298 89.6139C204.36 89.6108 204.421 89.6073 204.483 89.6049Z" fill="#006C8A"/>
<path fill-rule="evenodd" clip-rule="evenodd" d="M199.1 65.4746C196.298 62.2486 194.275 58.0349 194.761 52.9791C194.963 50.8857 195.022 49.4793 194.89 48.0556C193.965 46.7103 193.229 45.3717 192.706 44.0404C192.015 42.2847 191.693 40.5414 191.787 38.8127C191.912 36.511 192.878 34.0522 194.434 32.1711C195.843 30.4682 197.739 29.2326 199.939 29.0007C200.655 28.9255 201.319 28.9185 201.94 28.9639C202.17 29.193 202.4 29.4209 202.628 29.6524C201.832 29.533 200.965 29.502 200.001 29.6035C197.974 29.8169 196.216 30.9691 194.901 32.5585C193.426 34.3416 192.51 36.6688 192.392 38.8436C192.303 40.4831 192.611 42.1425 193.27 43.8196C193.64 44.7607 194.121 45.7073 194.704 46.659C194.552 45.7755 194.33 44.8085 194.027 43.6155C193.183 40.2939 194.136 37.3718 195.464 35.3705C198.343 31.0341 200.954 30.3977 203.728 30.7921C212.625 40.1612 219.669 51.5065 224.091 64.3812L224.03 64.2034C224.321 64.9346 224.63 65.6548 224.953 66.3653L199.1 65.4746V65.4746Z" fill="#003823"/>
<path fill-rule="evenodd" clip-rule="evenodd" d="M188.411 150.043L184.94 108.878C185.73 95.9329 192.806 89.8345 205.251 89.5815L226.589 90.0966C240.298 90.1866 247.073 97.3812 246.385 112.222L243.686 150.558L188.411 150.043Z" fill="#02FF67"/>
<path fill-rule="evenodd" clip-rule="evenodd" d="M175.087 136.214H256.277C257.697 136.214 259.002 137.385 258.859 138.798L253.566 190.984C253.423 192.398 252.404 193.568 250.985 193.568H180.25C178.831 193.568 177.809 192.398 177.669 190.984L172.506 138.798C172.366 137.384 173.667 136.214 175.087 136.214Z" fill="#B3B3B3"/>
<path fill-rule="evenodd" clip-rule="evenodd" d="M179.186 174.131L169.636 173.766C161.398 172.253 153.122 171.163 144.8 170.593C134.561 169.91 129.312 178.765 133.395 187.065C137.902 187.39 140.513 187.277 140.255 187.288C157.774 187.583 173.961 197.341 182.385 212.787L182.41 212.838L207.658 215.875L215.692 210.665L221.541 207.964L226.426 220.377C249.98 213.902 268.336 206.848 282.883 199.371C286.245 197.643 289.15 196.072 292.095 193.634C300.146 186.971 301.802 179.349 295.559 173.439C288.87 167.992 276.323 169.02 261.575 172.494L215.178 175.803L179.186 174.131V174.131Z" fill="#003823"/>
<path fill-rule="evenodd" clip-rule="evenodd" d="M175.255 137.903H256.11C257.523 137.903 258.823 139.068 258.68 140.476L253.41 192.448C253.268 193.855 252.253 195.02 250.839 195.02H180.397C178.983 195.02 177.965 193.856 177.825 192.448L172.683 140.476C172.544 139.068 173.841 137.903 175.255 137.903Z" fill="white"/>
<path fill-rule="evenodd" clip-rule="evenodd" d="M215.233 161.316C218.072 161.316 220.374 163.621 220.374 166.462C220.374 169.304 218.072 171.608 215.233 171.608C212.393 171.608 210.091 169.304 210.091 166.462C210.091 163.621 212.393 161.316 215.233 161.316Z" fill="#B3B3B3"/>
<path fill-rule="evenodd" clip-rule="evenodd" d="M180.396 195.02H251.288V198.107H180.396V195.02Z" fill="#B3B3B3"/>
<path fill-rule="evenodd" clip-rule="evenodd" d="M260.85 182.983C249.538 186.842 233.47 200.736 233.47 200.736L246.71 204.209L259.693 199.835L260.85 182.983V182.983Z" fill="#003823"/>
<path fill-rule="evenodd" clip-rule="evenodd" d="M170.39 182.983C181.702 186.842 197.77 200.736 197.77 200.736L184.53 204.209L172.475 200.148C172.157 199.857 171.834 199.571 171.509 199.289L170.39 182.983Z" fill="#003823"/>
<path fill-rule="evenodd" clip-rule="evenodd" d="M221.54 207.964L215.692 210.665L213.502 210.954L204.504 211.34L205.469 222.21L209.261 222.854L215.688 221.567L226.021 219.349L221.54 207.964Z" fill="#FF9966"/>
<path fill-rule="evenodd" clip-rule="evenodd" d="M213.502 210.954L215.626 221.579L209.261 222.853L205.469 222.21L204.504 211.34L213.502 210.954Z" fill="white"/>
<path fill-rule="evenodd" clip-rule="evenodd" d="M207.396 212.111C208.324 211.176 208.172 209.452 206.047 209.346L199.169 209.024C191.242 207.005 185.437 207.333 181.623 209.86C181.398 210.037 181.189 210.219 180.995 210.405C177 213.5 178 218 178.5 219C179 220 179.5 221 180.5 221.695C182 223 184 224 184 224C185 224.5 188.5 224.646 189.928 224.834C192.278 225.144 194.936 225.205 197.819 225.123C201.026 225.032 204.625 225.161 208.232 224.718C210.186 224.345 210.546 222.111 208.232 221.695C210.778 219.803 211.021 213.414 207.396 212.111Z" fill="#006C8A"/>
<path fill-rule="evenodd" clip-rule="evenodd" d="M206.681 37.4292C207.624 37.4588 208.55 37.4549 209.457 37.4257L209.291 37.2197C208.462 37.3034 207.596 37.3751 206.681 37.4292Z" fill="white"/>
<path fill-rule="evenodd" clip-rule="evenodd" d="M210.042 78.0161L208.024 82.1531C207.751 84.1689 207.378 86.0073 206.819 87.5144C206.264 89.0109 205.382 90.0844 204.9 91.6573C203.95 94.7497 204.958 97.207 208.165 98.9502C212.723 101.429 220.025 102.04 224.291 98.7121C225.865 97.4838 226.861 95.7931 227.126 93.6711C227.486 90.7854 226.74 89.9916 225.808 87.5473C225.097 85.6815 224.753 83.9986 224.873 82.4402L222.704 78.4023L210.042 78.0161V78.0161Z" fill="#FF9966"/>
<path fill-rule="evenodd" clip-rule="evenodd" d="M207.625 84.5637C213.644 88.7387 219.444 88.781 225.051 84.9933C224.874 84.1027 224.81 83.2548 224.872 82.4402L222.704 78.4023L210.042 78.0161L208.024 82.1531C207.91 82.9908 207.78 83.798 207.625 84.5637V84.5637Z" fill="#C97246"/>
<path fill-rule="evenodd" clip-rule="evenodd" d="M199.325 60.205C199.649 60.0581 199.984 59.9645 200.325 59.9202C200.56 52.6124 205.127 50.9158 207.135 46.4028C211.542 50.8304 215.801 52.1769 219.475 53.3358C221.229 56.8763 222.778 60.5594 224.091 64.3807L224.029 64.2029C225.583 68.0994 227.601 71.7073 230 74.978C224.531 88.7743 208.607 90.3851 202.687 73.3664C200.626 73.2359 198.481 71.4296 197.392 68.6626C195.993 65.1131 196.859 61.3266 199.325 60.205V60.205Z" fill="#FF9966"/>
<path fill-rule="evenodd" clip-rule="evenodd" d="M200.324 59.9202C201.948 53.8034 204.909 53.4181 207.571 49.8956C211.115 53.9605 216.178 54.508 220.779 56.066C220.36 55.1452 219.921 54.2378 219.475 53.3358C215.801 52.1769 211.541 50.8304 207.135 46.4028C205.126 50.9158 200.559 52.6124 200.324 59.9202Z" fill="#C97246"/>
</svg>
