<?xml version="1.0" encoding="UTF-8"?>
<!DOCTYPE svg PUBLIC "-//W3C//DTD SVG 1.1//EN" "http://www.w3.org/Graphics/SVG/1.1/DTD/svg11.dtd">
<!-- Creator: CorelDRAW 2018 (64-Bit) -->
<svg xmlns="http://www.w3.org/2000/svg" xml:space="preserve" width="210mm" height="164.961mm" version="1.1" style="shape-rendering:geometricPrecision; text-rendering:geometricPrecision; image-rendering:optimizeQuality; fill-rule:evenodd; clip-rule:evenodd"
viewBox="0 0 21000 16496.06"
 xmlns:xlink="http://www.w3.org/1999/xlink">
 <defs>
  <style type="text/css">
   <![CDATA[
    .str0 {stroke:#C97246;stroke-width:20;stroke-linecap:round;stroke-linejoin:round;stroke-miterlimit:22.9256}
    .fil4 {fill:none}
    .fil12 {fill:#003823}
    .fil8 {fill:#003C4D}
    .fil17 {fill:#004457}
    .fil16 {fill:#005A73}
    .fil20 {fill:#005A73}
    .fil3 {fill:#006C8A}
    .fil5 {fill:#006C8A}
    .fil22 {fill:#0088AD}
    .fil7 {fill:#00AFE0}
    .fil24 {fill:#00E88F}
    .fil6 {fill:#055E3C}
    .fil0 {fill:#2E3647}
    .fil1 {fill:#34C16F}
    .fil19 {fill:#6AE0B3}
    .fil13 {fill:#B3B3B3}
    .fil23 {fill:#C97246}
    .fil9 {fill:#E6E6E6}
    .fil11 {fill:#FF9966}
    .fil10 {fill:white}
    .fil14 {fill:white}
    .fil21 {fill:#0088AD;fill-rule:nonzero}
    .fil18 {fill:#6AE0B3;fill-rule:nonzero}
    .fil15 {fill:white;fill-rule:nonzero}
    .fil2 {fill:#006C8A;fill-opacity:0.129412}
   ]]>
  </style>
 </defs>
 <g id="Слой_x0020_1">
  <metadata id="CorelCorpID_0Corel-Layer"/>
  <path class="fil0" d="M739.04 0c-2484.14,5280.71 1769.95,10336.11 5708.98,10558.16 2977.99,167.87 3269.39,1289.39 3527.67,2245.93 1071.49,3967.99 8297.58,5863.02 11024.31,-175.4l0 -12628.69 -20260.96 0z"/>
  <path class="fil1" d="M17494.12 11441.03c278.44,-700.71 838.68,-1279.84 1579.14,-1564.16 18.81,-7.22 37.73,-14.25 56.76,-21.08 1299.36,-498.92 2043.77,-1905.68 1684.32,-3284.16 -386.04,-1480.48 -1899.13,-2367.69 -3379.62,-1981.65 -265.31,69.18 -511.58,174.56 -734.88,309.47 -22.28,14.36 -44.8,28.41 -67.57,42.17 -45.58,29.37 -90.12,60.02 -133.62,91.83 -133.09,97.07 -432.81,195.17 -597.27,238.05 -1366.55,356.34 -2760.88,-372.14 -3271,-1650.69l3.46 10.06c-882.14,-2566.51 -3607.72,-4058.63 -6277.27,-3362.53 -2800.9,730.35 -4479.4,3592.97 -3749.06,6393.87 1069.25,4100.6 5360.17,3912.25 5284.3,3915.42 990.95,16.69 1906.55,568.2 2383.02,1441.21 8.49,17.33 17.1,34.59 25.82,51.75 5.31,10.16 10.56,20.37 15.74,30.62 819.04,1576.31 2644.67,2435.95 4436.32,1968.77 1265.78,-330.06 2222.98,-1246.33 2656.45,-2381.87 24.46,-83.79 52.84,-166.25 84.96,-247.08z"/>
  <path class="fil2" d="M6665.28 817.56l-901.88 3410.24 -851.55 0 -565.8 -2187.72c-30.04,-114.45 -47.89,-241.9 -54.39,-383.15l-9.74 0c-14.62,155.05 -34.9,283.3 -61.7,383.15l-580.41 2187.72 -887.26 0 -99.2 -377.46c111.77,-375.8 265.24,-736.94 456.2,-1076.87l66.74 315.42c20.29,96.6 35.72,226.49 44.65,389.65l14.61 0c6.49,-121.77 29.22,-254.89 69,-399.39l274.87 -1004.95c337.54,-424.47 742.26,-798.36 1203.32,-1103.94l522.01 2137.3c20.3,84.43 38.96,206.19 54.39,366.11l9.74 0c6.49,-125.01 22.73,-251.65 49.52,-379.9l471.63 -2276.21 775.25 0zm6291.47 3396.53c-130.68,-180.7 -240.96,-379.23 -326.36,-593.27l3.46 10.06c-180.5,-525.14 -438.24,-1005.26 -756.85,-1430.86 -21.75,125.38 -32.63,257.41 -32.63,396.12 0,512.23 149.36,922.18 449.72,1229.84 180.34,185.22 401.3,314.52 662.66,388.11zm-2498.89 -3317.74c-43.08,-26.93 -86.61,-53.12 -130.44,-78.79l-638.3 0 0 3410.24 2031.04 0 0 -623.43 -1262.3 0 0 -2708.02zm-1315.06 3331.45l-2045.66 0 0 -3410.24 1966.91 0 0 625.06 -1198.17 0 0 759.01 1115.37 0 0 622.62 -1115.37 0 0 780.12 1276.92 0 0 623.43z"/>
  <path class="fil2" d="M14385.33 5238.18c-401.17,-124.26 -769.93,-338.38 -1076.64,-625.05l-135.55 0 0 3410.23 2045.66 0 0 -623.43 -1276.91 0 0 -780.11 1115.37 0 0 -622.63 -1115.37 0 0 -759.01 443.44 0zm-11920.87 -435.79c-39.68,384.39 -36.87,777.32 11.8,1172.6 46.34,-179.34 130.28,-331.33 251.87,-455.94 196.44,-201.31 455.4,-301.97 775.24,-301.97 292.24,0 552,68.19 780.11,204.56l0 -739.52c-228.11,-84.42 -508.98,-126.63 -841.81,-126.63 -374.26,0 -700.08,82.32 -977.21,246.9zm302.94 2377.16c119.01,331.18 260.64,630.24 419.76,900.21 39.77,1.9 80.23,2.86 121.38,2.86 401.01,0 726.53,-60.07 974.94,-180.21l0 -702.18c-248.41,146.12 -522.79,219.18 -822.32,219.18 -283.79,0 -515.23,-80.16 -693.76,-239.86zm3492.73 903.07c-488.69,0 -886.45,-159.1 -1194.11,-476.51 -307.66,-318.21 -461.09,-732.21 -461.09,-1242.81 0,-539.01 155.86,-974.94 468.39,-1307.76 312.54,-332.83 725.73,-500.05 1241.2,-500.05 487.06,0 880.77,159.92 1181.12,478.13 300.36,319.03 450.54,739.52 450.54,1260.68 0,535.76 -155.86,968.44 -467.58,1296.39 -310.91,327.96 -717.61,491.93 -1218.47,491.93zm33.28 -2865.54c-269.5,0 -483.81,100.66 -642.1,303.6 -158.3,202.13 -237.85,469.2 -237.85,802.03 0,337.7 79.55,604.77 237.85,802.03 158.29,196.45 366.1,294.67 622.62,294.67 265.45,0 474.88,-95.79 630.75,-286.55 155.05,-191.58 232.97,-456.22 232.97,-795.54 0,-353.93 -75.49,-629.12 -225.67,-825.57 -150.99,-196.44 -357.18,-294.67 -618.57,-294.67zm6105.32 2806.28l-759.01 0 0 -2040.79c0,-219.98 9.74,-463.52 28.42,-729.77l-18.68 0c-39.77,209.43 -75.49,359.61 -107.15,452.15l-798.78 2318.41 -628.31 0 -813.39 -2294.86c-21.92,-61.7 -57.63,-220.81 -107.15,-475.7l-21.11 0c20.3,336.07 30.85,630.74 30.85,884.83l0 1885.73 -692.44 0 0 -3410.23 1125.11 0 697.31 2021.29c55.2,161.55 95.78,323.9 120.96,487.88l14.6 0c42.22,-189.14 87.68,-353.12 135.57,-492.75l696.5 -2016.42 1096.7 0 0 3410.23z"/>
  <path class="fil2" d="M20281.81 5520.45l-661.92 2502.91 -851.55 0 -565.81 -2187.71c-30.03,-114.46 -47.89,-241.91 -54.39,-383.15l-9.74 0c-14.61,155.04 -34.9,283.3 -61.69,383.15l-580.42 2187.71 -887.26 0 -722.22 -2748.23c4.86,-1.24 9.71,-2.35 14.57,-3.62 164.46,-42.88 464.18,-140.98 597.27,-238.05 40.54,-29.65 81.99,-58.28 124.34,-85.82l409.78 1936.81c20.3,96.6 35.72,226.49 44.65,389.65l14.61 0c6.5,-121.77 29.22,-254.89 69,-399.39l618.57 -2261.58 822.33 0 559.3 2289.99c20.3,84.43 38.97,206.19 54.39,366.11l9.74 0c6.5,-125.01 22.74,-251.65 49.52,-379.9l398.19 -1921.71c227.74,152.12 433.46,337.97 608.74,552.83z"/>
  <path class="fil1" d="M19958.74 0c-12.53,53.96 -22.46,108.93 -29.46,164.81l0.49 -6.21c-120.79,1586.27 -1446.12,2835.78 -3063.34,2835.78 -1670.73,0 -3029.95,-1333.6 -3071.28,-2994.38l6163.59 0z"/>
  <path class="fil3" d="M12367.64 7178.01c0,0 -1146.95,-1593.56 -3003.38,-2250.72 756.39,921.61 357.04,2607.69 1959.07,3873.68 660.67,522.09 953.87,337.35 1070.5,-59.82 -177.25,-325.2 -397.28,-653.89 -624.76,-961.21 -531.42,-266.72 -1018.67,-343.47 -1020.37,-343.75 -21.3,-3.39 -35.82,-23.42 -32.43,-44.73 3.39,-21.3 23.43,-35.82 44.73,-32.43 1.6,0.25 419.53,66.13 906.91,286.28 -596.43,-782.86 -1208.15,-1395.75 -1210.85,-1398.47 -15.23,-15.3 -15.16,-40.06 0.13,-55.28 15.3,-15.23 40.06,-15.16 55.28,0.14 2.86,2.87 680.73,682.01 1308.06,1526.75 107.77,54.72 217.11,117.07 324.52,188.02 18.02,11.89 22.99,36.15 11.09,54.18 -11.89,18.02 -36.15,22.99 -54.17,11.09 -57.84,-38.21 -116.25,-73.84 -174.65,-107.12 177.95,247.71 348.32,506.69 493.85,764.84 115.41,-575.87 -53.53,-1451.45 -53.53,-1451.45z"/>
  <path class="fil4" d="M10968.69 7810.89c0,0 606.37,20.4 961.14,192.32"/>
  <path class="fil5" d="M16676.15 8775.44c0,0 1165.72,-995.72 2695.72,-1149.53 -744.77,558.58 -754.88,1911.52 -2204.94,2574.32 -548.95,250.91 -752.46,107.53 -793.58,-167.42 111.57,-130.76 237.23,-260.28 369.87,-385.81 349.6,-167.39 943.1,-187.39 944.82,-187.45 54.25,-9 41.98,-60.8 -1.91,-60.94 -1.53,0.05 -461.32,15.55 -818.51,133.56 698.67,-629.51 1524.45,-1131.59 1527.51,-1133.46 42.28,-23.69 7.9,-73.69 -31.8,-52.11 -1.89,1.15 -317.44,193.01 -724.01,488.39 193.5,-362.6 469.05,-600.13 469.91,-600.88 36.16,-28.8 -0.11,-60.21 -30.52,-35.27 -0.95,0.82 -325.15,280.33 -522.15,696.82 -391.08,289.14 -848.89,663.87 -1190.76,1052.75 -17.02,-460.32 310.35,-1172.97 310.35,-1172.97z"/>
  <path class="fil6" d="M15268.59 7994.25c0,0 -89.05,-558.57 80.95,-922.86 170,-364.28 623.33,-234.75 882.38,-477.61 259.04,-242.86 615.23,-1335.72 1246.66,-801.43 631.43,534.28 -234.76,769.04 -145.71,1246.66 89.05,477.63 290.42,542.39 -437.14,1141.43 -727.57,599.05 -1627.14,-186.19 -1627.14,-186.19zm1797.87 -1641.52c-1.81,2.07 -632.53,717.15 -942.36,1385.09l-55.46 -25.58c313.5,-675.85 950.1,-1397.57 951.93,-1399.67 25.04,-24.69 76.36,-1.62 45.89,40.16z"/>
  <path class="fil7" d="M13610.07 6694.22c0,0 -1105.01,222.63 -1360,416.91 -255,194.29 -671.91,947.14 -671.91,947.14l3027.62 2772.63 1772.86 -72.86 -267.14 -3731.91c0,0 -647.58,-283.31 -1230.46,-384.51 -582.88,-101.2 -1270.97,52.6 -1270.97,52.6z"/>
  <polygon class="fil8" points="15814,7812.12 15640.28,7950.97 15430.02,10071.27 16356.52,10449.12 16522.32,9746.88 "/>
  <rect class="fil9" x="14876.97" y="10620.39" width="979.52" height="311.67"/>
  <rect class="fil10" x="15133.99" y="10704.31" width="248.92" height="157.86"/>
  <path class="fil11" d="M16030.53 9049.94l76.91 789.28 -1258.81 -1222.38c0,0 -364.3,-335.95 -1076.67,194.29 -712.38,530.24 255,951.19 408.81,987.62 153.81,36.43 514.05,36.43 514.05,36.43 0,0 785.24,1546.19 1934.76,1780.95 1149.52,234.76 572.6,-2456.24 572.6,-2456.24l-208.31 -385.2 -963.34 275.25z"/>
  <path class="fil11" d="M12909.85 3788.04c0,0 -244.88,1295.25 -6.07,1813.34 238.81,518.09 558.57,546.43 558.57,546.43 0,0 -50.6,451.3 -64.76,576.78 -14.17,125.48 -50.6,736.67 534.29,781.2 584.88,44.52 949.16,-864.17 949.16,-864.17 0,0 -222.62,-554.51 -174.05,-886.42 48.58,-331.92 174.05,-922.88 174.05,-922.88l4.05 -319.76 -538.34 -234.76 -210.47 255 -360.24 -194.29 -425 -279.28 -157.86 -214.53 -283.33 -56.66z"/>
  <path class="fil12" d="M13073.77 4071.4c0,0 -615.25,331.9 -983.58,-72.86 -368.32,-404.77 -250.51,-1081.77 328.3,-911.78 578.81,170 1219.93,-116.32 1632.78,-59.66 412.86,56.67 396.67,335.95 396.67,335.95 0,0 242.87,-93.09 461.43,52.62 218.57,145.71 80.96,396.67 80.96,396.67 0,0 263.09,222.62 190.23,554.53 -72.86,331.9 -271.19,643.57 -344.05,866.18 -72.85,222.62 -129.52,522.15 -129.52,522.15 0,0 -93.1,-562.62 48.57,-910.72 141.67,-348.09 -356.19,-453.33 -477.62,-165.95 -121.43,287.38 -89.04,473.57 -89.04,473.57 0,0 -125.48,-420.96 -327.86,-586.9 -202.38,-165.95 -465.48,-129.52 -787.27,-493.8z"/>
  <path class="fil5" d="M17329.82 9276.61c0,0 -48.58,-218.57 -667.86,-174.05 -619.29,44.53 -712.38,234.76 -712.38,234.76 0,0 -833.79,-2558.09 161.92,-2311.19 995.7,246.91 1218.32,2250.48 1218.32,2250.48z"/>
  <rect class="fil13" transform="matrix(0.611923 -0 0.341122 0.611923 8756.96 7714.22)" width="7487.72" height="5304.9" rx="582.08" ry="582.08"/>
  <rect class="fil14" transform="matrix(0.611923 -0 0.341122 0.611923 8603.15 7714.22)" width="7487.72" height="5304.9" rx="582.08" ry="582.08"/>
  <path class="fil15" d="M8378.63 10676.92c0.21,5.55 56.04,1931.35 1660.98,2351.56 940.84,246.34 1916.35,-360.1 2802.88,-911.23 633.63,-393.92 1222.35,-759.9 1730.18,-773.53l20.39 -0.44c123.93,-224.24 334.36,-437.47 652.37,-587.65l26.06 55.22c-291.23,137.53 -488.06,329.43 -608.23,532.64 360.91,8.22 562.57,128.61 653.67,287.08 46.21,80.38 63.75,170.07 59.03,259.79 -4.68,88.75 -31.14,177.62 -73.12,257.4 -96.81,184.01 -277.25,321.13 -465.52,301.07 -102.52,-10.92 -188.87,-63.25 -253.91,-144.33 -74.18,-92.46 -120.33,-222.53 -130.4,-370.55 -9.94,-146.23 15.24,-310.57 83.41,-473.68 7.68,-18.4 15.93,-36.78 24.73,-55.12 -488.14,19.1 -1065.45,377.94 -1686.39,763.96 -897.11,557.71 -1884.26,1171.39 -2850.45,918.41 -1649.34,-431.83 -1706.42,-2402.77 -1706.63,-2408.44l60.95 -2.16zm6885.47 984c-83.88,-145.94 -278.15,-255.66 -634.22,-256.91 -13.58,26.47 -25.93,53.06 -37.06,79.68 -64.38,154.07 -88.19,308.84 -78.86,446.2 9.21,135.56 50.64,253.62 117.02,336.37 55.02,68.58 127.41,112.76 212.79,121.86 161.61,17.21 318.93,-105.11 405.05,-268.8 38.04,-72.3 62,-152.43 66.19,-232.07 4.14,-78.69 -10.98,-156.88 -50.91,-226.33z"/>
  <path class="fil15" d="M7263.85 10615.22c1.99,5.64 673.38,1965.87 2729.24,2400.59l-12.43 59.77c-2090,-441.94 -2772.39,-2434.31 -2774.42,-2440.05l57.61 -20.31z"/>
  <circle class="fil13" transform="matrix(0.611923 -0 0.215784 0.611923 11632.8 9320.03)" r="575.46"/>
  <path class="fil9" d="M8323.87 10850.03c0,0 -186.2,-845.95 4.04,-1072.62 190.24,-226.67 416.9,315.71 319.76,469.53 -97.14,153.81 -214.52,97.14 -214.52,97.14l12.14 481.67 -121.42 24.28z"/>
  <path class="fil9" d="M7338.44 10692.15c0,0 -226.64,-836.03 -500.21,-948.86 -273.57,-112.83 -223.35,472.86 -66.03,564.21 157.31,91.36 235.12,-13.21 235.12,-13.21l212.25 432.55 118.87 -34.69z"/>
  <path class="fil16" d="M12030.64 7714.22c78.58,-312.04 219.43,-603.09 219.43,-603.09 -138.98,105.89 -326.04,377.68 -467.5,603.09l248.07 0z"/>
  <path class="fil4 str0" d="M16107.44 9839.22c0,0 299.56,322.56 408.84,524.95"/>
  <path class="fil17" d="M16050.01 9249.74c-80.87,47.6 -100.43,87.58 -100.43,87.58 0,0 39.09,17.2 112.77,39.13l-12.34 -126.71z"/>
  <path class="fil17" d="M17202.18 9159.89c0,0 17.53,81.75 40.38,215.51 63.4,-41.47 79.17,-86.41 82.8,-110.67 -9.81,-21.11 -39.52,-66.52 -123.18,-104.84z"/>
  <path class="fil18" d="M10360.62 10942.69c16.82,-1.25 31.49,11.38 32.74,28.21 1.25,16.82 -11.38,31.49 -28.2,32.74 -4.61,0.34 -1611.72,137.9 -1335.84,-1448.37l17.7 -101.64c115.95,-665.66 174.96,-1004.39 140.03,-1260.02 -35.78,-261.92 -172.87,-444 -451.96,-814.67l-4.17 -5.54c-39.78,-52.84 -81.91,-108.79 -99.63,-132.49 -10.1,-13.53 -7.31,-32.69 6.22,-42.79 13.53,-10.1 32.69,-7.31 42.78,6.22 52.2,69.82 76.41,101.97 99.39,132.49l4.17 5.54c285.5,379.2 425.74,565.46 463.67,843.11 36.23,265.2 -23.29,606.91 -140.26,1278.43l-17.7 101.64c-262.33,1508.33 1266.67,1377.47 1271.06,1377.14z"/>
  <path class="fil19" d="M8468.59 6921.61c202.38,-97.15 290.16,438.09 290.16,438.09 0,0 -516.83,-288.33 -290.16,-438.09z"/>
  <path class="fil19" d="M9233.13 7354.86c208.85,82.33 -123.89,510.66 -123.89,510.66 0,0 -140.04,-575 123.89,-510.66z"/>
  <path class="fil18" d="M8215.87 9024.48c-16.82,1.24 -31.49,-11.38 -32.74,-28.21 -1.25,-16.83 11.38,-31.49 28.2,-32.74 792.08,-58.98 848.1,973.64 848.28,976.61 0.99,16.83 -11.85,31.28 -28.68,32.27 -16.83,0.98 -31.28,-11.86 -32.27,-28.68 -0.17,-2.8 -52.98,-973.6 -782.79,-919.25z"/>
  <path class="fil19" d="M8956.58 8425.72c218.7,-50.66 187.61,490.84 187.61,490.84 0,0 -441.48,-394.12 -187.61,-490.84z"/>
  <path class="fil19" d="M7738.1 9051.87c8.76,-224.32 522.92,-51.63 522.92,-51.63 0,0 -496.53,322.02 -522.92,51.63z"/>
  <path class="fil19" d="M8946.32 10523.84c125.2,-186.33 472.2,230.53 472.2,230.53 0,0 -591.66,13.47 -472.2,-230.53z"/>
  <path class="fil11" d="M9928.73 9471.86c0,0 -82.93,398.76 -190.21,575.81 -107.29,177.04 151.76,229.66 151.76,229.66 0,0 267.3,-56.86 358.29,-244.97 91,-188.12 -44.6,-718.36 -319.84,-560.5z"/>
  <path class="fil11" d="M9738.52 10047.67c0,0 750.83,-66.79 1163.69,70.83 412.86,137.62 109.28,400.72 109.28,400.72 0,0 263.1,64.76 271.2,214.52 8.09,149.76 -137.63,226.67 -137.63,226.67 0,0 156.98,60.33 137.87,149.76 -19.1,89.44 -170.24,133.57 -170.24,133.57 0,0 109.28,222.62 -259.05,238.81 -368.33,16.19 -482.68,-21.26 -532.27,-52.63 -49.58,-31.37 -57.68,-97.14 -57.68,-97.14 0,0 -152.81,13.13 -243.88,-128.54 -91.06,-141.66 -4.04,-244.88 -4.04,-244.88 0,0 -196.32,12.15 -265.13,-139.64 -68.8,-151.79 -10.11,-269.17 -10.11,-269.17 0,0 -194.29,-58.69 -204.41,-224.64 -10.12,-165.96 111.32,-277.27 202.4,-278.24z"/>
  <path class="fil20" d="M7347.48 5535.22c502.97,0 910.71,407.74 910.71,910.71 0,502.97 -407.74,910.71 -910.71,910.71 -502.98,0 -910.71,-407.74 -910.71,-910.71 0,-502.97 407.73,-910.71 910.71,-910.71zm143.38 432.84c-223.76,230.25 -447.52,460.49 -671.27,690.74 -27.02,31.32 -47.46,47.41 -31.08,76.67 7.19,12.83 26.22,18.77 66.91,12.61 141.76,-27.88 283.52,-55.72 425.29,-83.57 97.45,79.37 194.92,158.72 292.38,238.09 46.21,35.66 77.3,44.82 97.04,34.15 26.77,-14.48 22.84,-30.86 24.35,-63.69 -23.46,-287.4 -46.91,-574.81 -70.35,-862.19 -7.57,-42.91 -12.62,-66.03 -39.23,-79.12 -23.6,-11.6 -54.62,-0.02 -94.04,36.31z"/>
  <path class="fil21" d="M9771.58 2504.46l0.44 -0.45 -0.15 -0.15 3.68 -3.44 377.08 -382.83 -0.14 -0.15c1.34,-1.34 2.71,-2.61 4.11,-3.82 96.23,-95.31 222.54,-143.57 349.24,-144.53 128.3,-0.98 257.03,46.78 355.22,143.49l0.45 0.44 0.15 -0.14 3.45 3.68 382.83 377.08 0.14 -0.15c1.34,1.34 2.61,2.71 3.82,4.11 95.31,96.23 143.58,222.54 144.54,349.25 0.97,128.29 -46.79,257.03 -143.49,355.22l-0.45 0.45 0.15 0.15 -3.68 3.44 -377.08 382.83 0.14 0.15c-1.34,1.34 -2.71,2.61 -4.11,3.82 -96.23,95.31 -222.54,143.57 -349.24,144.54 -128.3,0.97 -257.03,-46.79 -355.22,-143.49l-0.46 -0.45 -0.14 0.15 -3.45 -3.69 -382.83 -377.08 -0.15 0.15c-1.34,-1.34 -2.6,-2.71 -3.81,-4.11 -95.31,-96.23 -143.58,-222.54 -144.54,-349.25 -0.97,-128.29 46.79,-257.03 143.5,-355.22zm488.92 -279l-376.23 381.97c-1.34,1.57 -2.74,3.1 -4.23,4.59l-0.15 -0.13c-67.01,68.27 -100.1,157.84 -99.43,247.19 0.66,87.64 34.05,175.09 99.96,241.92 1.42,1.23 2.82,2.52 4.17,3.87l-0.14 0.15 381.98 376.24c1.57,1.33 3.1,2.74 4.58,4.23l-0.13 0.14c68.28,67.01 157.85,100.11 247.2,99.43 87.64,-0.66 175.09,-34.04 241.91,-99.95 1.23,-1.43 2.52,-2.82 3.87,-4.18l0.16 0.14 376.23 -381.97c1.34,-1.57 2.74,-3.1 4.23,-4.59l0.15 0.13c67.01,-68.27 100.1,-157.84 99.43,-247.19 -0.66,-87.64 -34.05,-175.1 -99.96,-241.92 -1.43,-1.23 -2.82,-2.52 -4.17,-3.87l0.14 -0.15 -381.98 -376.24c-1.57,-1.33 -3.1,-2.74 -4.59,-4.23l0.14 -0.14c-68.28,-67.01 -157.85,-100.11 -247.2,-99.43 -87.64,0.66 -175.09,34.04 -241.91,99.95 -1.23,1.43 -2.52,2.83 -3.88,4.18l-0.15 -0.14z"/>
  <path class="fil21" d="M10221.98 2566.32c78.73,-79.63 182.93,-119.95 287.47,-120.75 104.44,-0.78 209.25,38.1 289.2,116.84l0.56 0.57c79.63,78.73 119.95,182.94 120.74,287.48 0.79,104.44 -38.1,209.25 -116.84,289.19l-0.57 0.56c-78.73,79.63 -182.93,119.95 -287.47,120.75 -104.45,0.78 -209.26,-38.1 -289.2,-116.84l-0.56 -0.57c-79.63,-78.73 -119.95,-182.93 -120.74,-287.48 -0.79,-104.44 38.09,-209.25 116.84,-289.19l0.57 -0.56zm288.07 31.63c-65.35,0.5 -130.58,25.84 -179.87,75.89 -49.36,50.11 -73.73,115.94 -73.23,181.63 0.49,65.36 25.84,130.58 75.88,179.87 50.11,49.36 115.95,73.73 181.64,73.24 65.35,-0.5 130.57,-25.84 179.87,-75.89 49.35,-50.11 73.73,-115.94 73.23,-181.63 -0.49,-65.36 -25.84,-130.58 -75.88,-179.87 -50.11,-49.36 -115.95,-73.73 -181.64,-73.24z"/>
  <rect class="fil22" transform="matrix(0.04993 -0.0506925 0.0506925 0.04993 10370.8 2316.24)" width="2275.42" height="2275.42" rx="1137.71" ry="1137.71"/>
  <line class="fil4" x1="10764.28" y1="10536.39" x2="11011.48" y2= "10519.21" />
  <line class="fil4" x1="9954.18" y1="10557.24" x2="9740.53" y2= "10550.54" />
  <line class="fil4" x1="11022.74" y1="10960.4" x2="11158.11" y2= "10964.67" />
  <line class="fil4" x1="10207.15" y1="10959.99" x2="10015.77" y2= "10959.35" />
  <line class="fil4" x1="11020.71" y1="11253.44" x2="11112.68" y2= "11243.73" />
  <line class="fil4" x1="10646.35" y1="10963.3" x2="10454.97" y2= "10962.66" />
  <line class="fil4" x1="10539.53" y1="10548.65" x2="10243.05" y2= "10554.56" />
  <path class="fil23" d="M13462.35 6147.81l-10.74 95.83c351.52,46.48 777.76,-159.82 530.85,-105.17 -246.9,54.64 -520.11,9.34 -520.11,9.34z"/>
  <path class="fil4" d="M14091.75 6100.02c-251.96,80.95 -629.4,47.79 -629.4,47.79l-10.74 95.83"/>
  <path class="fil24" d="M16836.41 3578.88l1251.94 506.66c172.14,69.66 255.97,267.5 186.31,439.63l-193.72 478.7c-69.67,172.13 -267.49,255.97 -439.64,186.31l-1251.94 -506.66c-172.13,-69.66 -255.97,-267.49 -186.31,-439.63l193.72 -478.69c69.67,-172.14 267.5,-255.98 439.64,-186.32zm666.91 912.68l-183.27 -234.86 -183.28 -234.87 -111.76 276.16 -111.76 276.15 295.04 -41.29 295.03 -41.29z"/>
  <g id="_2497576792048">
   <path class="fil10" d="M13636.02 3210.84c293.13,-10.98 507.87,-35.05 619.84,239.77 66.61,163.53 377.32,-94.71 460.01,407.03 10.48,63.57 7.6,219.25 74.88,238.5 -68.52,26.72 -94.18,-208.45 -99.68,-234.14 -104.24,-486.84 -393,-181.61 -473.42,-396.66 -96.98,-259.35 -296.36,-231.59 -581.63,-254.5z"/>
  </g>
  <path class="fil4" d="M13636.02 3210.84c200.07,0 547.78,0.31 595.41,228.87 21.82,104.7 150.58,89.56 301.63,129.29 224.4,59.04 144.14,540.77 257.69,527.14"/>
 </g>
</svg>
